NotoSansEthiopic-Light.ufo
<glyph name="hyphen" format="2">
  <advance width="294"/>
  <unicode hex="002D"/>
  <outline>
    <contour>
      <point x="26" y="259" type="line"/>
      <point x="268" y="259" type="line"/>
      <point x="268" y="284" type="line"/>
      <point x="26" y="284" type="line"/>
    </contour>
  </outline>
</glyph>
<glyph name="dieresiscomb" format="2">
  <unicode hex="0308"/>
  <anchor x="1" y="536" name="_top"/>
  <anchor x="1" y="709" name="top"/>
  <outline>
    <contour>
      <point x="-116" y="678" type="curve" smooth="yes"/>
      <point x="-116" y="661"/>
      <point x="-111" y="647"/>
      <point x="-93" y="647" type="curve" smooth="yes"/>
      <point x="-71" y="647"/>
      <point x="-68" y="661"/>
      <point x="-68" y="678" type="curve" smooth="yes"/>
      <point x="-68" y="694"/>
      <point x="-71" y="709"/>
      <point x="-93" y="709" type="curve" smooth="yes"/>
      <point x="-111" y="709"/>
      <point x="-116" y="694"/>
    </contour>
    <contour>
      <point x="69" y="678" type="curve" smooth="yes"/>
      <point x="69" y="661"/>
      <point x="74" y="647"/>
      <point x="92" y="647" type="curve" smooth="yes"/>
      <point x="114" y="647"/>
      <point x="117" y="661"/>
      <point x="117" y="678" type="curve" smooth="yes"/>
      <point x="117" y="694"/>
      <point x="114" y="709"/>
      <point x="92" y="709" type="curve" smooth="yes"/>
      <point x="74" y="709"/>
      <point x="69" y="694"/>
    </contour>
  </outline>
</glyph>
<glyph name="ha.eth" format="2">
  <advance width="594"/>
  <unicode hex="1200"/>
  <note>
uni1200
</note>
  <anchor x="297" y="714" name="top"/>
  <outline>
    <contour>
      <point x="297" y="-10" type="curve" smooth="yes"/>
      <point x="428" y="-10"/>
      <point x="499" y="71"/>
      <point x="499" y="233" type="curve" smooth="yes"/>
      <point x="499" y="714" type="line"/>
      <point x="473" y="714" type="line"/>
      <point x="473" y="241" type="line" smooth="yes"/>
      <point x="473" y="90"/>
      <point x="416" y="15"/>
      <point x="297" y="15" type="curve" smooth="yes"/>
      <point x="177" y="15"/>
      <point x="121" y="89"/>
      <point x="121" y="240" type="curve" smooth="yes"/>
      <point x="121" y="714" type="line"/>
      <point x="95" y="714" type="line"/>
      <point x="95" y="236" type="line" smooth="yes"/>
      <point x="95" y="73"/>
      <point x="160" y="-10"/>
    </contour>
  </outline>
</glyph>
<glyph name="hi.eth" format="2">
  <advance width="474"/>
  <unicode hex="1202"/>
  <note>
uni1202
</note>
  <anchor x="254" y="714" name="top"/>
  <outline>
    <contour>
      <point x="138" y="0" type="line"/>
      <point x="157" y="0" type="line"/>
      <point x="447" y="714" type="line"/>
      <point x="418" y="714" type="line"/>
      <point x="282" y="380" type="line"/>
      <point x="144" y="392"/>
      <point x="80" y="459"/>
      <point x="80" y="598" type="curve" smooth="yes"/>
      <point x="80" y="714" type="line"/>
      <point x="54" y="714" type="line"/>
      <point x="54" y="595" type="line" smooth="yes"/>
      <point x="54" y="444"/>
      <point x="127" y="370"/>
      <point x="271" y="355" type="curve"/>
      <point x="138" y="25" type="line"/>
    </contour>
    <contour>
      <point x="150" y="0" type="line"/>
      <point x="239" y="0" type="line"/>
      <point x="239" y="25" type="line"/>
      <point x="150" y="25" type="line"/>
    </contour>
    <component base="rightdoubleflag" xOffset="191"/>
  </outline>
</glyph>
<glyph name="haa.eth" format="2">
  <advance width="478"/>
  <unicode hex="1203"/>
  <note>
uni1203
</note>
  <anchor x="250" y="714" name="top"/>
  <outline>
    <contour>
      <point x="128" y="0" type="line"/>
      <point x="157" y="0" type="line"/>
      <point x="447" y="714" type="line"/>
      <point x="418" y="714" type="line"/>
      <point x="282" y="380" type="line"/>
      <point x="144" y="392"/>
      <point x="80" y="459"/>
      <point x="80" y="598" type="curve" smooth="yes"/>
      <point x="80" y="714" type="line"/>
      <point x="54" y="714" type="line"/>
      <point x="54" y="595" type="line" smooth="yes"/>
      <point x="54" y="444"/>
      <point x="127" y="370"/>
      <point x="271" y="355" type="curve"/>
    </contour>
  </outline>
</glyph>
<glyph name="hee.eth" format="2">
  <advance width="478"/>
  <unicode hex="1204"/>
  <note>
uni1204
</note>
  <anchor x="256" y="714" name="top"/>
  <outline>
    <contour>
      <point x="138" y="0" type="line"/>
      <point x="157" y="0" type="line"/>
      <point x="447" y="714" type="line"/>
      <point x="418" y="714" type="line"/>
      <point x="282" y="380" type="line"/>
      <point x="144" y="392"/>
      <point x="80" y="459"/>
      <point x="80" y="598" type="curve" smooth="yes"/>
      <point x="80" y="714" type="line"/>
      <point x="54" y="714" type="line"/>
      <point x="54" y="595" type="line" smooth="yes"/>
      <point x="54" y="444"/>
      <point x="127" y="370"/>
      <point x="271" y="355" type="curve"/>
      <point x="138" y="23" type="line"/>
    </contour>
    <contour>
      <point x="156" y="25" type="line"/>
      <point x="232" y="205" type="line"/>
      <point x="324" y="205" type="line" smooth="yes"/>
      <point x="402" y="205"/>
      <point x="432" y="172"/>
      <point x="432" y="122" type="curve" smooth="yes"/>
      <point x="432" y="65"/>
      <point x="397" y="25"/>
      <point x="289" y="25" type="curve" smooth="yes"/>
    </contour>
    <contour>
      <point x="140" y="0" type="line"/>
      <point x="292" y="0" type="line" smooth="yes"/>
      <point x="413" y="0"/>
      <point x="458" y="54"/>
      <point x="458" y="124" type="curve" smooth="yes"/>
      <point x="458" y="187"/>
      <point x="419" y="230"/>
      <point x="328" y="230" type="curve" smooth="yes"/>
      <point x="225" y="230" type="line"/>
    </contour>
  </outline>
</glyph>
<glyph name="he.eth" format="2">
  <advance width="710"/>
  <unicode hex="1205"/>
  <note>
uni1205
</note>
  <anchor x="337" y="714" name="top"/>
  <outline>
    <contour>
      <point x="413" y="-10" type="curve" smooth="yes"/>
      <point x="544" y="-10"/>
      <point x="615" y="71"/>
      <point x="615" y="233" type="curve" smooth="yes"/>
      <point x="615" y="714" type="line"/>
      <point x="589" y="714" type="line"/>
      <point x="589" y="241" type="line" smooth="yes"/>
      <point x="589" y="90"/>
      <point x="532" y="15"/>
      <point x="413" y="15" type="curve" smooth="yes"/>
      <point x="293" y="15"/>
      <point x="237" y="89"/>
      <point x="237" y="240" type="curve" smooth="yes"/>
      <point x="237" y="514" type="line"/>
      <point x="211" y="514" type="line"/>
      <point x="211" y="236" type="line" smooth="yes"/>
      <point x="211" y="73"/>
      <point x="276" y="-10"/>
    </contour>
    <contour>
      <point x="212" y="489" type="curve"/>
      <point x="237" y="514" type="line"/>
      <point x="209" y="514" type="line" smooth="yes"/>
      <point x="125" y="514"/>
      <point x="86" y="552"/>
      <point x="86" y="661" type="curve" smooth="yes"/>
      <point x="86" y="714" type="line"/>
      <point x="60" y="714" type="line"/>
      <point x="60" y="659" type="line" smooth="yes"/>
      <point x="60" y="534"/>
      <point x="111" y="489"/>
    </contour>
  </outline>
</glyph>
<glyph name="ho.eth" format="2">
  <advance width="767"/>
  <unicode hex="1206"/>
  <note>
uni1206
</note>
  <anchor x="421" y="725" name="top"/>
  <outline>
    <contour>
      <point x="297" y="-10" type="curve" smooth="yes"/>
      <point x="428" y="-10"/>
      <point x="499" y="71"/>
      <point x="499" y="233" type="curve" smooth="yes"/>
      <point x="499" y="694" type="line"/>
      <point x="473" y="694" type="line"/>
      <point x="473" y="241" type="line" smooth="yes"/>
      <point x="473" y="90"/>
      <point x="416" y="15"/>
      <point x="297" y="15" type="curve" smooth="yes"/>
      <point x="177" y="15"/>
      <point x="121" y="89"/>
      <point x="121" y="240" type="curve" smooth="yes"/>
      <point x="121" y="714" type="line"/>
      <point x="95" y="714" type="line"/>
      <point x="95" y="236" type="line" smooth="yes"/>
      <point x="95" y="73"/>
      <point x="160" y="-10"/>
    </contour>
    <contour>
      <point x="487" y="486" type="line"/>
      <point x="598" y="486" type="line" smooth="yes"/>
      <point x="695" y="486"/>
      <point x="747" y="530"/>
      <point x="747" y="611" type="curve" smooth="yes"/>
      <point x="747" y="681"/>
      <point x="710" y="725"/>
      <point x="619" y="725" type="curve" smooth="yes"/>
      <point x="562" y="725"/>
      <point x="512" y="711"/>
      <point x="473" y="694" type="curve"/>
    </contour>
    <contour>
      <point x="499" y="510" type="line"/>
      <point x="499" y="677" type="line"/>
      <point x="521" y="686"/>
      <point x="567" y="700"/>
      <point x="616" y="700" type="curve" smooth="yes"/>
      <point x="694" y="700"/>
      <point x="721" y="662"/>
      <point x="721" y="610" type="curve" smooth="yes"/>
      <point x="721" y="540"/>
      <point x="675" y="510"/>
      <point x="596" y="510" type="curve" smooth="yes"/>
    </contour>
  </outline>
</glyph>
<glyph name="la.eth" format="2">
  <advance width="529"/>
  <unicode hex="1208"/>
  <note>
uni1208
</note>
  <anchor x="271" y="714" name="top"/>
  <outline>
    <contour>
      <point x="44" y="0" type="curve"/>
      <point x="73" y="0" type="line"/>
      <point x="103" y="328"/>
      <point x="137" y="493"/>
      <point x="308" y="537" type="curve"/>
      <point x="469" y="0" type="line"/>
      <point x="498" y="0" type="line"/>
      <point x="285" y="714" type="line"/>
      <point x="256" y="714" type="line"/>
      <point x="302" y="561" type="line"/>
      <point x="119" y="517"/>
      <point x="74" y="354"/>
    </contour>
  </outline>
</glyph>
<glyph name="laa.eth" format="2">
  <advance width="509"/>
  <unicode hex="120B"/>
  <note>
uni120B
</note>
  <anchor x="261" y="714" name="top"/>
  <outline>
    <contour>
      <point x="449" y="0" type="line"/>
      <point x="478" y="0" type="line"/>
      <point x="265" y="714" type="line"/>
      <point x="236" y="714" type="line"/>
      <point x="281" y="562" type="line"/>
      <point x="134" y="524"/>
      <point x="77" y="420"/>
      <point x="44" y="192" type="curve"/>
      <point x="73" y="192" type="line"/>
      <point x="103" y="395"/>
      <point x="151" y="503"/>
      <point x="288" y="537" type="curve"/>
    </contour>
  </outline>
</glyph>
<glyph name="lee.eth" format="2">
  <advance width="726"/>
  <unicode hex="120C"/>
  <note>
uni120C
</note>
  <anchor x="375" y="714" name="top"/>
  <outline>
    <contour>
      <point x="44" y="0" type="curve"/>
      <point x="73" y="0" type="line"/>
      <point x="103" y="328"/>
      <point x="137" y="493"/>
      <point x="308" y="537" type="curve"/>
      <point x="469" y="0" type="line"/>
      <point x="498" y="0" type="line"/>
      <point x="493" y="16" type="line"/>
      <point x="285" y="714" type="line"/>
      <point x="256" y="714" type="line"/>
      <point x="302" y="561" type="line"/>
      <point x="119" y="517"/>
      <point x="74" y="354"/>
    </contour>
    <contour>
      <point x="484" y="25" type="line"/>
      <point x="432" y="205" type="line"/>
      <point x="572" y="205" type="line" smooth="yes"/>
      <point x="650" y="205"/>
      <point x="680" y="172"/>
      <point x="680" y="122" type="curve" smooth="yes"/>
      <point x="680" y="65"/>
      <point x="645" y="25"/>
      <point x="537" y="25" type="curve" smooth="yes"/>
    </contour>
    <contour>
      <point x="478" y="0" type="line"/>
      <point x="540" y="0" type="line" smooth="yes"/>
      <point x="661" y="0"/>
      <point x="706" y="54"/>
      <point x="706" y="124" type="curve" smooth="yes"/>
      <point x="706" y="187"/>
      <point x="667" y="230"/>
      <point x="576" y="230" type="curve" smooth="yes"/>
      <point x="406" y="230" type="line"/>
    </contour>
  </outline>
</glyph>
<glyph name="le.eth" format="2">
  <advance width="595"/>
  <unicode hex="120D"/>
  <note>
uni120D
</note>
  <anchor x="306" y="714" name="top"/>
  <outline>
    <contour>
      <point x="44" y="0" type="curve"/>
      <point x="213" y="0" type="line" smooth="yes"/>
      <point x="298" y="0"/>
      <point x="348" y="48"/>
      <point x="348" y="116" type="curve" smooth="yes"/>
      <point x="348" y="184"/>
      <point x="305" y="226"/>
      <point x="228" y="226" type="curve" smooth="yes"/>
      <point x="103" y="226" type="line"/>
      <point x="136" y="394"/>
      <point x="196" y="512"/>
      <point x="322" y="537" type="curve"/>
      <point x="540" y="0" type="line"/>
      <point x="569" y="0" type="line"/>
      <point x="280" y="714" type="line"/>
      <point x="251" y="714" type="line"/>
      <point x="313" y="562" type="line"/>
      <point x="140" y="516"/>
      <point x="78" y="352"/>
    </contour>
    <contour>
      <point x="74" y="25" type="line"/>
      <point x="77" y="68"/>
      <point x="89" y="153"/>
      <point x="98" y="201" type="curve"/>
      <point x="220" y="201" type="line" smooth="yes"/>
      <point x="290" y="201"/>
      <point x="322" y="170"/>
      <point x="322" y="115" type="curve" smooth="yes"/>
      <point x="322" y="60"/>
      <point x="286" y="25"/>
      <point x="209" y="25" type="curve" smooth="yes"/>
    </contour>
  </outline>
</glyph>
<glyph name="hha.eth" format="2">
  <advance width="748"/>
  <unicode hex="1210"/>
  <note>
uni1210
</note>
  <anchor x="374" y="714" name="top"/>
  <outline>
    <contour>
      <point x="85" y="0" type="line"/>
      <point x="111" y="0" type="line"/>
      <point x="111" y="146" type="line" smooth="yes"/>
      <point x="111" y="311"/>
      <point x="201" y="381"/>
      <point x="361" y="384" type="curve"/>
      <point x="361" y="0" type="line"/>
      <point x="387" y="0" type="line"/>
      <point x="387" y="384" type="line"/>
      <point x="544" y="381"/>
      <point x="637" y="310"/>
      <point x="637" y="146" type="curve" smooth="yes"/>
      <point x="637" y="0" type="line"/>
      <point x="663" y="0" type="line"/>
      <point x="663" y="152" type="line" smooth="yes"/>
      <point x="663" y="323"/>
      <point x="562" y="406"/>
      <point x="387" y="409" type="curve"/>
      <point x="387" y="714" type="line"/>
      <point x="361" y="714" type="line"/>
      <point x="361" y="409" type="line"/>
      <point x="190" y="406"/>
      <point x="85" y="327"/>
      <point x="85" y="152" type="curve" smooth="yes"/>
    </contour>
  </outline>
</glyph>
<glyph name="hhaa.eth" format="2">
  <advance width="748"/>
  <unicode hex="1213"/>
  <note>
uni1213
</note>
  <anchor x="374" y="714" name="top"/>
  <outline>
    <contour>
      <point x="637" y="0" type="line"/>
      <point x="663" y="0" type="line"/>
      <point x="663" y="168" type="line" smooth="yes"/>
      <point x="663" y="339"/>
      <point x="562" y="422"/>
      <point x="387" y="425" type="curve"/>
      <point x="387" y="714" type="line"/>
      <point x="361" y="714" type="line"/>
      <point x="361" y="425" type="line"/>
      <point x="190" y="422"/>
      <point x="85" y="343"/>
      <point x="85" y="168" type="curve" smooth="yes"/>
      <point x="85" y="155" type="line"/>
      <point x="111" y="155" type="line"/>
      <point x="111" y="162" type="line" smooth="yes"/>
      <point x="111" y="327"/>
      <point x="201" y="397"/>
      <point x="361" y="400" type="curve"/>
      <point x="361" y="155" type="line"/>
      <point x="387" y="155" type="line"/>
      <point x="387" y="400" type="line"/>
      <point x="544" y="397"/>
      <point x="637" y="326"/>
      <point x="637" y="162" type="curve" smooth="yes"/>
    </contour>
  </outline>
</glyph>
<glyph name="hhee.eth" format="2">
  <advance width="939"/>
  <unicode hex="1214"/>
  <note>
uni1214
</note>
  <anchor x="502" y="714" name="top"/>
  <outline>
    <contour>
      <point x="641" y="0" type="line"/>
      <point x="753" y="0" type="line" smooth="yes"/>
      <point x="874" y="0"/>
      <point x="919" y="49"/>
      <point x="919" y="124" type="curve" smooth="yes"/>
      <point x="919" y="187"/>
      <point x="880" y="230"/>
      <point x="789" y="230" type="curve" smooth="yes"/>
      <point x="641" y="230" type="line"/>
    </contour>
    <contour>
      <point x="663" y="25" type="line"/>
      <point x="656" y="205" type="line"/>
      <point x="785" y="205" type="line" smooth="yes"/>
      <point x="863" y="205"/>
      <point x="893" y="172"/>
      <point x="893" y="122" type="curve" smooth="yes"/>
      <point x="893" y="65"/>
      <point x="858" y="25"/>
      <point x="750" y="25" type="curve" smooth="yes"/>
    </contour>
    <component base="hha.eth"/>
  </outline>
</glyph>
<glyph name="ma.eth" format="2">
  <advance width="899"/>
  <unicode hex="1218"/>
  <note>
uni1218
</note>
  <anchor x="449" y="714" name="top"/>
  <outline>
    <contour>
      <point x="241" y="-10" type="curve" smooth="yes"/>
      <point x="314" y="-10"/>
      <point x="361" y="23"/>
      <point x="402" y="109" type="curve"/>
      <point x="402" y="689" type="line"/>
      <point x="535" y="689" type="line"/>
      <point x="535" y="73" type="line"/>
      <point x="602" y="73" type="line" smooth="yes"/>
      <point x="753" y="73"/>
      <point x="819" y="176"/>
      <point x="819" y="398" type="curve" smooth="yes"/>
      <point x="819" y="614"/>
      <point x="763" y="714"/>
      <point x="617" y="714" type="curve" smooth="yes"/>
      <point x="350" y="714" type="line" smooth="yes"/>
      <point x="205" y="714"/>
      <point x="80" y="613"/>
      <point x="80" y="288" type="curve" smooth="yes"/>
      <point x="80" y="71"/>
      <point x="146" y="-10"/>
    </contour>
    <contour>
      <point x="246" y="15" type="curve" smooth="yes"/>
      <point x="166" y="15"/>
      <point x="106" y="88"/>
      <point x="106" y="289" type="curve" smooth="yes"/>
      <point x="106" y="597"/>
      <point x="223" y="689"/>
      <point x="353" y="689" type="curve" smooth="yes"/>
      <point x="376" y="689" type="line"/>
      <point x="376" y="112" type="line"/>
      <point x="347" y="49"/>
      <point x="307" y="15"/>
    </contour>
    <contour>
      <point x="561" y="98" type="line"/>
      <point x="561" y="689" type="line"/>
      <point x="612" y="689" type="line" smooth="yes"/>
      <point x="746" y="689"/>
      <point x="793" y="589"/>
      <point x="793" y="398" type="curve" smooth="yes"/>
      <point x="793" y="198"/>
      <point x="740" y="98"/>
      <point x="598" y="98" type="curve" smooth="yes"/>
    </contour>
  </outline>
</glyph>
<glyph name="mi.eth" format="2">
  <advance width="958"/>
  <unicode hex="121A"/>
  <note>
uni121A
</note>
  <anchor x="493" y="714" name="top"/>
  <outline>
    <contour>
      <point x="628" y="0" type="line"/>
      <point x="647" y="0" type="line"/>
      <point x="809" y="400" type="line" smooth="yes"/>
      <point x="842" y="482"/>
      <point x="863" y="536"/>
      <point x="863" y="591" type="curve" smooth="yes"/>
      <point x="863" y="676"/>
      <point x="806" y="714"/>
      <point x="706" y="714" type="curve" smooth="yes"/>
      <point x="291" y="714" type="line" smooth="yes"/>
      <point x="143" y="714"/>
      <point x="48" y="632"/>
      <point x="48" y="486" type="curve" smooth="yes"/>
      <point x="48" y="365"/>
      <point x="107" y="298"/>
      <point x="210" y="298" type="curve" smooth="yes"/>
      <point x="282" y="298"/>
      <point x="335" y="328"/>
      <point x="380" y="372" type="curve"/>
      <point x="380" y="689" type="line"/>
      <point x="574" y="689" type="line"/>
      <point x="560" y="634"/>
      <point x="548" y="580"/>
      <point x="548" y="516" type="curve" smooth="yes"/>
      <point x="548" y="431"/>
      <point x="589" y="383"/>
      <point x="684" y="383" type="curve" smooth="yes"/>
      <point x="774" y="383" type="line"/>
      <point x="628" y="23" type="line"/>
    </contour>
    <contour>
      <point x="643" y="0" type="line"/>
      <point x="739" y="0" type="line"/>
      <point x="739" y="25" type="line"/>
      <point x="643" y="25" type="line"/>
    </contour>
    <contour>
      <point x="214" y="323" type="curve" smooth="yes"/>
      <point x="129" y="323"/>
      <point x="74" y="376"/>
      <point x="74" y="486" type="curve" smooth="yes"/>
      <point x="74" y="615"/>
      <point x="150" y="689"/>
      <point x="292" y="689" type="curve" smooth="yes"/>
      <point x="354" y="689" type="line"/>
      <point x="354" y="382" type="line"/>
      <point x="319" y="347"/>
      <point x="274" y="323"/>
    </contour>
    <contour>
      <point x="693" y="408" type="line" smooth="yes"/>
      <point x="622" y="408"/>
      <point x="574" y="431"/>
      <point x="574" y="519" type="curve" smooth="yes"/>
      <point x="574" y="581"/>
      <point x="585" y="633"/>
      <point x="600" y="689" type="curve"/>
      <point x="702" y="689" type="line" smooth="yes"/>
      <point x="785" y="689"/>
      <point x="837" y="661"/>
      <point x="837" y="588" type="curve" smooth="yes"/>
      <point x="837" y="541"/>
      <point x="816" y="489"/>
      <point x="794" y="435" type="curve" smooth="yes"/>
      <point x="783" y="408" type="line"/>
    </contour>
    <component base="rightdoubleflag" xOffset="675"/>
  </outline>
</glyph>
<glyph name="mo.eth" format="2">
  <advance width="905"/>
  <unicode hex="121E"/>
  <note>
uni121E
</note>
  <anchor x="452" y="714" name="top"/>
  <outline>
    <contour>
      <point x="212" y="303" type="curve" smooth="yes"/>
      <point x="288" y="303"/>
      <point x="344" y="336"/>
      <point x="382" y="395" type="curve"/>
      <point x="382" y="689" type="line"/>
      <point x="567" y="689" type="line"/>
      <point x="567" y="394" type="line"/>
      <point x="654" y="394" type="line" smooth="yes"/>
      <point x="805" y="394"/>
      <point x="857" y="467"/>
      <point x="857" y="558" type="curve" smooth="yes"/>
      <point x="857" y="654"/>
      <point x="812" y="714"/>
      <point x="670" y="714" type="curve" smooth="yes"/>
      <point x="316" y="714" type="line" smooth="yes"/>
      <point x="145" y="714"/>
      <point x="48" y="633"/>
      <point x="48" y="483" type="curve" smooth="yes"/>
      <point x="48" y="368"/>
      <point x="116" y="303"/>
    </contour>
    <contour>
      <point x="356" y="0" type="line"/>
      <point x="382" y="0" type="line"/>
      <point x="382" y="395" type="line"/>
      <point x="356" y="395" type="line"/>
    </contour>
    <contour>
      <point x="215" y="328" type="curve" smooth="yes"/>
      <point x="130" y="328"/>
      <point x="74" y="383"/>
      <point x="74" y="484" type="curve" smooth="yes"/>
      <point x="74" y="617"/>
      <point x="160" y="689"/>
      <point x="319" y="689" type="curve" smooth="yes"/>
      <point x="356" y="689" type="line"/>
      <point x="356" y="402" type="line"/>
      <point x="330" y="362"/>
      <point x="283" y="328"/>
    </contour>
    <contour>
      <point x="593" y="419" type="line"/>
      <point x="593" y="689" type="line"/>
      <point x="665" y="689" type="line" smooth="yes"/>
      <point x="794" y="689"/>
      <point x="831" y="639"/>
      <point x="831" y="558" type="curve" smooth="yes"/>
      <point x="831" y="481"/>
      <point x="792" y="419"/>
      <point x="651" y="419" type="curve" smooth="yes"/>
    </contour>
  </outline>
</glyph>
<glyph name="sza.eth" format="2">
  <advance width="819"/>
  <unicode hex="1220"/>
  <note>
uni1220
</note>
  <anchor x="409" y="714" name="top"/>
  <outline>
    <contour>
      <point x="255" y="-10" type="curve" smooth="yes"/>
      <point x="353" y="-10"/>
      <point x="417" y="61"/>
      <point x="419" y="185" type="curve"/>
      <point x="440" y="131"/>
      <point x="481" y="98"/>
      <point x="557" y="98" type="curve" smooth="yes"/>
      <point x="662" y="98"/>
      <point x="724" y="174"/>
      <point x="724" y="315" type="curve" smooth="yes"/>
      <point x="724" y="714" type="line"/>
      <point x="698" y="714" type="line"/>
      <point x="698" y="319" type="line" smooth="yes"/>
      <point x="698" y="187"/>
      <point x="653" y="123"/>
      <point x="559" y="123" type="curve" smooth="yes"/>
      <point x="464" y="123"/>
      <point x="422" y="189"/>
      <point x="422" y="291" type="curve" smooth="yes"/>
      <point x="422" y="714" type="line"/>
      <point x="396" y="714" type="line"/>
      <point x="396" y="204" type="line" smooth="yes"/>
      <point x="396" y="73"/>
      <point x="338" y="15"/>
      <point x="257" y="15" type="curve" smooth="yes"/>
      <point x="174" y="15"/>
      <point x="121" y="66"/>
      <point x="121" y="202" type="curve" smooth="yes"/>
      <point x="121" y="714" type="line"/>
      <point x="95" y="714" type="line"/>
      <point x="95" y="196" type="line" smooth="yes"/>
      <point x="95" y="53"/>
      <point x="154" y="-10"/>
    </contour>
  </outline>
</glyph>
<glyph name="szi.eth" format="2">
	<advance width="817"/>
	<unicode hex="1222"/>
	<anchor x="439" y="714" name="top"/>
	<note>
		uni1222
	</note>
	<outline>
		<contour>
			<point x="482" y="0" type="line"/>
			<point x="501" y="0" type="line"/>
			<point x="703" y="499" type="line"/>
			<point x="661" y="464" type="line"/>
			<point x="482" y="23" type="line"/>
		</contour>
		<contour>
			<point x="491" y="0" type="line"/>
			<point x="594" y="0" type="line"/>
			<point x="594" y="25" type="line"/>
			<point x="491" y="25" type="line"/>
		</contour>
		<component base="shorttoploops"/>
		<component base="rightdoubleflag" xOffset="520"/>
	</outline>
</glyph>
<glyph name="szaa.eth" format="2">
  <advance width="819"/>
  <unicode hex="1223"/>
  <note>
uni1223
</note>
  <anchor x="409" y="714" name="top"/>
  <outline>
    <contour>
      <point x="475" y="0" type="line"/>
      <point x="503" y="0" type="line"/>
      <point x="704" y="499" type="line"/>
      <point x="669" y="481" type="line"/>
    </contour>
    <component base="shorttoploops"/>
  </outline>
</glyph>
<glyph name="szee.eth" format="2">
  <advance width="824"/>
  <unicode hex="1224"/>
  <note>
uni1224
</note>
  <anchor x="449" y="714" name="top"/>
  <outline>
    <contour>
      <point x="484" y="0" type="line"/>
      <point x="503" y="0" type="line"/>
      <point x="707" y="507" type="line"/>
      <point x="660" y="459" type="line"/>
      <point x="484" y="23" type="line"/>
    </contour>
    <contour>
      <point x="502" y="25" type="line"/>
      <point x="578" y="205" type="line"/>
      <point x="670" y="205" type="line" smooth="yes"/>
      <point x="748" y="205"/>
      <point x="778" y="172"/>
      <point x="778" y="122" type="curve" smooth="yes"/>
      <point x="778" y="65"/>
      <point x="743" y="25"/>
      <point x="635" y="25" type="curve" smooth="yes"/>
    </contour>
    <contour>
      <point x="486" y="0" type="line"/>
      <point x="638" y="0" type="line" smooth="yes"/>
      <point x="759" y="0"/>
      <point x="804" y="54"/>
      <point x="804" y="124" type="curve" smooth="yes"/>
      <point x="804" y="187"/>
      <point x="765" y="230"/>
      <point x="674" y="230" type="curve" smooth="yes"/>
      <point x="571" y="230" type="line"/>
    </contour>
    <component base="shorttoploops"/>
  </outline>
</glyph>
<glyph name="sze.eth" format="2">
	<advance width="928"/>
	<unicode hex="1225"/>
	<anchor x="441" y="714" name="top"/>
	<note>
		uni1225
	</note>
	<outline>
		<contour>
			<point x="50" y="0" type="line"/>
			<point x="78" y="0" type="line"/>
			<point x="239" y="399" type="line"/>
			<point x="228" y="441" type="line"/>
		</contour>
		<component base="shorttoploops" xOffset="109"/>
	</outline>
</glyph>
<glyph name="szo.eth" format="2">
  <advance width="819"/>
  <unicode hex="1226"/>
  <note>
uni1226
</note>
  <anchor x="409" y="714" name="top"/>
  <outline>
    <contour>
      <point x="215" y="0" type="line"/>
      <point x="243" y="0" type="line"/>
      <point x="438" y="477" type="line"/>
      <point x="425" y="506" type="line"/>
    </contour>
    <component base="shorttoploops"/>
  </outline>
</glyph>
<glyph name="ru.eth" format="2">
  <advance width="619"/>
  <unicode hex="1229"/>
  <note>
uni1229
</note>
  <anchor x="333" y="714" name="top"/>
  <outline>
    <contour>
      <point x="355" y="0" type="line"/>
      <point x="382" y="0" type="line"/>
      <point x="382" y="203" type="line"/>
      <point x="535" y="203" type="line"/>
      <point x="515" y="228" type="line"/>
      <point x="256" y="228" type="line" smooth="yes"/>
      <point x="146" y="228"/>
      <point x="93" y="266"/>
      <point x="93" y="342" type="curve" smooth="yes"/>
      <point x="93" y="419"/>
      <point x="136" y="455"/>
      <point x="253" y="509" type="curve" smooth="yes"/>
      <point x="359" y="558"/>
      <point x="419" y="611"/>
      <point x="423" y="714" type="curve"/>
      <point x="397" y="714" type="line"/>
      <point x="393" y="618"/>
      <point x="338" y="576"/>
      <point x="240" y="530" type="curve" smooth="yes"/>
      <point x="117" y="472"/>
      <point x="67" y="429"/>
      <point x="67" y="341" type="curve" smooth="yes"/>
      <point x="67" y="250"/>
      <point x="129" y="203"/>
      <point x="252" y="203" type="curve" smooth="yes"/>
      <point x="355" y="203" type="line"/>
    </contour>
    <component base="rightsingleflag" xOffset="336" yOffset="-160"/>
  </outline>
</glyph>
<glyph name="ri.eth" format="2">
  <advance width="569"/>
  <unicode hex="122A"/>
  <note>
uni122A
</note>
  <anchor x="284" y="714" name="top"/>
  <outline>
    <contour>
      <point x="276" y="0" type="line"/>
      <point x="435" y="0"/>
      <point x="502" y="87"/>
      <point x="502" y="221" type="curve" smooth="yes"/>
      <point x="502" y="232" type="line"/>
      <point x="474" y="232" type="line"/>
      <point x="474" y="220" type="line" smooth="yes"/>
      <point x="474" y="91"/>
      <point x="412" y="25"/>
      <point x="276" y="25" type="curve"/>
    </contour>
    <component base="nose"/>
  </outline>
</glyph>
<glyph name="raa.eth" format="2">
  <advance width="652"/>
  <unicode hex="122B"/>
  <note>
uni122B
</note>
  <anchor x="349" y="714" name="top"/>
  <outline>
    <contour>
      <point x="276" y="0" type="line"/>
      <point x="352" y="0" type="line"/>
      <point x="358" y="213"/>
      <point x="429" y="261"/>
      <point x="569" y="261" type="curve"/>
      <point x="577" y="226"/>
      <point x="594" y="188"/>
      <point x="623" y="188" type="curve" smooth="yes"/>
      <point x="632" y="188" type="line"/>
      <point x="607" y="286" type="line"/>
      <point x="561" y="286" type="line" smooth="yes"/>
      <point x="411" y="286"/>
      <point x="335" y="216"/>
      <point x="326" y="25" type="curve"/>
      <point x="276" y="25" type="line"/>
    </contour>
    <component base="nose"/>
  </outline>
</glyph>
<glyph name="ree.eth" format="2">
  <advance width="577"/>
  <unicode hex="122C"/>
  <note>
uni122C
</note>
  <anchor x="312" y="714" name="top"/>
  <outline>
    <contour>
      <point x="276" y="0" type="line"/>
      <point x="436" y="0" type="line"/>
      <point x="436" y="7" type="line"/>
      <point x="370" y="25" type="line"/>
      <point x="276" y="25" type="line"/>
    </contour>
    <component base="nose"/>
    <component base="ballbig" xOffset="255" yOffset="-177"/>
  </outline>
</glyph>
<glyph name="re.eth" format="2">
  <advance width="501"/>
  <unicode hex="122D"/>
  <note>
uni122D
</note>
  <anchor x="280" y="714" name="top"/>
  <outline>
    <contour>
      <point x="472" y="-73" type="curve" smooth="yes"/>
      <point x="480" y="-73" type="line"/>
      <point x="458" y="14" type="line"/>
      <point x="479" y="98" type="line"/>
      <point x="471" y="98" type="line" smooth="yes"/>
      <point x="444" y="98"/>
      <point x="427" y="68"/>
      <point x="417" y="25" type="curve"/>
      <point x="315" y="25" type="line" smooth="yes"/>
      <point x="165" y="25"/>
      <point x="106" y="82"/>
      <point x="106" y="221" type="curve" smooth="yes"/>
      <point x="106" y="312" type="line" smooth="yes"/>
      <point x="106" y="597"/>
      <point x="205" y="689"/>
      <point x="378" y="689" type="curve" smooth="yes"/>
      <point x="418" y="689" type="line"/>
      <point x="428" y="643"/>
      <point x="448" y="616"/>
      <point x="472" y="616" type="curve" smooth="yes"/>
      <point x="481" y="616" type="line"/>
      <point x="456" y="714" type="line"/>
      <point x="391" y="714" type="line" smooth="yes"/>
      <point x="176" y="714"/>
      <point x="80" y="605"/>
      <point x="80" y="316" type="curve" smooth="yes"/>
      <point x="80" y="217" type="line" smooth="yes"/>
      <point x="80" y="62"/>
      <point x="152" y="0"/>
      <point x="310" y="0" type="curve" smooth="yes"/>
      <point x="417" y="0" type="line"/>
      <point x="427" y="-44"/>
      <point x="444" y="-73"/>
    </contour>
  </outline>
</glyph>
<glyph name="ro.eth" format="2">
  <advance width="571"/>
  <unicode hex="122E"/>
  <note>
uni122E
</note>
  <anchor x="315" y="714" name="top"/>
  <outline>
    <contour>
      <point x="472" y="-73" type="curve" smooth="yes"/>
      <point x="480" y="-73" type="line"/>
      <point x="458" y="14" type="line"/>
      <point x="479" y="98" type="line"/>
      <point x="471" y="98" type="line" smooth="yes"/>
      <point x="444" y="98"/>
      <point x="427" y="68"/>
      <point x="417" y="25" type="curve"/>
      <point x="315" y="25" type="line" smooth="yes"/>
      <point x="165" y="25"/>
      <point x="106" y="82"/>
      <point x="106" y="221" type="curve" smooth="yes"/>
      <point x="106" y="312" type="line" smooth="yes"/>
      <point x="106" y="597"/>
      <point x="205" y="689"/>
      <point x="378" y="689" type="curve"/>
      <point x="421" y="714" type="line"/>
      <point x="391" y="714" type="line" smooth="yes"/>
      <point x="176" y="714"/>
      <point x="80" y="605"/>
      <point x="80" y="316" type="curve" smooth="yes"/>
      <point x="80" y="217" type="line" smooth="yes"/>
      <point x="80" y="62"/>
      <point x="152" y="0"/>
      <point x="310" y="0" type="curve" smooth="yes"/>
      <point x="417" y="0" type="line"/>
      <point x="427" y="-44"/>
      <point x="444" y="-73"/>
    </contour>
    <component base="ballbig" xOffset="249" yOffset="291"/>
  </outline>
</glyph>
<glyph name="sa.eth" format="2">
	<advance width="594"/>
	<unicode hex="1230"/>
	<anchor x="297" y="760" name="top"/>
	<note>
		uni1230
	</note>
	<outline>
		<contour>
			<point x="284" y="590" type="line"/>
			<point x="310" y="590" type="line"/>
			<point x="310" y="760" type="line"/>
			<point x="284" y="760" type="line"/>
		</contour>
		<component base="shortnarch"/>
	</outline>
</glyph>
<glyph name="saa.eth" format="2">
	<advance width="594"/>
	<unicode hex="1233"/>
	<anchor x="297" y="760" name="top"/>
	<note>
		uni1233
	</note>
	<outline>
		<contour>
			<point x="281" y="590" type="line"/>
			<point x="307" y="590" type="line"/>
			<point x="307" y="760" type="line"/>
			<point x="281" y="760" type="line"/>
		</contour>
		<component base="baashort" xOffset="13"/>
	</outline>
</glyph>
<glyph name="se.eth" format="2">
  <advance width="594"/>
  <unicode hex="1235"/>
  <note>
uni1235
</note>
  <anchor x="297" y="760" name="top"/>
  <outline>
    <contour>
      <point x="279" y="590" type="line"/>
      <point x="307" y="590" type="line"/>
      <point x="226" y="760" type="line"/>
      <point x="198" y="760" type="line"/>
    </contour>
    <component base="shortnarch"/>
  </outline>
</glyph>
<glyph name="qe.eth" format="2">
	<advance width="603"/>
	<unicode hex="1245"/>
	<anchor x="301" y="846" name="top"/>
	<note>
		uni1245
	</note>
	<outline>
		<contour>
			<point x="289" y="705" type="line"/>
			<point x="315" y="705" type="line"/>
			<point x="315" y="773" type="line"/>
			<point x="289" y="773" type="line"/>
		</contour>
		<component base="qa.eth"/>
		<component base="leftsingleflag" yScale="-1" xOffset="66" yOffset="1136"/>
	</outline>
</glyph>
<glyph name="qwi.eth" format="2">
  <advance width="902"/>
  <unicode hex="124A"/>
  <note>
uni124A
</note>
  <anchor x="466" y="714" name="top"/>
  <outline>
    <contour>
      <point x="873" y="233" type="curve" smooth="yes"/>
      <point x="882" y="233" type="line"/>
      <point x="857" y="331" type="line"/>
      <point x="713" y="331" type="line"/>
      <point x="713" y="306" type="line"/>
      <point x="819" y="306" type="line"/>
      <point x="829" y="260"/>
      <point x="849" y="233"/>
    </contour>
    <contour>
      <point x="536" y="393" type="line"/>
      <point x="715" y="393" type="line"/>
      <point x="715" y="418" type="line"/>
      <point x="536" y="418" type="line"/>
    </contour>
    <contour>
      <point x="704" y="306" type="line"/>
      <point x="730" y="306" type="line"/>
      <point x="730" y="505" type="line"/>
      <point x="704" y="505" type="line"/>
    </contour>
    <component base="qa.eth"/>
  </outline>
</glyph>
<glyph name="qwaa.eth" format="2">
	<advance width="612"/>
	<unicode hex="124B"/>
	<anchor x="306" y="713" name="top"/>
	<note>
		uni124B
	</note>
	<outline>
		<contour>
			<point x="176" y="130" type="line"/>
			<point x="555" y="130" type="line"/>
			<point x="555" y="155" type="line"/>
			<point x="176" y="155" type="line"/>
		</contour>
		<contour>
			<point x="530" y="0" type="line"/>
			<point x="556" y="0" type="line"/>
			<point x="556" y="155" type="line"/>
			<point x="530" y="155" type="line"/>
		</contour>
		<component base="midring" xOffset="9" yOffset="46"/>
		<component base="leftsingleflag" xOffset="30" yOffset="-233"/>
		<component base="stem1" yScale="0.785" xOffset="218" yOffset="153"/>
	</outline>
</glyph>
<glyph name="qwe.eth" format="2">
  <advance width="885"/>
  <unicode hex="124D"/>
  <note>
uni124D
</note>
  <anchor x="457" y="714" name="top"/>
  <outline>
    <contour>
      <point x="677" y="393" type="line"/>
      <point x="703" y="393" type="line"/>
      <point x="703" y="572" type="line"/>
      <point x="677" y="572" type="line"/>
    </contour>
    <contour>
      <point x="536" y="393" type="line"/>
      <point x="699" y="393" type="line"/>
      <point x="699" y="418" type="line"/>
      <point x="536" y="418" type="line"/>
    </contour>
    <component base="rightsingleflag" xOffset="602" yOffset="30"/>
    <component base="qa.eth"/>
  </outline>
</glyph>
<glyph name="qha.eth" format="2">
	<advance width="604"/>
	<unicode hex="1250"/>
	<anchor x="302" y="846" name="top"/>
	<note>
		uni1250
	</note>
	<outline>
		<contour>
			<point x="290" y="696" type="line"/>
			<point x="316" y="696" type="line"/>
			<point x="316" y="766" type="line"/>
			<point x="290" y="766" type="line"/>
		</contour>
		<component base="qa.eth" xOffset="1"/>
		<component base="bonemiddle" xOffset="30"/>
	</outline>
</glyph>
<glyph name="qhu.eth" format="2">
  <advance width="612"/>
  <unicode hex="1251"/>
  <note>
uni1251
</note>
  <anchor x="306" y="846" name="top"/>
  <outline>
    <contour>
      <point x="298" y="696" type="line"/>
      <point x="324" y="696" type="line"/>
      <point x="324" y="766" type="line"/>
      <point x="298" y="766" type="line"/>
    </contour>
    <component base="qu.eth" xOffset="9"/>
    <component base="bonemiddle" xOffset="30"/>
  </outline>
</glyph>
<glyph name="qhaa.eth" format="2">
  <advance width="631"/>
  <unicode hex="1253"/>
  <note>
uni1253
</note>
  <anchor x="315" y="846" name="top"/>
  <outline>
    <contour>
      <point x="318" y="700" type="line"/>
      <point x="344" y="700" type="line"/>
      <point x="344" y="770" type="line"/>
      <point x="318" y="770" type="line"/>
    </contour>
    <component base="qaa.eth" xOffset="30"/>
    <component base="bonemiddle" xOffset="57"/>
  </outline>
</glyph>
<glyph name="qhee.eth" format="2">
  <advance width="607"/>
  <unicode hex="1254"/>
  <note>
uni1254
</note>
  <anchor x="303" y="843" name="top"/>
  <outline>
    <contour>
      <point x="293" y="696" type="line"/>
      <point x="319" y="696" type="line"/>
      <point x="319" y="766" type="line"/>
      <point x="293" y="766" type="line"/>
    </contour>
    <component base="qee.eth" xOffset="4"/>
    <component base="bonemiddle" xOffset="30" yOffset="-3"/>
  </outline>
</glyph>
<glyph name="qhe.eth" format="2">
  <advance width="721"/>
  <unicode hex="1255"/>
  <note>
uni1255
</note>
  <anchor x="345" y="846" name="top"/>
  <outline>
    <contour>
      <point x="407" y="0" type="line"/>
      <point x="433" y="0" type="line"/>
      <point x="433" y="581" type="line"/>
      <point x="408" y="581" type="line" smooth="yes"/>
      <point x="295" y="581"/>
      <point x="251" y="622"/>
      <point x="251" y="737" type="curve" smooth="yes"/>
      <point x="251" y="764" type="line"/>
      <point x="225" y="764" type="line"/>
      <point x="225" y="735" type="line" smooth="yes"/>
      <point x="225" y="610"/>
      <point x="275" y="556"/>
      <point x="407" y="556" type="curve"/>
    </contour>
    <component base="midringshort" xOffset="118" yOffset="-104"/>
    <component base="bone"/>
  </outline>
</glyph>
<glyph name="qhwa.eth" format="2">
  <advance width="671"/>
  <unicode hex="1258"/>
  <note>
uni1258
</note>
  <anchor x="350" y="846" name="top"/>
  <outline>
    <contour>
      <point x="304" y="696" type="line"/>
      <point x="330" y="696" type="line"/>
      <point x="330" y="766" type="line"/>
      <point x="304" y="766" type="line"/>
    </contour>
    <component base="stem1" xOffset="224"/>
    <component base="rightbulbsmall" xOffset="322" yOffset="-187"/>
    <component base="midringshort" xOffset="13" yOffset="55"/>
    <component base="bonemiddle" xOffset="30"/>
  </outline>
</glyph>
<glyph name="qhwi.eth" format="2">
  <advance width="905"/>
  <unicode hex="125A"/>
  <note>
uni125A
</note>
  <anchor x="467" y="846" name="top"/>
  <outline>
    <contour>
      <point x="876" y="233" type="curve" smooth="yes"/>
      <point x="885" y="233" type="line"/>
      <point x="860" y="331" type="line"/>
      <point x="716" y="331" type="line"/>
      <point x="716" y="306" type="line"/>
      <point x="822" y="306" type="line"/>
      <point x="832" y="260"/>
      <point x="852" y="233"/>
    </contour>
    <contour>
      <point x="539" y="393" type="line"/>
      <point x="718" y="393" type="line"/>
      <point x="718" y="418" type="line"/>
      <point x="539" y="418" type="line"/>
    </contour>
    <contour>
      <point x="707" y="306" type="line"/>
      <point x="733" y="306" type="line"/>
      <point x="733" y="505" type="line"/>
      <point x="707" y="505" type="line"/>
    </contour>
    <component base="qha.eth"/>
  </outline>
</glyph>
<glyph name="qhwaa.eth" format="2">
	<advance width="630"/>
	<unicode hex="125B"/>
	<anchor x="315" y="846" name="top"/>
	<note>
		uni125B
	</note>
	<outline>
		<contour>
			<point x="178" y="130" type="line"/>
			<point x="547" y="130" type="line"/>
			<point x="547" y="155" type="line"/>
			<point x="178" y="155" type="line"/>
		</contour>
		<contour>
			<point x="522" y="0" type="line"/>
			<point x="548" y="0" type="line"/>
			<point x="548" y="155" type="line"/>
			<point x="522" y="155" type="line"/>
		</contour>
		<component base="midringshort" xOffset="27" yOffset="44"/>
		<component base="bonemiddle" xOffset="51"/>
		<component base="stem1" yScale="0.882" xOffset="237" yOffset="132"/>
		<component base="leftsingleflag" xOffset="30" yOffset="-233"/>
	</outline>
</glyph>
<glyph name="qhwe.eth" format="2">
  <advance width="913"/>
  <unicode hex="125D"/>
  <note>
uni125D
</note>
  <anchor x="471" y="846" name="top"/>
  <outline>
    <contour>
      <point x="695" y="393" type="line"/>
      <point x="721" y="393" type="line"/>
      <point x="721" y="572" type="line"/>
      <point x="695" y="572" type="line"/>
    </contour>
    <contour>
      <point x="538" y="393" type="line"/>
      <point x="717" y="393" type="line"/>
      <point x="717" y="418" type="line"/>
      <point x="538" y="418" type="line"/>
    </contour>
    <component base="qha.eth"/>
    <component base="rightsingleflag" xOffset="630" yOffset="30"/>
  </outline>
</glyph>
<glyph name="baa.eth" format="2">
  <advance width="587"/>
  <unicode hex="1263"/>
  <note>
uni1263
</note>
  <anchor x="290" y="724" name="top"/>
  <outline>
    <contour>
      <point x="466" y="0" type="line"/>
      <point x="492" y="0" type="line"/>
      <point x="492" y="478" type="line" smooth="yes"/>
      <point x="492" y="641"/>
      <point x="427" y="724"/>
      <point x="290" y="724" type="curve" smooth="yes"/>
      <point x="159" y="724"/>
      <point x="88" y="643"/>
      <point x="88" y="481" type="curve" smooth="yes"/>
      <point x="88" y="240" type="line"/>
      <point x="114" y="240" type="line"/>
      <point x="114" y="473" type="line" smooth="yes"/>
      <point x="114" y="624"/>
      <point x="171" y="699"/>
      <point x="290" y="699" type="curve" smooth="yes"/>
      <point x="410" y="699"/>
      <point x="466" y="625"/>
      <point x="466" y="474" type="curve" smooth="yes"/>
    </contour>
  </outline>
</glyph>
<glyph name="te.eth" format="2">
  <advance width="534"/>
  <unicode hex="1275"/>
  <note>
uni1275
</note>
  <anchor x="267" y="805" name="top"/>
  <outline>
    <contour>
      <point x="260" y="0" type="line"/>
      <point x="286" y="0" type="line"/>
      <point x="286" y="612" type="line"/>
      <point x="261" y="612" type="line" smooth="yes"/>
      <point x="148" y="612"/>
      <point x="104" y="653"/>
      <point x="104" y="768" type="curve" smooth="yes"/>
      <point x="104" y="805" type="line"/>
      <point x="78" y="805" type="line"/>
      <point x="78" y="766" type="line" smooth="yes"/>
      <point x="78" y="641"/>
      <point x="128" y="587"/>
      <point x="260" y="587" type="curve"/>
    </contour>
    <component base="footmiddle" yOffset="430"/>
  </outline>
</glyph>
<glyph name="caa.eth" format="2">
  <advance width="567"/>
  <unicode hex="127B"/>
  <note>
uni127B
</note>
  <anchor x="283" y="846" name="top"/>
  <outline>
    <contour>
      <point x="288" y="691" type="line"/>
      <point x="314" y="691" type="line"/>
      <point x="314" y="769" type="line"/>
      <point x="288" y="769" type="line"/>
    </contour>
    <component base="jstem"/>
    <component base="footmiddle" xOffset="28" yOffset="462"/>
    <component base="bonemiddle" xOffset="23"/>
  </outline>
</glyph>
<glyph name="cee.eth" format="2">
  <advance width="557"/>
  <unicode hex="127C"/>
  <note>
uni127C
</note>
  <anchor x="278" y="846" name="top"/>
  <outline>
    <contour>
      <point x="259" y="696" type="line"/>
      <point x="285" y="696" type="line"/>
      <point x="285" y="766" type="line"/>
      <point x="259" y="766" type="line"/>
    </contour>
    <component base="stem1" xOffset="179"/>
    <component base="baselinebowl" xOffset="209"/>
    <component base="bonemiddle"/>
    <component base="footmiddle" xOffset="5" yOffset="487"/>
  </outline>
</glyph>
<glyph name="ce.eth" format="2">
  <advance width="679"/>
  <unicode hex="127D"/>
  <note>
uni127D
</note>
  <anchor x="339" y="846" name="top"/>
  <outline>
    <contour>
      <point x="405" y="0" type="line"/>
      <point x="431" y="0" type="line"/>
      <point x="431" y="580" type="line"/>
      <point x="406" y="580" type="line" smooth="yes"/>
      <point x="293" y="580"/>
      <point x="249" y="621"/>
      <point x="249" y="736" type="curve" smooth="yes"/>
      <point x="249" y="773" type="line"/>
      <point x="223" y="773" type="line"/>
      <point x="223" y="734" type="line" smooth="yes"/>
      <point x="223" y="609"/>
      <point x="273" y="555"/>
      <point x="405" y="555" type="curve"/>
    </contour>
    <contour>
      <point x="45" y="748" type="line"/>
      <point x="381" y="748" type="line"/>
      <point x="391" y="704"/>
      <point x="408" y="675"/>
      <point x="436" y="675" type="curve" smooth="yes"/>
      <point x="444" y="675" type="line"/>
      <point x="422" y="762" type="line"/>
      <point x="443" y="846" type="line"/>
      <point x="435" y="846" type="line" smooth="yes"/>
      <point x="408" y="846"/>
      <point x="391" y="816"/>
      <point x="381" y="773" type="curve"/>
      <point x="82" y="773" type="line"/>
      <point x="72" y="816"/>
      <point x="55" y="846"/>
      <point x="28" y="846" type="curve" smooth="yes"/>
      <point x="20" y="846" type="line"/>
    </contour>
    <component base="footmiddle" xOffset="145" yOffset="425"/>
  </outline>
</glyph>
<glyph name="co.eth" format="2">
	<advance width="545"/>
	<unicode hex="127E"/>
	<anchor x="272" y="846" name="top"/>
	<note>
		uni127E
	</note>
	<outline>
		<contour>
			<point x="221" y="748" type="line"/>
			<point x="329" y="748" type="line"/>
			<point x="329" y="773" type="line"/>
			<point x="221" y="773" type="line"/>
		</contour>
		<component base="to.eth" xOffset="4"/>
		<component base="leftdoubleflag" xOffset="7" yOffset="748"/>
		<component base="rightsingleflag" yScale="-1" xOffset="258" yOffset="1136"/>
	</outline>
</glyph>
<glyph name="xaa.eth" format="2">
  <advance width="556"/>
  <unicode hex="1283"/>
  <note>
uni1283
</note>
  <anchor x="228" y="714" name="top"/>
  <outline>
    <contour>
      <point x="20" y="-73" type="line"/>
      <point x="29" y="-73" type="line" smooth="yes"/>
      <point x="53" y="-73"/>
      <point x="73" y="-46"/>
      <point x="83" y="0" type="curve"/>
      <point x="209" y="0" type="line" smooth="yes"/>
      <point x="364" y="0"/>
      <point x="436" y="67"/>
      <point x="436" y="214" type="curve" smooth="yes"/>
      <point x="436" y="384" type="line"/>
      <point x="410" y="384" type="line"/>
      <point x="410" y="219" type="line" smooth="yes"/>
      <point x="410" y="80"/>
      <point x="352" y="25"/>
      <point x="207" y="25" type="curve" smooth="yes"/>
      <point x="45" y="25" type="line"/>
    </contour>
    <contour>
      <point x="410" y="308" type="line"/>
      <point x="436" y="308" type="line"/>
      <point x="436" y="521" type="line"/>
      <point x="411" y="521" type="line" smooth="yes"/>
      <point x="298" y="521"/>
      <point x="254" y="562"/>
      <point x="254" y="677" type="curve" smooth="yes"/>
      <point x="254" y="714" type="line"/>
      <point x="228" y="714" type="line"/>
      <point x="228" y="675" type="line" smooth="yes"/>
      <point x="228" y="550"/>
      <point x="278" y="496"/>
      <point x="410" y="496" type="curve"/>
    </contour>
    <component base="leftsingleflag" xOffset="14" yOffset="228"/>
  </outline>
</glyph>
<glyph name="xe.eth" format="2">
  <advance width="553"/>
  <unicode hex="1285"/>
  <note>
uni1285
</note>
  <anchor x="232" y="714" name="top"/>
  <outline>
    <contour>
      <point x="32" y="401" type="curve"/>
      <point x="59" y="401" type="line"/>
      <point x="61" y="551"/>
      <point x="139" y="620"/>
      <point x="240" y="631" type="curve"/>
      <point x="237" y="655" type="line"/>
      <point x="120" y="643"/>
      <point x="34" y="563"/>
    </contour>
    <component base="na.eth" xOffset="145"/>
  </outline>
</glyph>
<glyph name="xwi.eth" format="2">
  <advance width="769"/>
  <unicode hex="128A"/>
  <note>
uni128A
</note>
  <anchor x="384" y="714" name="top"/>
  <outline>
    <contour>
      <point x="740" y="135" type="curve" smooth="yes"/>
      <point x="749" y="135" type="line"/>
      <point x="724" y="233" type="line"/>
      <point x="580" y="233" type="line"/>
      <point x="580" y="208" type="line"/>
      <point x="686" y="208" type="line"/>
      <point x="696" y="162"/>
      <point x="716" y="135"/>
    </contour>
    <contour>
      <point x="403" y="295" type="line"/>
      <point x="582" y="295" type="line"/>
      <point x="582" y="320" type="line"/>
      <point x="403" y="320" type="line"/>
    </contour>
    <contour>
      <point x="571" y="208" type="line"/>
      <point x="597" y="208" type="line"/>
      <point x="597" y="407" type="line"/>
      <point x="571" y="407" type="line"/>
    </contour>
    <component base="xa.eth"/>
  </outline>
</glyph>
<glyph name="xwaa.eth" format="2">
  <advance width="566"/>
  <unicode hex="128B"/>
  <note>
uni128B
</note>
  <anchor x="283" y="714" name="top"/>
  <outline>
    <contour>
      <point x="397" y="142" type="line"/>
      <point x="423" y="142" type="line"/>
      <point x="423" y="521" type="line"/>
      <point x="398" y="521" type="line" smooth="yes"/>
      <point x="285" y="521"/>
      <point x="241" y="562"/>
      <point x="241" y="677" type="curve" smooth="yes"/>
      <point x="241" y="714" type="line"/>
      <point x="215" y="714" type="line"/>
      <point x="215" y="675" type="line" smooth="yes"/>
      <point x="215" y="550"/>
      <point x="265" y="496"/>
      <point x="397" y="496" type="curve"/>
    </contour>
    <contour>
      <point x="191" y="130" type="line"/>
      <point x="546" y="130" type="line"/>
      <point x="546" y="155" type="line"/>
      <point x="191" y="155" type="line"/>
    </contour>
    <contour>
      <point x="520" y="0" type="line"/>
      <point x="546" y="0" type="line"/>
      <point x="546" y="155" type="line"/>
      <point x="520" y="155" type="line"/>
    </contour>
    <component base="leftsingleflag" xOffset="75" yOffset="-233"/>
    <component base="leftsingleflag" yOffset="228"/>
  </outline>
</glyph>
<glyph name="xwe.eth" format="2">
  <advance width="747"/>
  <unicode hex="128D"/>
  <note>
uni128D
</note>
  <anchor x="373" y="714" name="top"/>
  <outline>
    <contour>
      <point x="408" y="283" type="line"/>
      <point x="561" y="283" type="line"/>
      <point x="561" y="308" type="line"/>
      <point x="408" y="308" type="line"/>
    </contour>
    <contour>
      <point x="539" y="283" type="line"/>
      <point x="565" y="283" type="line"/>
      <point x="565" y="425" type="line"/>
      <point x="539" y="425" type="line"/>
    </contour>
    <component base="xa.eth"/>
    <component base="rightsingleflag" xOffset="464" yOffset="-80"/>
  </outline>
</glyph>
<glyph name="na.eth" format="2">
	<advance width="408"/>
	<unicode hex="1290"/>
	<anchor x="184" y="714" name="top"/>
	<note>
		uni1290
	</note>
	<outline>
		<contour>
			<point x="262" y="0" type="line"/>
			<point x="288" y="0" type="line"/>
			<point x="288" y="521" type="line"/>
			<point x="263" y="521" type="line" smooth="yes"/>
			<point x="150" y="521"/>
			<point x="106" y="562"/>
			<point x="106" y="677" type="curve" smooth="yes"/>
			<point x="106" y="714" type="line"/>
			<point x="80" y="714" type="line"/>
			<point x="80" y="675" type="line" smooth="yes"/>
			<point x="80" y="550"/>
			<point x="130" y="496"/>
			<point x="262" y="496" type="curve"/>
		</contour>
	</outline>
</glyph>
<glyph name="naa.eth" format="2">
  <advance width="501"/>
  <unicode hex="1293"/>
  <note>
uni1293
</note>
  <anchor x="280" y="714" name="top"/>
  <outline>
    <contour>
      <point x="80" y="284" type="line"/>
      <point x="106" y="289" type="line"/>
      <point x="106" y="312" type="line" smooth="yes"/>
      <point x="106" y="597"/>
      <point x="205" y="689"/>
      <point x="378" y="689" type="curve" smooth="yes"/>
      <point x="418" y="689" type="line"/>
      <point x="428" y="643"/>
      <point x="448" y="616"/>
      <point x="472" y="616" type="curve" smooth="yes"/>
      <point x="481" y="616" type="line"/>
      <point x="456" y="714" type="line"/>
      <point x="376" y="714" type="line" smooth="yes"/>
      <point x="189" y="714"/>
      <point x="80" y="605"/>
      <point x="80" y="316" type="curve" smooth="yes"/>
    </contour>
    <contour>
      <point x="280" y="0" type="line"/>
      <point x="306" y="0" type="line"/>
      <point x="306" y="309" type="line"/>
      <point x="95" y="309" type="line"/>
      <point x="80" y="284" type="line"/>
      <point x="280" y="284" type="line"/>
    </contour>
  </outline>
</glyph>
<glyph name="nee.eth" format="2">
  <advance width="422"/>
  <unicode hex="1294"/>
  <note>
uni1294
</note>
  <anchor x="238" y="714" name="top"/>
  <outline>
    <contour>
      <point x="81" y="0" type="line"/>
      <point x="102" y="0" type="line"/>
      <point x="313" y="521" type="line"/>
      <point x="277" y="521" type="line" smooth="yes"/>
      <point x="149" y="521"/>
      <point x="101" y="569"/>
      <point x="101" y="679" type="curve" smooth="yes"/>
      <point x="101" y="714" type="line"/>
      <point x="75" y="714" type="line"/>
      <point x="75" y="676" type="line" smooth="yes"/>
      <point x="75" y="555"/>
      <point x="135" y="496"/>
      <point x="276" y="496" type="curve"/>
      <point x="81" y="24" type="line"/>
    </contour>
    <contour>
      <point x="101" y="25" type="line"/>
      <point x="174" y="205" type="line"/>
      <point x="268" y="205" type="line" smooth="yes"/>
      <point x="346" y="205"/>
      <point x="376" y="172"/>
      <point x="376" y="122" type="curve" smooth="yes"/>
      <point x="376" y="65"/>
      <point x="339" y="25"/>
      <point x="233" y="25" type="curve" smooth="yes"/>
    </contour>
    <contour>
      <point x="85" y="0" type="line"/>
      <point x="236" y="0" type="line" smooth="yes"/>
      <point x="357" y="0"/>
      <point x="402" y="54"/>
      <point x="402" y="124" type="curve" smooth="yes"/>
      <point x="402" y="187"/>
      <point x="363" y="230"/>
      <point x="272" y="230" type="curve" smooth="yes"/>
      <point x="176" y="230" type="line"/>
    </contour>
  </outline>
</glyph>
<glyph name="ne.eth" format="2">
	<advance width="439"/>
	<unicode hex="1295"/>
	<anchor x="204" y="714" name="top"/>
	<note>
		uni1295
	</note>
	<outline>
		<contour>
			<point x="161" y="0" type="line"/>
			<point x="188" y="0" type="line"/>
			<point x="389" y="481" type="line"/>
			<point x="268" y="481" type="line"/>
			<point x="268" y="551" type="line" smooth="yes"/>
			<point x="268" y="679"/>
			<point x="216" y="714"/>
			<point x="100" y="714" type="curve" smooth="yes"/>
			<point x="45" y="714" type="line"/>
			<point x="20" y="616" type="line"/>
			<point x="29" y="616" type="line" smooth="yes"/>
			<point x="53" y="616"/>
			<point x="73" y="643"/>
			<point x="83" y="689" type="curve"/>
			<point x="100" y="689" type="line" smooth="yes"/>
			<point x="194" y="689"/>
			<point x="242" y="667"/>
			<point x="242" y="552" type="curve" smooth="yes"/>
			<point x="242" y="456" type="line"/>
			<point x="350" y="456" type="line"/>
		</contour>
	</outline>
</glyph>
<glyph name="no.eth" format="2">
  <advance width="571"/>
  <unicode hex="1296"/>
  <note>
uni1296
</note>
  <anchor x="315" y="714" name="top"/>
  <outline>
    <contour>
      <point x="296" y="0" type="line"/>
      <point x="322" y="0" type="line"/>
      <point x="322" y="319" type="line"/>
      <point x="106" y="319" type="line"/>
      <point x="107" y="573"/>
      <point x="185" y="666"/>
      <point x="323" y="685" type="curve"/>
      <point x="420" y="714" type="line"/>
      <point x="376" y="714" type="line" smooth="yes"/>
      <point x="189" y="714"/>
      <point x="80" y="611"/>
      <point x="80" y="322" type="curve" smooth="yes"/>
      <point x="80" y="294" type="line"/>
      <point x="296" y="294" type="line"/>
    </contour>
    <component base="ballbig" xOffset="249" yOffset="291"/>
  </outline>
</glyph>
<glyph name="nya.eth" format="2">
	<advance width="526"/>
	<unicode hex="1298"/>
	<anchor x="232" y="787" name="top"/>
	<note>
		uni1298
	</note>
	<outline>
		<contour>
			<point x="405" y="0" type="line"/>
			<point x="431" y="0" type="line"/>
			<point x="431" y="471" type="line"/>
			<point x="406" y="471" type="line" smooth="yes"/>
			<point x="293" y="471"/>
			<point x="249" y="512"/>
			<point x="249" y="627" type="curve" smooth="yes"/>
			<point x="249" y="694" type="line"/>
			<point x="223" y="694" type="line"/>
			<point x="223" y="625" type="line" smooth="yes"/>
			<point x="223" y="500"/>
			<point x="273" y="446"/>
			<point x="405" y="446" type="curve"/>
		</contour>
		<component base="bone" yOffset="-59"/>
	</outline>
</glyph>
<glyph name="nyaa.eth" format="2">
  <advance width="544"/>
  <unicode hex="129B"/>
  <note>
uni129B
</note>
  <anchor x="272" y="793" name="top"/>
  <outline>
    <contour>
      <point x="76" y="230" type="line"/>
      <point x="102" y="235" type="line"/>
      <point x="102" y="278" type="line" smooth="yes"/>
      <point x="102" y="459"/>
      <point x="200" y="525"/>
      <point x="339" y="525" type="curve" smooth="yes"/>
      <point x="348" y="525" type="line"/>
      <point x="358" y="479"/>
      <point x="378" y="452"/>
      <point x="402" y="452" type="curve" smooth="yes"/>
      <point x="411" y="452" type="line"/>
      <point x="386" y="550" type="line"/>
      <point x="333" y="550" type="line" smooth="yes"/>
      <point x="177" y="550"/>
      <point x="76" y="466"/>
      <point x="76" y="287" type="curve" smooth="yes"/>
    </contour>
    <contour>
      <point x="276" y="0" type="line"/>
      <point x="302" y="0" type="line"/>
      <point x="302" y="255" type="line"/>
      <point x="91" y="255" type="line"/>
      <point x="76" y="230" type="line"/>
      <point x="276" y="230" type="line"/>
    </contour>
    <contour>
      <point x="260" y="536" type="line"/>
      <point x="286" y="536" type="line"/>
      <point x="286" y="708" type="line"/>
      <point x="260" y="708" type="line"/>
    </contour>
    <component base="bonemiddle" yOffset="-53"/>
  </outline>
</glyph>
<glyph name="nyee.eth" format="2">
  <advance width="544"/>
  <unicode hex="129C"/>
  <note>
uni129C
</note>
  <anchor x="272" y="796" name="top"/>
  <outline>
    <contour>
      <point x="194" y="0" type="line"/>
      <point x="215" y="0" type="line"/>
      <point x="410" y="481" type="line"/>
      <point x="289" y="481" type="line"/>
      <point x="289" y="714" type="line"/>
      <point x="263" y="714" type="line"/>
      <point x="263" y="456" type="line"/>
      <point x="371" y="456" type="line"/>
      <point x="194" y="24" type="line"/>
    </contour>
    <contour>
      <point x="214" y="25" type="line"/>
      <point x="287" y="205" type="line"/>
      <point x="381" y="205" type="line" smooth="yes"/>
      <point x="459" y="205"/>
      <point x="489" y="172"/>
      <point x="489" y="122" type="curve" smooth="yes"/>
      <point x="489" y="65"/>
      <point x="452" y="25"/>
      <point x="346" y="25" type="curve" smooth="yes"/>
    </contour>
    <contour>
      <point x="198" y="0" type="line"/>
      <point x="349" y="0" type="line" smooth="yes"/>
      <point x="470" y="0"/>
      <point x="515" y="54"/>
      <point x="515" y="124" type="curve" smooth="yes"/>
      <point x="515" y="187"/>
      <point x="476" y="230"/>
      <point x="385" y="230" type="curve" smooth="yes"/>
      <point x="289" y="230" type="line"/>
    </contour>
    <component base="bonemiddle" yOffset="-50"/>
  </outline>
</glyph>
<glyph name="nye.eth" format="2">
  <advance width="488"/>
  <unicode hex="129D"/>
  <note>
uni129D
</note>
  <anchor x="229" y="787" name="top"/>
  <outline>
    <contour>
      <point x="242" y="0" type="line"/>
      <point x="269" y="0" type="line"/>
      <point x="438" y="401" type="line"/>
      <point x="317" y="401" type="line"/>
      <point x="317" y="406" type="line" smooth="yes"/>
      <point x="317" y="507"/>
      <point x="263" y="553"/>
      <point x="165" y="553" type="curve" smooth="yes"/>
      <point x="107" y="553" type="line"/>
      <point x="82" y="455" type="line"/>
      <point x="91" y="455" type="line" smooth="yes"/>
      <point x="115" y="455"/>
      <point x="135" y="482"/>
      <point x="145" y="528" type="curve"/>
      <point x="160" y="528" type="line" smooth="yes"/>
      <point x="246" y="528"/>
      <point x="291" y="494"/>
      <point x="291" y="401" type="curve" smooth="yes"/>
      <point x="291" y="376" type="line"/>
      <point x="399" y="376" type="line"/>
    </contour>
    <contour>
      <point x="207" y="532" type="line"/>
      <point x="233" y="532" type="line"/>
      <point x="233" y="703" type="line"/>
      <point x="207" y="703" type="line"/>
    </contour>
    <component base="footshort" xScale="-1" yScale="-1" xOffset="454" yOffset="714"/>
  </outline>
</glyph>
<glyph name="nyo.eth" format="2">
  <advance width="633"/>
  <unicode hex="129E"/>
  <note>
uni129E
</note>
  <anchor x="320" y="797" name="top"/>
  <outline>
    <contour>
      <point x="278" y="0" type="line"/>
      <point x="304" y="0" type="line"/>
      <point x="304" y="259" type="line"/>
      <point x="118" y="259" type="line"/>
      <point x="119" y="428"/>
      <point x="191" y="519"/>
      <point x="407" y="519" type="curve"/>
      <point x="466" y="544" type="line"/>
      <point x="403" y="544" type="line" smooth="yes"/>
      <point x="177" y="544"/>
      <point x="92" y="439"/>
      <point x="92" y="262" type="curve" smooth="yes"/>
      <point x="92" y="234" type="line"/>
      <point x="278" y="234" type="line"/>
    </contour>
    <contour>
      <point x="472" y="298" type="curve" smooth="yes"/>
      <point x="563" y="298"/>
      <point x="613" y="349"/>
      <point x="613" y="422" type="curve" smooth="yes"/>
      <point x="613" y="497"/>
      <point x="565" y="544"/>
      <point x="472" y="544" type="curve" smooth="yes"/>
      <point x="387" y="544"/>
      <point x="331" y="497"/>
      <point x="331" y="421" type="curve" smooth="yes"/>
      <point x="331" y="345"/>
      <point x="381" y="298"/>
    </contour>
    <contour>
      <point x="270" y="517" type="line"/>
      <point x="296" y="517" type="line"/>
      <point x="296" y="714" type="line"/>
      <point x="270" y="714" type="line"/>
    </contour>
    <contour>
      <point x="472" y="323" type="curve" smooth="yes"/>
      <point x="396" y="323"/>
      <point x="357" y="361"/>
      <point x="357" y="421" type="curve" smooth="yes"/>
      <point x="357" y="478"/>
      <point x="393" y="519"/>
      <point x="472" y="519" type="curve" smooth="yes"/>
      <point x="552" y="519"/>
      <point x="587" y="479"/>
      <point x="587" y="422" type="curve" smooth="yes"/>
      <point x="587" y="363"/>
      <point x="550" y="323"/>
    </contour>
    <component base="bonemiddle" xOffset="8" yOffset="-49"/>
  </outline>
</glyph>
<glyph name="aGlottal.eth" format="2">
  <advance width="529"/>
  <unicode hex="12A0"/>
  <note>
uni12A0
</note>
  <anchor x="284" y="714" name="top"/>
  <outline>
    <contour>
      <point x="70" y="0" type="line"/>
      <point x="102" y="0" type="line"/>
      <point x="313" y="521" type="line"/>
      <point x="277" y="521" type="line" smooth="yes"/>
      <point x="149" y="521"/>
      <point x="101" y="569"/>
      <point x="101" y="679" type="curve" smooth="yes"/>
      <point x="101" y="714" type="line"/>
      <point x="75" y="714" type="line"/>
      <point x="75" y="676" type="line" smooth="yes"/>
      <point x="75" y="555"/>
      <point x="135" y="496"/>
      <point x="276" y="496" type="curve"/>
    </contour>
    <contour>
      <point x="471" y="0" type="curve"/>
      <point x="498" y="0" type="line"/>
      <point x="473" y="210"/>
      <point x="398" y="330"/>
      <point x="243" y="376" type="curve"/>
      <point x="235" y="351" type="line"/>
      <point x="385" y="305"/>
      <point x="445" y="191"/>
    </contour>
  </outline>
</glyph>
<glyph name="aaGlottal.eth" format="2">
  <advance width="524"/>
  <unicode hex="12A3"/>
  <note>
uni12A3
</note>
  <anchor x="281" y="714" name="top"/>
  <outline>
    <contour>
      <point x="132" y="161" type="line"/>
      <point x="162" y="161" type="line"/>
      <point x="308" y="521" type="line"/>
      <point x="272" y="521" type="line" smooth="yes"/>
      <point x="144" y="521"/>
      <point x="96" y="569"/>
      <point x="96" y="679" type="curve" smooth="yes"/>
      <point x="96" y="714" type="line"/>
      <point x="70" y="714" type="line"/>
      <point x="70" y="676" type="line" smooth="yes"/>
      <point x="70" y="555"/>
      <point x="130" y="496"/>
      <point x="271" y="496" type="curve"/>
    </contour>
    <contour>
      <point x="466" y="0" type="curve"/>
      <point x="493" y="0" type="line"/>
      <point x="468" y="210"/>
      <point x="393" y="330"/>
      <point x="238" y="376" type="curve"/>
      <point x="230" y="351" type="line"/>
      <point x="380" y="305"/>
      <point x="440" y="191"/>
    </contour>
  </outline>
</glyph>
<glyph name="eeGlottal.eth" format="2">
  <advance width="732"/>
  <unicode hex="12A4"/>
  <note>
uni12A4
</note>
  <anchor x="391" y="714" name="top"/>
  <outline>
    <contour>
      <point x="491" y="0" type="line"/>
      <point x="546" y="0" type="line" smooth="yes"/>
      <point x="667" y="0"/>
      <point x="712" y="54"/>
      <point x="712" y="124" type="curve" smooth="yes"/>
      <point x="712" y="187"/>
      <point x="673" y="230"/>
      <point x="582" y="230" type="curve" smooth="yes"/>
      <point x="422" y="230" type="line"/>
    </contour>
    <contour>
      <point x="491" y="25" type="line"/>
      <point x="438" y="205" type="line"/>
      <point x="578" y="205" type="line" smooth="yes"/>
      <point x="656" y="205"/>
      <point x="686" y="172"/>
      <point x="686" y="122" type="curve" smooth="yes"/>
      <point x="686" y="65"/>
      <point x="649" y="25"/>
      <point x="543" y="25" type="curve" smooth="yes"/>
    </contour>
    <component base="aGlottal.eth"/>
  </outline>
</glyph>
<glyph name="eGlottal.eth" format="2">
  <advance width="531"/>
  <unicode hex="12A5"/>
  <note>
uni12A5
</note>
  <anchor x="285" y="714" name="top"/>
  <outline>
    <contour>
      <point x="72" y="0" type="line"/>
      <point x="99" y="0" type="line"/>
      <point x="245" y="350" type="line"/>
      <point x="388" y="301"/>
      <point x="448" y="188"/>
      <point x="473" y="0" type="curve"/>
      <point x="500" y="0" type="line"/>
      <point x="476" y="207"/>
      <point x="404" y="323"/>
      <point x="255" y="373" type="curve"/>
      <point x="297" y="476" type="line"/>
      <point x="189" y="476" type="line"/>
      <point x="239" y="591" type="line"/>
      <point x="210" y="591" type="line" smooth="yes"/>
      <point x="134" y="591"/>
      <point x="96" y="617"/>
      <point x="96" y="708" type="curve" smooth="yes"/>
      <point x="96" y="714" type="line"/>
      <point x="70" y="714" type="line"/>
      <point x="70" y="706" type="line" smooth="yes"/>
      <point x="70" y="606"/>
      <point x="119" y="568"/>
      <point x="200" y="566" type="curve"/>
      <point x="150" y="451" type="line"/>
      <point x="259" y="451" type="line"/>
    </contour>
  </outline>
</glyph>
<glyph name="oGlottal.eth" format="2">
  <advance width="498"/>
  <unicode hex="12A6"/>
  <note>
uni12A6
</note>
  <anchor x="268" y="714" name="top"/>
  <outline>
    <contour>
      <point x="70" y="0" type="line"/>
      <point x="102" y="0" type="line"/>
      <point x="313" y="521" type="line"/>
      <point x="277" y="521" type="line" smooth="yes"/>
      <point x="149" y="521"/>
      <point x="101" y="569"/>
      <point x="101" y="679" type="curve" smooth="yes"/>
      <point x="101" y="714" type="line"/>
      <point x="75" y="714" type="line"/>
      <point x="75" y="676" type="line" smooth="yes"/>
      <point x="75" y="555"/>
      <point x="135" y="496"/>
      <point x="276" y="496" type="curve"/>
    </contour>
    <contour>
      <point x="438" y="148" type="curve"/>
      <point x="467" y="148" type="line"/>
      <point x="428" y="268"/>
      <point x="357" y="342"/>
      <point x="243" y="376" type="curve"/>
      <point x="235" y="351" type="line"/>
      <point x="341" y="318"/>
      <point x="402" y="252"/>
    </contour>
  </outline>
</glyph>
<glyph name="waGlottal.eth" format="2">
  <advance width="561"/>
  <unicode hex="12A7"/>
  <note>
uni12A7
</note>
  <anchor x="275" y="787" name="top"/>
  <outline>
    <contour>
      <point x="102" y="0" type="line"/>
      <point x="129" y="0" type="line"/>
      <point x="275" y="350" type="line"/>
      <point x="421" y="301"/>
      <point x="480" y="180"/>
      <point x="503" y="0" type="curve"/>
      <point x="530" y="0" type="line"/>
      <point x="505" y="212"/>
      <point x="431" y="324"/>
      <point x="285" y="373" type="curve"/>
      <point x="346" y="522" type="line"/>
      <point x="254" y="522" type="line"/>
      <point x="254" y="710" type="line"/>
      <point x="227" y="710" type="line"/>
      <point x="227" y="497" type="line"/>
      <point x="308" y="497" type="line"/>
    </contour>
    <component base="bone" yOffset="-59"/>
  </outline>
</glyph>
<glyph name="ka.eth" format="2">
  <advance width="601"/>
  <unicode hex="12A8"/>
  <note>
uni12A8
</note>
  <anchor x="283" y="760" name="top"/>
  <outline>
    <contour>
      <point x="151" y="517" type="curve"/>
      <point x="163" y="538" type="line"/>
      <point x="113" y="559"/>
      <point x="86" y="590"/>
      <point x="86" y="677" type="curve" smooth="yes"/>
      <point x="86" y="760" type="line"/>
      <point x="60" y="760" type="line"/>
      <point x="60" y="676" type="line" smooth="yes"/>
      <point x="60" y="579"/>
      <point x="93" y="539"/>
    </contour>
    <component base="shortnarch" xOffset="7"/>
  </outline>
</glyph>
<glyph name="kaa.eth" format="2">
  <advance width="597"/>
  <unicode hex="12AB"/>
  <note>
uni12AB
</note>
  <anchor x="281" y="762" name="top"/>
  <outline>
    <contour>
      <point x="151" y="517" type="curve"/>
      <point x="163" y="538" type="line"/>
      <point x="113" y="559"/>
      <point x="86" y="590"/>
      <point x="86" y="677" type="curve" smooth="yes"/>
      <point x="86" y="762" type="line"/>
      <point x="60" y="762" type="line"/>
      <point x="60" y="676" type="line" smooth="yes"/>
      <point x="60" y="579"/>
      <point x="93" y="539"/>
    </contour>
    <component base="baashort" xOffset="16"/>
  </outline>
</glyph>
<glyph name="ke.eth" format="2">
  <advance width="599"/>
  <unicode hex="12AD"/>
  <note>
uni12AD
</note>
  <anchor x="282" y="760" name="top"/>
  <outline>
    <contour>
      <point x="478" y="0" type="line"/>
      <point x="504" y="0" type="line"/>
      <point x="504" y="355" type="line" smooth="yes"/>
      <point x="504" y="518"/>
      <point x="439" y="601"/>
      <point x="302" y="601" type="curve" smooth="yes"/>
      <point x="171" y="601"/>
      <point x="100" y="520"/>
      <point x="100" y="358" type="curve" smooth="yes"/>
      <point x="100" y="286" type="line"/>
      <point x="126" y="286" type="line"/>
      <point x="126" y="350" type="line" smooth="yes"/>
      <point x="126" y="501"/>
      <point x="183" y="576"/>
      <point x="302" y="576" type="curve" smooth="yes"/>
      <point x="422" y="576"/>
      <point x="478" y="502"/>
      <point x="478" y="351" type="curve" smooth="yes"/>
    </contour>
    <contour>
      <point x="100" y="0" type="line"/>
      <point x="126" y="0" type="line"/>
      <point x="126" y="174" type="line" smooth="yes"/>
      <point x="126" y="296"/>
      <point x="167" y="334"/>
      <point x="269" y="334" type="curve"/>
      <point x="269" y="359" type="line"/>
      <point x="153" y="359"/>
      <point x="100" y="308"/>
      <point x="100" y="176" type="curve" smooth="yes"/>
    </contour>
    <contour>
      <point x="151" y="517" type="curve"/>
      <point x="163" y="538" type="line"/>
      <point x="113" y="559"/>
      <point x="86" y="590"/>
      <point x="86" y="677" type="curve" smooth="yes"/>
      <point x="86" y="760" type="line"/>
      <point x="60" y="760" type="line"/>
      <point x="60" y="676" type="line" smooth="yes"/>
      <point x="60" y="579"/>
      <point x="93" y="539"/>
    </contour>
  </outline>
</glyph>
<glyph name="kwi.eth" format="2">
  <advance width="850"/>
  <unicode hex="12B2"/>
  <note>
uni12B2
</note>
  <anchor x="445" y="760" name="top"/>
  <outline>
    <contour>
      <point x="821" y="164" type="curve" smooth="yes"/>
      <point x="830" y="164" type="line"/>
      <point x="805" y="262" type="line"/>
      <point x="661" y="262" type="line"/>
      <point x="661" y="237" type="line"/>
      <point x="767" y="237" type="line"/>
      <point x="777" y="191"/>
      <point x="797" y="164"/>
    </contour>
    <contour>
      <point x="484" y="324" type="line"/>
      <point x="663" y="324" type="line"/>
      <point x="663" y="349" type="line"/>
      <point x="484" y="349" type="line"/>
    </contour>
    <contour>
      <point x="652" y="237" type="line"/>
      <point x="678" y="237" type="line"/>
      <point x="678" y="436" type="line"/>
      <point x="652" y="436" type="line"/>
    </contour>
    <component base="ka.eth"/>
  </outline>
</glyph>
<glyph name="kwaa.eth" format="2">
  <advance width="637"/>
  <unicode hex="12B3"/>
  <note>
uni12B3
</note>
  <anchor x="328" y="762" name="top"/>
  <outline>
    <contour>
      <point x="469" y="136" type="line"/>
      <point x="495" y="136" type="line"/>
      <point x="495" y="355" type="line" smooth="yes"/>
      <point x="495" y="518"/>
      <point x="430" y="601"/>
      <point x="293" y="601" type="curve" smooth="yes"/>
      <point x="162" y="601"/>
      <point x="91" y="520"/>
      <point x="91" y="358" type="curve" smooth="yes"/>
      <point x="91" y="319" type="line"/>
      <point x="117" y="319" type="line"/>
      <point x="117" y="350" type="line" smooth="yes"/>
      <point x="117" y="501"/>
      <point x="174" y="576"/>
      <point x="293" y="576" type="curve" smooth="yes"/>
      <point x="413" y="576"/>
      <point x="469" y="502"/>
      <point x="469" y="351" type="curve" smooth="yes"/>
    </contour>
    <contour>
      <point x="341" y="127" type="line"/>
      <point x="591" y="127" type="line"/>
      <point x="591" y="152" type="line"/>
      <point x="341" y="152" type="line"/>
    </contour>
    <contour>
      <point x="151" y="517" type="curve"/>
      <point x="163" y="538" type="line"/>
      <point x="113" y="559"/>
      <point x="86" y="590"/>
      <point x="86" y="677" type="curve" smooth="yes"/>
      <point x="86" y="762" type="line"/>
      <point x="60" y="762" type="line"/>
      <point x="60" y="676" type="line" smooth="yes"/>
      <point x="60" y="579"/>
      <point x="93" y="539"/>
    </contour>
    <contour>
      <point x="571" y="0" type="line"/>
      <point x="597" y="0" type="line"/>
      <point x="597" y="152" type="line"/>
      <point x="571" y="152" type="line"/>
    </contour>
    <component base="leftsingleflag" xOffset="128" yOffset="-236"/>
  </outline>
</glyph>
<glyph name="kwe.eth" format="2">
  <advance width="818"/>
  <unicode hex="12B5"/>
  <note>
uni12B5
</note>
  <anchor x="429" y="760" name="top"/>
  <outline>
    <contour>
      <point x="620" y="393" type="line"/>
      <point x="646" y="393" type="line"/>
      <point x="646" y="572" type="line"/>
      <point x="620" y="572" type="line"/>
    </contour>
    <contour>
      <point x="483" y="393" type="line"/>
      <point x="642" y="393" type="line"/>
      <point x="642" y="418" type="line"/>
      <point x="483" y="418" type="line"/>
    </contour>
    <component base="ka.eth"/>
    <component base="rightsingleflag" xOffset="535" yOffset="30"/>
  </outline>
</glyph>
<glyph name="kxa.eth" format="2">
  <advance width="767"/>
  <unicode hex="12B8"/>
  <note>
uni12B8
</note>
  <anchor x="346" y="846" name="top"/>
  <outline>
    <contour>
      <point x="268" y="0" type="line"/>
      <point x="294" y="0" type="line"/>
      <point x="294" y="310" type="line" smooth="yes"/>
      <point x="294" y="461"/>
      <point x="351" y="536"/>
      <point x="470" y="536" type="curve" smooth="yes"/>
      <point x="590" y="536"/>
      <point x="646" y="462"/>
      <point x="646" y="311" type="curve" smooth="yes"/>
      <point x="646" y="0" type="line"/>
      <point x="672" y="0" type="line"/>
      <point x="672" y="315" type="line" smooth="yes"/>
      <point x="672" y="478"/>
      <point x="607" y="561"/>
      <point x="470" y="561" type="curve" smooth="yes"/>
      <point x="339" y="561"/>
      <point x="268" y="480"/>
      <point x="268" y="318" type="curve" smooth="yes"/>
    </contour>
    <contour>
      <point x="317" y="477" type="curve"/>
      <point x="329" y="498" type="line"/>
      <point x="279" y="519"/>
      <point x="252" y="550"/>
      <point x="252" y="637" type="curve" smooth="yes"/>
      <point x="252" y="760" type="line"/>
      <point x="226" y="760" type="line"/>
      <point x="226" y="636" type="line" smooth="yes"/>
      <point x="226" y="539"/>
      <point x="259" y="499"/>
    </contour>
    <component base="bone"/>
  </outline>
</glyph>
<glyph name="kxaa.eth" format="2">
  <advance width="758"/>
  <unicode hex="12BB"/>
  <note>
uni12BB
</note>
  <anchor x="341" y="846" name="top"/>
  <outline>
    <contour>
      <point x="637" y="0" type="line"/>
      <point x="663" y="0" type="line"/>
      <point x="663" y="315" type="line" smooth="yes"/>
      <point x="663" y="478"/>
      <point x="598" y="561"/>
      <point x="461" y="561" type="curve" smooth="yes"/>
      <point x="330" y="561"/>
      <point x="259" y="480"/>
      <point x="259" y="318" type="curve" smooth="yes"/>
      <point x="259" y="270" type="line"/>
      <point x="285" y="270" type="line"/>
      <point x="285" y="310" type="line" smooth="yes"/>
      <point x="285" y="461"/>
      <point x="342" y="536"/>
      <point x="461" y="536" type="curve" smooth="yes"/>
      <point x="581" y="536"/>
      <point x="637" y="462"/>
      <point x="637" y="311" type="curve" smooth="yes"/>
    </contour>
    <contour>
      <point x="308" y="477" type="curve"/>
      <point x="320" y="498" type="line"/>
      <point x="270" y="519"/>
      <point x="243" y="550"/>
      <point x="243" y="637" type="curve" smooth="yes"/>
      <point x="243" y="760" type="line"/>
      <point x="217" y="760" type="line"/>
      <point x="217" y="636" type="line" smooth="yes"/>
      <point x="217" y="539"/>
      <point x="250" y="499"/>
    </contour>
    <component base="bone"/>
  </outline>
</glyph>
<glyph name="kxe.eth" format="2">
  <advance width="764"/>
  <unicode hex="12BD"/>
  <note>
uni12BD
</note>
  <anchor x="344" y="846" name="top"/>
  <outline>
    <contour>
      <point x="643" y="0" type="line"/>
      <point x="669" y="0" type="line"/>
      <point x="669" y="315" type="line" smooth="yes"/>
      <point x="669" y="478"/>
      <point x="604" y="561"/>
      <point x="467" y="561" type="curve" smooth="yes"/>
      <point x="336" y="561"/>
      <point x="265" y="480"/>
      <point x="265" y="318" type="curve" smooth="yes"/>
      <point x="265" y="246" type="line"/>
      <point x="291" y="246" type="line"/>
      <point x="291" y="310" type="line" smooth="yes"/>
      <point x="291" y="461"/>
      <point x="348" y="536"/>
      <point x="467" y="536" type="curve" smooth="yes"/>
      <point x="587" y="536"/>
      <point x="643" y="462"/>
      <point x="643" y="311" type="curve" smooth="yes"/>
    </contour>
    <contour>
      <point x="265" y="0" type="line"/>
      <point x="291" y="0" type="line"/>
      <point x="291" y="134" type="line" smooth="yes"/>
      <point x="291" y="256"/>
      <point x="332" y="294"/>
      <point x="434" y="294" type="curve"/>
      <point x="434" y="319" type="line"/>
      <point x="318" y="319"/>
      <point x="265" y="268"/>
      <point x="265" y="136" type="curve" smooth="yes"/>
    </contour>
    <contour>
      <point x="316" y="477" type="curve"/>
      <point x="328" y="498" type="line"/>
      <point x="278" y="519"/>
      <point x="251" y="550"/>
      <point x="251" y="637" type="curve" smooth="yes"/>
      <point x="251" y="760" type="line"/>
      <point x="225" y="760" type="line"/>
      <point x="225" y="636" type="line" smooth="yes"/>
      <point x="225" y="539"/>
      <point x="258" y="499"/>
    </contour>
    <component base="bone"/>
  </outline>
</glyph>
<glyph name="kxo.eth" format="2">
  <advance width="760"/>
  <unicode hex="12BE"/>
  <note>
uni12BE
</note>
  <anchor x="349" y="846" name="top"/>
  <outline>
    <contour>
      <point x="274" y="0" type="line"/>
      <point x="300" y="0" type="line"/>
      <point x="300" y="301" type="line" smooth="yes"/>
      <point x="300" y="452"/>
      <point x="356" y="526"/>
      <point x="476" y="526" type="curve" smooth="yes"/>
      <point x="595" y="526"/>
      <point x="652" y="451"/>
      <point x="652" y="300" type="curve" smooth="yes"/>
      <point x="652" y="190" type="line"/>
      <point x="678" y="190" type="line"/>
      <point x="678" y="308" type="line" smooth="yes"/>
      <point x="678" y="470"/>
      <point x="607" y="551"/>
      <point x="476" y="551" type="curve" smooth="yes"/>
      <point x="339" y="551"/>
      <point x="274" y="468"/>
      <point x="274" y="305" type="curve" smooth="yes"/>
    </contour>
    <contour>
      <point x="315" y="467" type="curve"/>
      <point x="327" y="488" type="line"/>
      <point x="277" y="509"/>
      <point x="250" y="540"/>
      <point x="250" y="627" type="curve" smooth="yes"/>
      <point x="250" y="762" type="line"/>
      <point x="224" y="762" type="line"/>
      <point x="224" y="626" type="line" smooth="yes"/>
      <point x="224" y="529"/>
      <point x="257" y="489"/>
    </contour>
    <component base="bone"/>
  </outline>
</glyph>
<glyph name="kxwi.eth" format="2">
  <advance width="1018"/>
  <unicode hex="12C2"/>
  <note>
uni12C2
</note>
  <anchor x="509" y="846" name="top"/>
  <outline>
    <contour>
      <point x="989" y="143" type="curve" smooth="yes"/>
      <point x="998" y="143" type="line"/>
      <point x="973" y="241" type="line"/>
      <point x="829" y="241" type="line"/>
      <point x="829" y="216" type="line"/>
      <point x="935" y="216" type="line"/>
      <point x="945" y="170"/>
      <point x="965" y="143"/>
    </contour>
    <contour>
      <point x="652" y="303" type="line"/>
      <point x="831" y="303" type="line"/>
      <point x="831" y="328" type="line"/>
      <point x="652" y="328" type="line"/>
    </contour>
    <contour>
      <point x="820" y="216" type="line"/>
      <point x="846" y="216" type="line"/>
      <point x="846" y="415" type="line"/>
      <point x="820" y="415" type="line"/>
    </contour>
    <component base="kxa.eth"/>
  </outline>
</glyph>
<glyph name="kxwaa.eth" format="2">
  <advance width="859"/>
  <unicode hex="12C3"/>
  <note>
uni12C3
</note>
  <anchor x="429" y="846" name="top"/>
  <outline>
    <contour>
      <point x="630" y="0" type="line"/>
      <point x="656" y="0" type="line"/>
      <point x="656" y="315" type="line" smooth="yes"/>
      <point x="656" y="478"/>
      <point x="591" y="561"/>
      <point x="454" y="561" type="curve" smooth="yes"/>
      <point x="323" y="561"/>
      <point x="252" y="480"/>
      <point x="252" y="318" type="curve" smooth="yes"/>
      <point x="252" y="270" type="line"/>
      <point x="278" y="270" type="line"/>
      <point x="278" y="310" type="line" smooth="yes"/>
      <point x="278" y="461"/>
      <point x="335" y="536"/>
      <point x="454" y="536" type="curve" smooth="yes"/>
      <point x="574" y="536"/>
      <point x="630" y="462"/>
      <point x="630" y="311" type="curve" smooth="yes"/>
    </contour>
    <contour>
      <point x="301" y="477" type="curve"/>
      <point x="313" y="498" type="line"/>
      <point x="263" y="519"/>
      <point x="236" y="550"/>
      <point x="236" y="637" type="curve" smooth="yes"/>
      <point x="236" y="760" type="line"/>
      <point x="210" y="760" type="line"/>
      <point x="210" y="636" type="line" smooth="yes"/>
      <point x="210" y="539"/>
      <point x="243" y="499"/>
    </contour>
    <component base="footright" xOffset="312"/>
    <component base="footshort" xScale="-1" yScale="-1" xOffset="454" yOffset="773"/>
  </outline>
</glyph>
<glyph name="kxwee.eth" format="2">
  <advance width="935"/>
  <unicode hex="12C4"/>
  <note>
uni12C4
</note>
  <anchor x="467" y="846" name="top"/>
  <outline>
    <contour>
      <point x="599" y="0" type="line"/>
      <point x="711" y="0" type="line"/>
      <point x="711" y="25" type="line"/>
      <point x="599" y="25" type="line"/>
    </contour>
    <component base="baselinebowl" xOffset="587"/>
    <component base="leftsingleflag" xOffset="376" yOffset="-363"/>
    <component base="kxaa.eth"/>
  </outline>
</glyph>
<glyph name="kxwe.eth" format="2">
  <advance width="961"/>
  <unicode hex="12C5"/>
  <note>
uni12C5
</note>
  <anchor x="480" y="846" name="top"/>
  <outline>
    <contour>
      <point x="773" y="393" type="line"/>
      <point x="799" y="393" type="line"/>
      <point x="799" y="572" type="line"/>
      <point x="773" y="572" type="line"/>
    </contour>
    <contour>
      <point x="652" y="393" type="line"/>
      <point x="795" y="393" type="line"/>
      <point x="795" y="418" type="line"/>
      <point x="652" y="418" type="line"/>
    </contour>
    <component base="kxa.eth"/>
    <component base="rightsingleflag" xOffset="678" yOffset="30"/>
  </outline>
</glyph>
<glyph name="wa.eth" format="2">
  <advance width="750"/>
  <unicode hex="12C8"/>
  <note>
uni12C8
</note>
  <anchor x="375" y="714" name="top"/>
  <outline>
    <contour>
      <point x="241" y="-10" type="curve" smooth="yes"/>
      <point x="303" y="-10"/>
      <point x="346" y="14"/>
      <point x="383" y="73" type="curve"/>
      <point x="443" y="73" type="line" smooth="yes"/>
      <point x="594" y="73"/>
      <point x="670" y="176"/>
      <point x="670" y="398" type="curve" smooth="yes"/>
      <point x="670" y="614"/>
      <point x="604" y="714"/>
      <point x="458" y="714" type="curve" smooth="yes"/>
      <point x="350" y="714" type="line" smooth="yes"/>
      <point x="205" y="714"/>
      <point x="80" y="613"/>
      <point x="80" y="288" type="curve" smooth="yes"/>
      <point x="80" y="71"/>
      <point x="146" y="-10"/>
    </contour>
    <contour>
      <point x="246" y="15" type="curve" smooth="yes"/>
      <point x="166" y="15"/>
      <point x="106" y="88"/>
      <point x="106" y="289" type="curve" smooth="yes"/>
      <point x="106" y="597"/>
      <point x="223" y="689"/>
      <point x="353" y="689" type="curve" smooth="yes"/>
      <point x="376" y="689" type="line"/>
      <point x="376" y="112" type="line"/>
      <point x="347" y="49"/>
      <point x="307" y="15"/>
    </contour>
    <contour>
      <point x="402" y="98" type="line"/>
      <point x="402" y="689" type="line"/>
      <point x="453" y="689" type="line" smooth="yes"/>
      <point x="587" y="689"/>
      <point x="644" y="589"/>
      <point x="644" y="398" type="curve" smooth="yes"/>
      <point x="644" y="198"/>
      <point x="581" y="98"/>
      <point x="439" y="98" type="curve" smooth="yes"/>
    </contour>
  </outline>
</glyph>
<glyph name="wu.eth" format="2">
  <advance width="784"/>
  <unicode hex="12C9"/>
  <note>
uni12C9
</note>
  <anchor x="422" y="714" name="top"/>
  <outline>
    <contour>
      <point x="423" y="73" type="line"/>
      <point x="639" y="73" type="line"/>
      <point x="639" y="98" type="line"/>
      <point x="423" y="98" type="line"/>
    </contour>
    <component base="wa.eth"/>
    <component base="rightdoubleflag" xOffset="501" yOffset="73"/>
  </outline>
</glyph>
<glyph name="wo.eth" format="2">
  <advance width="718"/>
  <unicode hex="12CE"/>
  <note>
uni12CB
</note>
  <anchor x="359" y="714" name="top"/>
  <outline>
    <contour>
      <point x="221" y="302" type="curve" smooth="yes"/>
      <point x="297" y="302"/>
      <point x="345" y="329"/>
      <point x="383" y="376" type="curve"/>
      <point x="460" y="376" type="line" smooth="yes"/>
      <point x="616" y="376"/>
      <point x="670" y="457"/>
      <point x="670" y="548" type="curve" smooth="yes"/>
      <point x="670" y="647"/>
      <point x="625" y="714"/>
      <point x="478" y="714" type="curve" smooth="yes"/>
      <point x="316" y="714" type="line" smooth="yes"/>
      <point x="145" y="714"/>
      <point x="48" y="633"/>
      <point x="48" y="483" type="curve" smooth="yes"/>
      <point x="48" y="362"/>
      <point x="124" y="302"/>
    </contour>
    <contour>
      <point x="187" y="0" type="line"/>
      <point x="215" y="0" type="line"/>
      <point x="389" y="380" type="line"/>
      <point x="364" y="380" type="line"/>
    </contour>
    <contour>
      <point x="224" y="327" type="curve" smooth="yes"/>
      <point x="138" y="327"/>
      <point x="74" y="377"/>
      <point x="74" y="484" type="curve" smooth="yes"/>
      <point x="74" y="617"/>
      <point x="160" y="689"/>
      <point x="319" y="689" type="curve" smooth="yes"/>
      <point x="363" y="689" type="line"/>
      <point x="363" y="386" type="line"/>
      <point x="335" y="356"/>
      <point x="295" y="327"/>
    </contour>
    <contour>
      <point x="389" y="401" type="line"/>
      <point x="389" y="689" type="line"/>
      <point x="472" y="689" type="line" smooth="yes"/>
      <point x="602" y="689"/>
      <point x="644" y="636"/>
      <point x="644" y="548" type="curve" smooth="yes"/>
      <point x="644" y="471"/>
      <point x="603" y="401"/>
      <point x="457" y="401" type="curve" smooth="yes"/>
    </contour>
  </outline>
</glyph>
<glyph name="aPhr.eth" format="2">
  <advance width="586"/>
  <unicode hex="12D0"/>
  <note>
uni12D0
</note>
  <anchor x="293" y="725" name="top"/>
  <outline>
    <contour>
      <point x="293" y="-10" type="curve" smooth="yes"/>
      <point x="431" y="-10"/>
      <point x="506" y="81"/>
      <point x="506" y="247" type="curve" smooth="yes"/>
      <point x="506" y="466" type="line" smooth="yes"/>
      <point x="506" y="635"/>
      <point x="431" y="725"/>
      <point x="293" y="725" type="curve" smooth="yes"/>
      <point x="152" y="725"/>
      <point x="80" y="632"/>
      <point x="80" y="466" type="curve" smooth="yes"/>
      <point x="80" y="247" type="line" smooth="yes"/>
      <point x="80" y="81"/>
      <point x="152" y="-10"/>
    </contour>
    <contour>
      <point x="293" y="15" type="curve" smooth="yes"/>
      <point x="168" y="15"/>
      <point x="106" y="101"/>
      <point x="106" y="250" type="curve" smooth="yes"/>
      <point x="106" y="463" type="line" smooth="yes"/>
      <point x="106" y="615"/>
      <point x="168" y="700"/>
      <point x="293" y="700" type="curve" smooth="yes"/>
      <point x="418" y="700"/>
      <point x="480" y="615"/>
      <point x="480" y="462" type="curve" smooth="yes"/>
      <point x="480" y="251" type="line" smooth="yes"/>
      <point x="480" y="101"/>
      <point x="418" y="15"/>
    </contour>
  </outline>
</glyph>
<glyph name="iPhr.eth" format="2">
  <advance width="615"/>
  <unicode hex="12D2"/>
  <note>
uni12D2
</note>
  <anchor x="321" y="724" name="top"/>
  <outline>
    <contour>
      <point x="325" y="0" type="line"/>
      <point x="346" y="0" type="line"/>
      <point x="491" y="343" type="line"/>
      <point x="362" y="343" type="line"/>
      <point x="377" y="362"/>
      <point x="388" y="405"/>
      <point x="388" y="448" type="curve" smooth="yes"/>
      <point x="388" y="560" type="line" smooth="yes"/>
      <point x="388" y="663"/>
      <point x="333" y="724"/>
      <point x="220" y="724" type="curve" smooth="yes"/>
      <point x="110" y="724"/>
      <point x="48" y="663"/>
      <point x="48" y="560" type="curve" smooth="yes"/>
      <point x="48" y="448" type="line" smooth="yes"/>
      <point x="48" y="345"/>
      <point x="103" y="281"/>
      <point x="220" y="281" type="curve" smooth="yes"/>
      <point x="284" y="281"/>
      <point x="320" y="301"/>
      <point x="341" y="318" type="curve"/>
      <point x="451" y="318" type="line"/>
      <point x="325" y="23" type="line"/>
    </contour>
    <contour>
      <point x="331" y="0" type="line"/>
      <point x="425" y="0" type="line"/>
      <point x="425" y="25" type="line"/>
      <point x="331" y="25" type="line"/>
    </contour>
    <contour>
      <point x="220" y="306" type="curve" smooth="yes"/>
      <point x="121" y="306"/>
      <point x="74" y="360"/>
      <point x="74" y="455" type="curve" smooth="yes"/>
      <point x="74" y="559" type="line" smooth="yes"/>
      <point x="74" y="650"/>
      <point x="125" y="699"/>
      <point x="220" y="699" type="curve" smooth="yes"/>
      <point x="316" y="699"/>
      <point x="362" y="650"/>
      <point x="362" y="559" type="curve" smooth="yes"/>
      <point x="362" y="455" type="line" smooth="yes"/>
      <point x="362" y="360"/>
      <point x="325" y="306"/>
    </contour>
    <component base="rightdoubleflag" xOffset="332"/>
  </outline>
</glyph>
<glyph name="aaPhr.eth" format="2">
  <advance width="531"/>
  <unicode hex="12D3"/>
  <note>
uni12D3
</note>
  <anchor x="269" y="724" name="top"/>
  <outline>
    <contour>
      <point x="315" y="0" type="line"/>
      <point x="346" y="0" type="line"/>
      <point x="491" y="343" type="line"/>
      <point x="362" y="343" type="line"/>
      <point x="377" y="362"/>
      <point x="388" y="405"/>
      <point x="388" y="448" type="curve" smooth="yes"/>
      <point x="388" y="560" type="line" smooth="yes"/>
      <point x="388" y="663"/>
      <point x="333" y="724"/>
      <point x="220" y="724" type="curve" smooth="yes"/>
      <point x="110" y="724"/>
      <point x="48" y="663"/>
      <point x="48" y="560" type="curve" smooth="yes"/>
      <point x="48" y="448" type="line" smooth="yes"/>
      <point x="48" y="345"/>
      <point x="103" y="281"/>
      <point x="220" y="281" type="curve" smooth="yes"/>
      <point x="284" y="281"/>
      <point x="320" y="301"/>
      <point x="341" y="318" type="curve"/>
      <point x="451" y="318" type="line"/>
    </contour>
    <contour>
      <point x="220" y="306" type="curve" smooth="yes"/>
      <point x="121" y="306"/>
      <point x="74" y="360"/>
      <point x="74" y="455" type="curve" smooth="yes"/>
      <point x="74" y="559" type="line" smooth="yes"/>
      <point x="74" y="650"/>
      <point x="125" y="699"/>
      <point x="220" y="699" type="curve" smooth="yes"/>
      <point x="316" y="699"/>
      <point x="362" y="650"/>
      <point x="362" y="559" type="curve" smooth="yes"/>
      <point x="362" y="455" type="line" smooth="yes"/>
      <point x="362" y="360"/>
      <point x="325" y="306"/>
    </contour>
  </outline>
</glyph>
<glyph name="eePhr.eth" format="2">
  <advance width="629"/>
  <unicode hex="12D4"/>
  <note>
uni12D4
</note>
  <anchor x="328" y="724" name="top"/>
  <outline>
    <contour>
      <point x="325" y="0" type="line"/>
      <point x="346" y="0" type="line"/>
      <point x="491" y="343" type="line"/>
      <point x="362" y="343" type="line"/>
      <point x="377" y="362"/>
      <point x="388" y="405"/>
      <point x="388" y="448" type="curve" smooth="yes"/>
      <point x="388" y="560" type="line" smooth="yes"/>
      <point x="388" y="663"/>
      <point x="333" y="724"/>
      <point x="220" y="724" type="curve" smooth="yes"/>
      <point x="110" y="724"/>
      <point x="48" y="663"/>
      <point x="48" y="560" type="curve" smooth="yes"/>
      <point x="48" y="448" type="line" smooth="yes"/>
      <point x="48" y="345"/>
      <point x="103" y="281"/>
      <point x="220" y="281" type="curve" smooth="yes"/>
      <point x="284" y="281"/>
      <point x="320" y="301"/>
      <point x="341" y="318" type="curve"/>
      <point x="451" y="318" type="line"/>
      <point x="325" y="23" type="line"/>
    </contour>
    <contour>
      <point x="350" y="25" type="line"/>
      <point x="428" y="205" type="line"/>
      <point x="475" y="205" type="line" smooth="yes"/>
      <point x="552" y="205"/>
      <point x="581" y="172"/>
      <point x="581" y="122" type="curve" smooth="yes"/>
      <point x="581" y="65"/>
      <point x="546" y="25"/>
      <point x="440" y="25" type="curve" smooth="yes"/>
    </contour>
    <contour>
      <point x="329" y="0" type="line"/>
      <point x="447" y="0" type="line" smooth="yes"/>
      <point x="568" y="0"/>
      <point x="609" y="54"/>
      <point x="609" y="124" type="curve" smooth="yes"/>
      <point x="609" y="187"/>
      <point x="570" y="230"/>
      <point x="479" y="230" type="curve" smooth="yes"/>
      <point x="426" y="230" type="line"/>
    </contour>
    <contour>
      <point x="220" y="306" type="curve" smooth="yes"/>
      <point x="121" y="306"/>
      <point x="74" y="360"/>
      <point x="74" y="455" type="curve" smooth="yes"/>
      <point x="74" y="559" type="line" smooth="yes"/>
      <point x="74" y="650"/>
      <point x="125" y="699"/>
      <point x="220" y="699" type="curve" smooth="yes"/>
      <point x="316" y="699"/>
      <point x="362" y="650"/>
      <point x="362" y="559" type="curve" smooth="yes"/>
      <point x="362" y="455" type="line" smooth="yes"/>
      <point x="362" y="360"/>
      <point x="325" y="306"/>
    </contour>
  </outline>
</glyph>
<glyph name="ePhr.eth" format="2">
  <advance width="586"/>
  <unicode hex="12D5"/>
  <note>
uni12D5
</note>
  <anchor x="293" y="760" name="top"/>
  <outline>
    <contour>
      <point x="293" y="-10" type="curve" smooth="yes"/>
      <point x="431" y="-10"/>
      <point x="506" y="81"/>
      <point x="506" y="247" type="curve" smooth="yes"/>
      <point x="506" y="351" type="line" smooth="yes"/>
      <point x="506" y="520"/>
      <point x="431" y="610"/>
      <point x="293" y="610" type="curve" smooth="yes"/>
      <point x="152" y="610"/>
      <point x="80" y="517"/>
      <point x="80" y="351" type="curve" smooth="yes"/>
      <point x="80" y="247" type="line" smooth="yes"/>
      <point x="80" y="81"/>
      <point x="152" y="-10"/>
    </contour>
    <contour>
      <point x="293" y="15" type="curve" smooth="yes"/>
      <point x="168" y="15"/>
      <point x="106" y="101"/>
      <point x="106" y="250" type="curve" smooth="yes"/>
      <point x="106" y="348" type="line" smooth="yes"/>
      <point x="106" y="500"/>
      <point x="168" y="585"/>
      <point x="293" y="585" type="curve" smooth="yes"/>
      <point x="418" y="585"/>
      <point x="480" y="500"/>
      <point x="480" y="347" type="curve" smooth="yes"/>
      <point x="480" y="251" type="line" smooth="yes"/>
      <point x="480" y="101"/>
      <point x="418" y="15"/>
    </contour>
    <contour>
      <point x="279" y="596" type="line"/>
      <point x="306" y="596" type="line"/>
      <point x="306" y="760" type="line"/>
      <point x="279" y="760" type="line"/>
    </contour>
  </outline>
</glyph>
<glyph name="oPhr.eth" format="2">
  <advance width="485"/>
  <unicode hex="12D6"/>
  <note>
uni12D6
</note>
  <anchor x="242" y="724" name="top"/>
  <outline>
    <contour>
      <point x="50" y="0" type="curve"/>
      <point x="76" y="0" type="line"/>
      <point x="76" y="181"/>
      <point x="124" y="247"/>
      <point x="260" y="329" type="curve" smooth="yes"/>
      <point x="396" y="411"/>
      <point x="435" y="463"/>
      <point x="435" y="561" type="curve" smooth="yes"/>
      <point x="435" y="665"/>
      <point x="375" y="724"/>
      <point x="277" y="724" type="curve" smooth="yes"/>
      <point x="183" y="724"/>
      <point x="116" y="664"/>
      <point x="116" y="555" type="curve" smooth="yes"/>
      <point x="116" y="451"/>
      <point x="177" y="390"/>
      <point x="269" y="362" type="curve"/>
      <point x="96" y="260"/>
      <point x="50" y="192"/>
    </contour>
    <contour>
      <point x="294" y="378" type="curve"/>
      <point x="195" y="404"/>
      <point x="142" y="467"/>
      <point x="142" y="551" type="curve" smooth="yes"/>
      <point x="142" y="648"/>
      <point x="191" y="699"/>
      <point x="277" y="699" type="curve" smooth="yes"/>
      <point x="360" y="699"/>
      <point x="409" y="649"/>
      <point x="409" y="557" type="curve" smooth="yes"/>
      <point x="409" y="490"/>
      <point x="375" y="433"/>
    </contour>
  </outline>
</glyph>
<glyph name="za.eth" format="2">
  <advance width="524"/>
  <unicode hex="12D8"/>
  <note>
uni12D8
</note>
  <anchor x="262" y="714" name="top"/>
  <outline>
    <contour>
      <point x="100" y="0" type="line"/>
      <point x="126" y="0" type="line"/>
      <point x="126" y="363" type="line"/>
      <point x="398" y="363" type="line"/>
      <point x="398" y="0" type="line"/>
      <point x="424" y="0" type="line"/>
      <point x="424" y="714" type="line"/>
      <point x="398" y="714" type="line"/>
      <point x="398" y="388" type="line"/>
      <point x="126" y="388" type="line"/>
      <point x="126" y="714" type="line"/>
      <point x="100" y="714" type="line"/>
    </contour>
  </outline>
</glyph>
<glyph name="zaa.eth" format="2">
  <advance width="524"/>
  <unicode hex="12DB"/>
  <note>
uni12DB
</note>
  <anchor x="262" y="714" name="top"/>
  <outline>
    <contour>
      <point x="398" y="0" type="line"/>
      <point x="424" y="0" type="line"/>
      <point x="424" y="714" type="line"/>
      <point x="398" y="714" type="line"/>
      <point x="398" y="388" type="line"/>
      <point x="126" y="388" type="line"/>
      <point x="126" y="714" type="line"/>
      <point x="100" y="714" type="line"/>
      <point x="100" y="192" type="line"/>
      <point x="126" y="192" type="line"/>
      <point x="126" y="363" type="line"/>
      <point x="398" y="363" type="line"/>
    </contour>
  </outline>
</glyph>
<glyph name="ze.eth" format="2">
  <advance width="673"/>
  <unicode hex="12DD"/>
  <note>
uni12DD
</note>
  <anchor x="296" y="714" name="top"/>
  <outline>
    <contour>
      <point x="249" y="0" type="line"/>
      <point x="275" y="0" type="line"/>
      <point x="275" y="363" type="line"/>
      <point x="547" y="363" type="line"/>
      <point x="547" y="0" type="line"/>
      <point x="573" y="0" type="line"/>
      <point x="573" y="714" type="line"/>
      <point x="547" y="714" type="line"/>
      <point x="547" y="388" type="line"/>
      <point x="275" y="388" type="line"/>
      <point x="275" y="533" type="line" smooth="yes"/>
      <point x="275" y="662"/>
      <point x="219" y="714"/>
      <point x="114" y="714" type="curve" smooth="yes"/>
      <point x="45" y="714" type="line"/>
      <point x="20" y="616" type="line"/>
      <point x="29" y="616" type="line" smooth="yes"/>
      <point x="53" y="616"/>
      <point x="73" y="643"/>
      <point x="83" y="689" type="curve"/>
      <point x="111" y="689" type="line" smooth="yes"/>
      <point x="203" y="689"/>
      <point x="249" y="651"/>
      <point x="249" y="528" type="curve" smooth="yes"/>
    </contour>
  </outline>
</glyph>
<glyph name="zhaa.eth" format="2">
  <advance width="822"/>
  <unicode hex="12E3"/>
  <note>
uni12E3
</note>
  <anchor x="411" y="714" name="top"/>
  <outline>
    <contour>
      <point x="547" y="0" type="line"/>
      <point x="573" y="0" type="line"/>
      <point x="573" y="528" type="line" smooth="yes"/>
      <point x="573" y="651"/>
      <point x="619" y="689"/>
      <point x="711" y="689" type="curve" smooth="yes"/>
      <point x="739" y="689" type="line"/>
      <point x="749" y="643"/>
      <point x="769" y="616"/>
      <point x="793" y="616" type="curve" smooth="yes"/>
      <point x="802" y="616" type="line"/>
      <point x="777" y="714" type="line"/>
      <point x="708" y="714" type="line" smooth="yes"/>
      <point x="603" y="714"/>
      <point x="547" y="662"/>
      <point x="547" y="533" type="curve" smooth="yes"/>
      <point x="547" y="388" type="line"/>
      <point x="275" y="388" type="line"/>
      <point x="275" y="533" type="line" smooth="yes"/>
      <point x="275" y="662"/>
      <point x="219" y="714"/>
      <point x="114" y="714" type="curve" smooth="yes"/>
      <point x="45" y="714" type="line"/>
      <point x="20" y="616" type="line"/>
      <point x="29" y="616" type="line" smooth="yes"/>
      <point x="53" y="616"/>
      <point x="73" y="643"/>
      <point x="83" y="689" type="curve"/>
      <point x="111" y="689" type="line" smooth="yes"/>
      <point x="203" y="689"/>
      <point x="249" y="651"/>
      <point x="249" y="528" type="curve" smooth="yes"/>
      <point x="249" y="190" type="line"/>
      <point x="275" y="190" type="line"/>
      <point x="275" y="363" type="line"/>
      <point x="547" y="363" type="line"/>
    </contour>
  </outline>
</glyph>
<glyph name="zhe.eth" format="2">
  <advance width="822"/>
  <unicode hex="12E5"/>
  <note>
uni12E5
</note>
  <anchor x="411" y="846" name="top"/>
  <outline>
    <contour>
      <point x="249" y="0" type="line"/>
      <point x="275" y="0" type="line"/>
      <point x="275" y="265" type="line"/>
      <point x="547" y="265" type="line"/>
      <point x="547" y="0" type="line"/>
      <point x="573" y="0" type="line"/>
      <point x="573" y="360" type="line" smooth="yes"/>
      <point x="573" y="483"/>
      <point x="619" y="521"/>
      <point x="711" y="521" type="curve" smooth="yes"/>
      <point x="739" y="521" type="line"/>
      <point x="749" y="475"/>
      <point x="769" y="448"/>
      <point x="793" y="448" type="curve" smooth="yes"/>
      <point x="802" y="448" type="line"/>
      <point x="777" y="546" type="line"/>
      <point x="708" y="546" type="line" smooth="yes"/>
      <point x="603" y="546"/>
      <point x="547" y="494"/>
      <point x="547" y="365" type="curve" smooth="yes"/>
      <point x="547" y="290" type="line"/>
      <point x="275" y="290" type="line"/>
      <point x="275" y="365" type="line" smooth="yes"/>
      <point x="275" y="494"/>
      <point x="219" y="546"/>
      <point x="114" y="546" type="curve" smooth="yes"/>
      <point x="45" y="546" type="line"/>
      <point x="20" y="448" type="line"/>
      <point x="29" y="448" type="line" smooth="yes"/>
      <point x="53" y="448"/>
      <point x="73" y="475"/>
      <point x="83" y="521" type="curve"/>
      <point x="111" y="521" type="line" smooth="yes"/>
      <point x="203" y="521"/>
      <point x="249" y="483"/>
      <point x="249" y="360" type="curve" smooth="yes"/>
    </contour>
    <contour>
      <point x="242" y="466" type="line"/>
      <point x="242" y="764" type="line"/>
      <point x="216" y="764" type="line"/>
      <point x="216" y="492" type="line"/>
    </contour>
    <component base="footshort" xScale="-1" yScale="-1" xOffset="456" yOffset="773"/>
  </outline>
</glyph>
<glyph name="ya.eth" format="2">
  <advance width="428"/>
  <unicode hex="12E8"/>
  <note>
uni12E8
</note>
  <anchor x="219" y="724" name="top"/>
  <outline>
    <contour>
      <point x="212" y="0" type="line"/>
      <point x="237" y="0" type="line"/>
      <point x="237" y="89" type="line" smooth="yes"/>
      <point x="237" y="206"/>
      <point x="219" y="275"/>
      <point x="165" y="369" type="curve"/>
      <point x="287" y="396"/>
      <point x="378" y="454"/>
      <point x="378" y="574" type="curve" smooth="yes"/>
      <point x="378" y="660"/>
      <point x="328" y="724"/>
      <point x="223" y="724" type="curve" smooth="yes"/>
      <point x="115" y="724"/>
      <point x="60" y="657"/>
      <point x="60" y="563" type="curve" smooth="yes"/>
      <point x="60" y="480"/>
      <point x="101" y="432"/>
      <point x="142" y="360" type="curve" smooth="yes"/>
      <point x="195" y="268"/>
      <point x="212" y="190"/>
      <point x="212" y="84" type="curve" smooth="yes"/>
    </contour>
    <contour>
      <point x="154" y="391" type="curve"/>
      <point x="118" y="450"/>
      <point x="85" y="494"/>
      <point x="85" y="565" type="curve" smooth="yes"/>
      <point x="85" y="644"/>
      <point x="133" y="699"/>
      <point x="222" y="699" type="curve" smooth="yes"/>
      <point x="308" y="699"/>
      <point x="352" y="643"/>
      <point x="352" y="574" type="curve" smooth="yes"/>
      <point x="352" y="471"/>
      <point x="272" y="416"/>
    </contour>
  </outline>
</glyph>
<glyph name="yi.eth" format="2">
  <advance width="572"/>
  <unicode hex="12EA"/>
  <note>
uni12EA
</note>
  <anchor x="306" y="724" name="top"/>
  <outline>
    <contour>
      <point x="543" y="52" type="curve" smooth="yes"/>
      <point x="552" y="52" type="line"/>
      <point x="527" y="150" type="line"/>
      <point x="383" y="150" type="line"/>
      <point x="383" y="125" type="line"/>
      <point x="489" y="125" type="line"/>
      <point x="499" y="79"/>
      <point x="519" y="52"/>
    </contour>
    <contour>
      <point x="206" y="212" type="line"/>
      <point x="385" y="212" type="line"/>
      <point x="385" y="237" type="line"/>
      <point x="206" y="237" type="line"/>
    </contour>
    <contour>
      <point x="374" y="125" type="line"/>
      <point x="400" y="125" type="line"/>
      <point x="400" y="324" type="line"/>
      <point x="374" y="324" type="line"/>
    </contour>
    <component base="ya.eth"/>
  </outline>
</glyph>
<glyph name="ye.eth" format="2">
  <advance width="677"/>
  <unicode hex="12ED"/>
  <note>
uni12ED
</note>
  <anchor x="328" y="725" name="top"/>
  <outline>
    <contour>
      <point x="418" y="0" type="curve" smooth="yes"/>
      <point x="541" y="0"/>
      <point x="617" y="78"/>
      <point x="617" y="221" type="curve" smooth="yes"/>
      <point x="617" y="232" type="line"/>
      <point x="591" y="232" type="line"/>
      <point x="591" y="221" type="line" smooth="yes"/>
      <point x="591" y="93"/>
      <point x="524" y="25"/>
      <point x="419" y="25" type="curve" smooth="yes"/>
      <point x="249" y="25"/>
      <point x="149" y="204"/>
      <point x="144" y="420" type="curve"/>
      <point x="351" y="420"/>
      <point x="453" y="469"/>
      <point x="453" y="589" type="curve" smooth="yes"/>
      <point x="453" y="676"/>
      <point x="400" y="725"/>
      <point x="308" y="725" type="curve" smooth="yes"/>
      <point x="188" y="725"/>
      <point x="116" y="643"/>
      <point x="116" y="443" type="curve" smooth="yes"/>
      <point x="116" y="203"/>
      <point x="220" y="0"/>
    </contour>
    <contour>
      <point x="188" y="0" type="line"/>
      <point x="416" y="0" type="line"/>
      <point x="376" y="25" type="line"/>
      <point x="188" y="25" type="line"/>
    </contour>
    <contour>
      <point x="142" y="445" type="curve"/>
      <point x="142" y="457"/>
      <point x="142" y="460"/>
      <point x="142" y="472" type="curve" smooth="yes"/>
      <point x="142" y="620"/>
      <point x="208" y="700"/>
      <point x="310" y="700" type="curve" smooth="yes"/>
      <point x="381" y="700"/>
      <point x="427" y="661"/>
      <point x="427" y="589" type="curve" smooth="yes"/>
      <point x="427" y="479"/>
      <point x="322" y="445"/>
    </contour>
    <component base="leftsingleflag" xOffset="20" yOffset="-363"/>
  </outline>
</glyph>
<glyph name="da.eth" format="2">
  <advance width="534"/>
  <unicode hex="12F0"/>
  <note>
uni12F0
</note>
  <anchor x="267" y="725" name="top"/>
  <outline>
    <contour>
      <point x="278" y="97" type="curve"/>
      <point x="312" y="97" type="line"/>
      <point x="234" y="170"/>
      <point x="178" y="288"/>
      <point x="175" y="420" type="curve"/>
      <point x="384" y="420"/>
      <point x="484" y="469"/>
      <point x="484" y="592" type="curve" smooth="yes"/>
      <point x="484" y="674"/>
      <point x="431" y="725"/>
      <point x="341" y="725" type="curve" smooth="yes"/>
      <point x="219" y="725"/>
      <point x="148" y="633"/>
      <point x="148" y="463" type="curve" smooth="yes"/>
      <point x="148" y="309"/>
      <point x="197" y="180"/>
    </contour>
    <contour>
      <point x="173" y="443" type="curve"/>
      <point x="173" y="452"/>
      <point x="173" y="463"/>
      <point x="173" y="472" type="curve" smooth="yes"/>
      <point x="173" y="620"/>
      <point x="239" y="700"/>
      <point x="341" y="700" type="curve" smooth="yes"/>
      <point x="412" y="700"/>
      <point x="458" y="660"/>
      <point x="458" y="589" type="curve" smooth="yes"/>
      <point x="458" y="479"/>
      <point x="354" y="443"/>
    </contour>
    <component base="footmiddle" yOffset="73"/>
  </outline>
</glyph>
<glyph name="daa.eth" format="2">
  <advance width="734"/>
  <unicode hex="12F3"/>
  <note>
uni12F3
</note>
  <anchor x="329" y="725" name="top"/>
  <outline>
    <contour>
      <point x="485" y="251" type="curve"/>
      <point x="514" y="266" type="line"/>
      <point x="358" y="285"/>
      <point x="232" y="356"/>
      <point x="232" y="528" type="curve" smooth="yes"/>
      <point x="232" y="640"/>
      <point x="288" y="700"/>
      <point x="378" y="700" type="curve" smooth="yes"/>
      <point x="453" y="700"/>
      <point x="496" y="659"/>
      <point x="496" y="596" type="curve" smooth="yes"/>
      <point x="496" y="482"/>
      <point x="393" y="456"/>
      <point x="224" y="455" type="curve"/>
      <point x="225" y="430" type="line"/>
      <point x="421" y="432"/>
      <point x="522" y="471"/>
      <point x="522" y="597" type="curve" smooth="yes"/>
      <point x="522" y="671"/>
      <point x="473" y="725"/>
      <point x="379" y="725" type="curve" smooth="yes"/>
      <point x="269" y="725"/>
      <point x="206" y="650"/>
      <point x="206" y="528" type="curve" smooth="yes"/>
      <point x="206" y="334"/>
      <point x="354" y="260"/>
    </contour>
    <contour>
      <point x="613" y="0" type="line"/>
      <point x="639" y="0" type="line"/>
      <point x="639" y="267" type="line"/>
      <point x="165" y="267" type="line"/>
      <point x="165" y="242" type="line"/>
      <point x="613" y="242" type="line"/>
    </contour>
    <component base="leftsingleflag" yOffset="-121"/>
  </outline>
</glyph>
<glyph name="dee.eth" format="2">
  <advance width="666"/>
  <unicode hex="12F4"/>
  <note>
uni12F4
</note>
  <anchor x="333" y="725" name="top"/>
  <outline>
    <contour>
      <point x="147" y="160" type="line"/>
      <point x="486" y="160" type="line"/>
      <point x="528" y="185" type="line"/>
      <point x="339" y="185" type="line"/>
      <point x="264" y="246"/>
      <point x="207" y="322"/>
      <point x="192" y="425" type="curve"/>
      <point x="401" y="425"/>
      <point x="499" y="474"/>
      <point x="499" y="592" type="curve" smooth="yes"/>
      <point x="499" y="674"/>
      <point x="446" y="725"/>
      <point x="356" y="725" type="curve" smooth="yes"/>
      <point x="234" y="725"/>
      <point x="162" y="640"/>
      <point x="162" y="481" type="curve" smooth="yes"/>
      <point x="162" y="348"/>
      <point x="224" y="254"/>
      <point x="301" y="185" type="curve"/>
      <point x="147" y="185" type="line"/>
    </contour>
    <contour>
      <point x="189" y="450" type="curve"/>
      <point x="188" y="460"/>
      <point x="188" y="470"/>
      <point x="188" y="484" type="curve" smooth="yes"/>
      <point x="188" y="627"/>
      <point x="250" y="700"/>
      <point x="354" y="700" type="curve" smooth="yes"/>
      <point x="425" y="700"/>
      <point x="473" y="660"/>
      <point x="473" y="589" type="curve" smooth="yes"/>
      <point x="473" y="484"/>
      <point x="370" y="450"/>
    </contour>
    <component base="ballsmall" xOffset="379" yOffset="-223"/>
    <component base="leftsingleflag" yOffset="-203"/>
  </outline>
</glyph>
<glyph name="do.eth" format="2">
  <advance width="644"/>
  <unicode hex="12F6"/>
  <note>
uni12F6
</note>
  <anchor x="322" y="725" name="top"/>
  <outline>
    <contour>
      <point x="446" y="251" type="curve"/>
      <point x="475" y="266" type="line"/>
      <point x="319" y="285"/>
      <point x="193" y="356"/>
      <point x="193" y="528" type="curve" smooth="yes"/>
      <point x="193" y="640"/>
      <point x="249" y="700"/>
      <point x="339" y="700" type="curve" smooth="yes"/>
      <point x="414" y="700"/>
      <point x="457" y="659"/>
      <point x="457" y="596" type="curve" smooth="yes"/>
      <point x="457" y="482"/>
      <point x="354" y="456"/>
      <point x="185" y="455" type="curve"/>
      <point x="186" y="430" type="line"/>
      <point x="382" y="432"/>
      <point x="483" y="471"/>
      <point x="483" y="597" type="curve" smooth="yes"/>
      <point x="483" y="671"/>
      <point x="434" y="725"/>
      <point x="340" y="725" type="curve" smooth="yes"/>
      <point x="230" y="725"/>
      <point x="167" y="650"/>
      <point x="167" y="528" type="curve" smooth="yes"/>
      <point x="167" y="334"/>
      <point x="315" y="260"/>
    </contour>
    <contour>
      <point x="20" y="0" type="line"/>
      <point x="47" y="0" type="line"/>
      <point x="47" y="101" type="line" smooth="yes"/>
      <point x="47" y="213"/>
      <point x="91" y="242"/>
      <point x="190" y="242" type="curve" smooth="yes"/>
      <point x="508" y="242" type="line"/>
      <point x="508" y="267" type="line"/>
      <point x="183" y="267" type="line" smooth="yes"/>
      <point x="76" y="267"/>
      <point x="20" y="222"/>
      <point x="20" y="106" type="curve" smooth="yes"/>
    </contour>
    <component base="rightsingleflag" xOffset="361" yOffset="-121"/>
  </outline>
</glyph>
<glyph name="dwa.eth" format="2">
  <advance width="682"/>
  <unicode hex="12F7"/>
  <note>
uni12F7
</note>
  <anchor x="341" y="725" name="top"/>
  <outline>
    <contour>
      <point x="409" y="251" type="curve"/>
      <point x="438" y="266" type="line"/>
      <point x="282" y="285"/>
      <point x="156" y="356"/>
      <point x="156" y="528" type="curve" smooth="yes"/>
      <point x="156" y="640"/>
      <point x="212" y="700"/>
      <point x="302" y="700" type="curve" smooth="yes"/>
      <point x="377" y="700"/>
      <point x="420" y="659"/>
      <point x="420" y="596" type="curve" smooth="yes"/>
      <point x="420" y="482"/>
      <point x="317" y="456"/>
      <point x="148" y="455" type="curve"/>
      <point x="149" y="430" type="line"/>
      <point x="342" y="432"/>
      <point x="446" y="471"/>
      <point x="446" y="597" type="curve" smooth="yes"/>
      <point x="446" y="671"/>
      <point x="397" y="725"/>
      <point x="303" y="725" type="curve" smooth="yes"/>
      <point x="193" y="725"/>
      <point x="130" y="650"/>
      <point x="130" y="528" type="curve" smooth="yes"/>
      <point x="130" y="334"/>
      <point x="278" y="260"/>
    </contour>
    <contour>
      <point x="452" y="0" type="line"/>
      <point x="478" y="0" type="line"/>
      <point x="478" y="267" type="line"/>
      <point x="139" y="267" type="line"/>
      <point x="139" y="242" type="line"/>
      <point x="452" y="242" type="line"/>
    </contour>
    <component base="leftsingleflag" yOffset="-121"/>
    <component base="footright" xOffset="135"/>
  </outline>
</glyph>
<glyph name="dda.eth" format="2">
  <advance width="534"/>
  <unicode hex="12F8"/>
  <note>
uni12F8
</note>
  <anchor x="267" y="762" name="top"/>
  <outline>
    <contour>
      <point x="264" y="95" type="curve"/>
      <point x="301" y="95" type="line"/>
      <point x="246" y="150"/>
      <point x="186" y="222"/>
      <point x="173" y="320" type="curve"/>
      <point x="378" y="320"/>
      <point x="473" y="365"/>
      <point x="473" y="486" type="curve" smooth="yes"/>
      <point x="473" y="567"/>
      <point x="416" y="621"/>
      <point x="328" y="621" type="curve" smooth="yes"/>
      <point x="213" y="621"/>
      <point x="142" y="536"/>
      <point x="142" y="378" type="curve" smooth="yes"/>
      <point x="142" y="233"/>
      <point x="213" y="153"/>
    </contour>
    <contour>
      <point x="169" y="345" type="curve"/>
      <point x="168" y="354"/>
      <point x="167" y="369"/>
      <point x="167" y="378" type="curve" smooth="yes"/>
      <point x="167" y="529"/>
      <point x="231" y="596"/>
      <point x="328" y="596" type="curve" smooth="yes"/>
      <point x="399" y="596"/>
      <point x="447" y="554"/>
      <point x="447" y="485" type="curve" smooth="yes"/>
      <point x="447" y="377"/>
      <point x="356" y="345"/>
    </contour>
    <contour>
      <point x="306" y="607" type="line"/>
      <point x="334" y="607" type="line"/>
      <point x="334" y="762" type="line"/>
      <point x="306" y="762" type="line"/>
    </contour>
    <component base="footmiddle" yOffset="73"/>
  </outline>
</glyph>
<glyph name="ddaa.eth" format="2">
  <advance width="741"/>
  <unicode hex="12FB"/>
  <note>
uni12FB
</note>
  <anchor x="333" y="759" name="top"/>
  <outline>
    <contour>
      <point x="502" y="216" type="curve"/>
      <point x="531" y="231" type="line"/>
      <point x="375" y="250"/>
      <point x="262" y="301"/>
      <point x="262" y="463" type="curve" smooth="yes"/>
      <point x="262" y="553"/>
      <point x="318" y="613"/>
      <point x="408" y="613" type="curve" smooth="yes"/>
      <point x="483" y="613"/>
      <point x="526" y="567"/>
      <point x="526" y="504" type="curve" smooth="yes"/>
      <point x="526" y="402"/>
      <point x="447" y="366"/>
      <point x="274" y="365" type="curve"/>
      <point x="285" y="340" type="line"/>
      <point x="474" y="342"/>
      <point x="552" y="395"/>
      <point x="552" y="505" type="curve" smooth="yes"/>
      <point x="552" y="579"/>
      <point x="503" y="638"/>
      <point x="409" y="638" type="curve" smooth="yes"/>
      <point x="299" y="638"/>
      <point x="236" y="563"/>
      <point x="236" y="463" type="curve" smooth="yes"/>
      <point x="236" y="279"/>
      <point x="371" y="225"/>
    </contour>
    <contour>
      <point x="620" y="0" type="line"/>
      <point x="646" y="0" type="line"/>
      <point x="646" y="232" type="line"/>
      <point x="172" y="232" type="line"/>
      <point x="172" y="207" type="line"/>
      <point x="620" y="207" type="line"/>
    </contour>
    <contour>
      <point x="394" y="626" type="line"/>
      <point x="420" y="626" type="line"/>
      <point x="420" y="759" type="line"/>
      <point x="394" y="759" type="line"/>
    </contour>
    <component base="leftsingleflag" yOffset="-156"/>
  </outline>
</glyph>
<glyph name="ddee.eth" format="2">
  <advance width="665"/>
  <unicode hex="12FC"/>
  <note>
uni12FC
</note>
  <anchor x="332" y="762" name="top"/>
  <outline>
    <contour>
      <point x="294" y="183" type="curve"/>
      <point x="337" y="183" type="line"/>
      <point x="275" y="223"/>
      <point x="225" y="294"/>
      <point x="212" y="350" type="curve"/>
      <point x="408" y="350"/>
      <point x="503" y="393"/>
      <point x="503" y="509" type="curve" smooth="yes"/>
      <point x="503" y="592"/>
      <point x="444" y="642"/>
      <point x="360" y="642" type="curve" smooth="yes"/>
      <point x="248" y="642"/>
      <point x="175" y="571"/>
      <point x="175" y="426" type="curve" smooth="yes"/>
      <point x="175" y="313"/>
      <point x="236" y="229"/>
    </contour>
    <contour>
      <point x="203" y="160" type="line"/>
      <point x="489" y="160" type="line"/>
      <point x="522" y="185" type="line"/>
      <point x="203" y="185" type="line"/>
    </contour>
    <contour>
      <point x="206" y="375" type="curve"/>
      <point x="203" y="389"/>
      <point x="201" y="408"/>
      <point x="201" y="428" type="curve" smooth="yes"/>
      <point x="201" y="556"/>
      <point x="266" y="617"/>
      <point x="358" y="617" type="curve" smooth="yes"/>
      <point x="423" y="617"/>
      <point x="477" y="578"/>
      <point x="477" y="508" type="curve" smooth="yes"/>
      <point x="477" y="400"/>
      <point x="378" y="375"/>
    </contour>
    <contour>
      <point x="348" y="629" type="line"/>
      <point x="375" y="629" type="line"/>
      <point x="375" y="762" type="line"/>
      <point x="348" y="762" type="line"/>
    </contour>
    <component base="ballsmall" xOffset="378" yOffset="-223"/>
    <component base="leftsingleflag" yOffset="-203"/>
  </outline>
</glyph>
<glyph name="ddo.eth" format="2">
  <advance width="644"/>
  <unicode hex="12FE"/>
  <note>
uni12FE
</note>
  <anchor x="322" y="762" name="top"/>
  <outline>
    <contour>
      <point x="446" y="154" type="curve"/>
      <point x="475" y="169" type="line"/>
      <point x="319" y="188"/>
      <point x="193" y="259"/>
      <point x="193" y="431" type="curve" smooth="yes"/>
      <point x="193" y="543"/>
      <point x="249" y="603"/>
      <point x="339" y="603" type="curve" smooth="yes"/>
      <point x="414" y="603"/>
      <point x="457" y="562"/>
      <point x="457" y="499" type="curve" smooth="yes"/>
      <point x="457" y="385"/>
      <point x="354" y="359"/>
      <point x="185" y="358" type="curve"/>
      <point x="186" y="333" type="line"/>
      <point x="382" y="335"/>
      <point x="483" y="374"/>
      <point x="483" y="500" type="curve" smooth="yes"/>
      <point x="483" y="574"/>
      <point x="434" y="628"/>
      <point x="340" y="628" type="curve" smooth="yes"/>
      <point x="230" y="628"/>
      <point x="167" y="553"/>
      <point x="167" y="431" type="curve" smooth="yes"/>
      <point x="167" y="237"/>
      <point x="315" y="163"/>
    </contour>
    <contour>
      <point x="20" y="0" type="line"/>
      <point x="47" y="0" type="line"/>
      <point x="47" y="4" type="line" smooth="yes"/>
      <point x="47" y="116"/>
      <point x="91" y="145"/>
      <point x="190" y="145" type="curve" smooth="yes"/>
      <point x="508" y="145" type="line"/>
      <point x="508" y="170" type="line"/>
      <point x="183" y="170" type="line" smooth="yes"/>
      <point x="76" y="170"/>
      <point x="20" y="125"/>
      <point x="20" y="9" type="curve" smooth="yes"/>
    </contour>
    <contour>
      <point x="319" y="607" type="line"/>
      <point x="347" y="607" type="line"/>
      <point x="347" y="762" type="line"/>
      <point x="319" y="762" type="line"/>
    </contour>
    <component base="rightsingleflag" xOffset="361" yOffset="-218"/>
  </outline>
</glyph>
<glyph name="ddwa.eth" format="2">
  <advance width="729"/>
  <unicode hex="12FF"/>
  <note>
uni12FF
</note>
  <anchor x="364" y="759" name="top"/>
  <outline>
    <contour>
      <point x="446" y="216" type="curve"/>
      <point x="475" y="231" type="line"/>
      <point x="319" y="250"/>
      <point x="206" y="301"/>
      <point x="206" y="463" type="curve" smooth="yes"/>
      <point x="206" y="553"/>
      <point x="262" y="613"/>
      <point x="352" y="613" type="curve" smooth="yes"/>
      <point x="427" y="613"/>
      <point x="470" y="567"/>
      <point x="470" y="504" type="curve" smooth="yes"/>
      <point x="470" y="402"/>
      <point x="391" y="366"/>
      <point x="218" y="365" type="curve"/>
      <point x="229" y="340" type="line"/>
      <point x="418" y="342"/>
      <point x="496" y="395"/>
      <point x="496" y="505" type="curve" smooth="yes"/>
      <point x="496" y="579"/>
      <point x="447" y="638"/>
      <point x="353" y="638" type="curve" smooth="yes"/>
      <point x="243" y="638"/>
      <point x="180" y="563"/>
      <point x="180" y="463" type="curve" smooth="yes"/>
      <point x="180" y="279"/>
      <point x="315" y="225"/>
    </contour>
    <contour>
      <point x="501" y="0" type="line"/>
      <point x="527" y="0" type="line"/>
      <point x="527" y="232" type="line"/>
      <point x="172" y="232" type="line"/>
      <point x="172" y="207" type="line"/>
      <point x="501" y="207" type="line"/>
    </contour>
    <contour>
      <point x="338" y="626" type="line"/>
      <point x="364" y="626" type="line"/>
      <point x="364" y="759" type="line"/>
      <point x="338" y="759" type="line"/>
    </contour>
    <component base="footright" xOffset="182"/>
    <component base="leftsingleflag" yOffset="-156"/>
  </outline>
</glyph>
<glyph name="ja.eth" format="2">
  <advance width="544"/>
  <unicode hex="1300"/>
  <note>
uni1300
</note>
  <anchor x="272" y="794" name="top"/>
  <outline>
    <contour>
      <point x="239" y="96" type="curve"/>
      <point x="276" y="96" type="line"/>
      <point x="223" y="138"/>
      <point x="173" y="206"/>
      <point x="146" y="293" type="curve"/>
      <point x="351" y="293"/>
      <point x="442" y="338"/>
      <point x="442" y="452" type="curve" smooth="yes"/>
      <point x="442" y="527"/>
      <point x="385" y="581"/>
      <point x="297" y="581" type="curve" smooth="yes"/>
      <point x="182" y="581"/>
      <point x="111" y="496"/>
      <point x="111" y="371" type="curve" smooth="yes"/>
      <point x="111" y="228"/>
      <point x="199" y="135"/>
    </contour>
    <contour>
      <point x="141" y="318" type="curve"/>
      <point x="138" y="331"/>
      <point x="136" y="344"/>
      <point x="136" y="371" type="curve" smooth="yes"/>
      <point x="136" y="489"/>
      <point x="200" y="556"/>
      <point x="297" y="556" type="curve" smooth="yes"/>
      <point x="368" y="556"/>
      <point x="416" y="514"/>
      <point x="416" y="451" type="curve" smooth="yes"/>
      <point x="416" y="350"/>
      <point x="328" y="318"/>
    </contour>
    <contour>
      <point x="258" y="567" type="line"/>
      <point x="286" y="567" type="line"/>
      <point x="286" y="711" type="line"/>
      <point x="258" y="711" type="line"/>
    </contour>
    <component base="footmiddle" yOffset="73"/>
    <component base="bonemiddle" yOffset="-52"/>
  </outline>
</glyph>
<glyph name="jaa.eth" format="2">
  <advance width="677"/>
  <unicode hex="1303"/>
  <note>
uni1303
</note>
  <anchor x="328" y="790" name="top"/>
  <outline>
    <contour>
      <point x="467" y="182" type="curve"/>
      <point x="496" y="197" type="line"/>
      <point x="340" y="216"/>
      <point x="227" y="275"/>
      <point x="227" y="429" type="curve" smooth="yes"/>
      <point x="227" y="523"/>
      <point x="283" y="579"/>
      <point x="373" y="579" type="curve" smooth="yes"/>
      <point x="448" y="579"/>
      <point x="491" y="533"/>
      <point x="491" y="470" type="curve" smooth="yes"/>
      <point x="491" y="368"/>
      <point x="412" y="332"/>
      <point x="239" y="331" type="curve"/>
      <point x="250" y="306" type="line"/>
      <point x="439" y="308"/>
      <point x="517" y="361"/>
      <point x="517" y="471" type="curve" smooth="yes"/>
      <point x="517" y="545"/>
      <point x="468" y="604"/>
      <point x="374" y="604" type="curve" smooth="yes"/>
      <point x="264" y="604"/>
      <point x="201" y="533"/>
      <point x="201" y="429" type="curve" smooth="yes"/>
      <point x="201" y="253"/>
      <point x="336" y="191"/>
    </contour>
    <contour>
      <point x="585" y="0" type="line"/>
      <point x="611" y="0" type="line"/>
      <point x="611" y="198" type="line"/>
      <point x="137" y="198" type="line"/>
      <point x="137" y="173" type="line"/>
      <point x="585" y="173" type="line"/>
    </contour>
    <contour>
      <point x="359" y="592" type="line"/>
      <point x="385" y="592" type="line"/>
      <point x="385" y="710" type="line"/>
      <point x="359" y="710" type="line"/>
    </contour>
    <component base="leftsingleflag" yOffset="-190"/>
    <component base="bonelong" xOffset="52" yOffset="-56"/>
  </outline>
</glyph>
<glyph name="jee.eth" format="2">
  <advance width="746"/>
  <unicode hex="1304"/>
  <note>
uni1304
</note>
  <anchor x="373" y="789" name="top"/>
  <outline>
    <contour>
      <point x="500" y="181" type="curve"/>
      <point x="529" y="196" type="line"/>
      <point x="373" y="215"/>
      <point x="260" y="274"/>
      <point x="260" y="428" type="curve" smooth="yes"/>
      <point x="260" y="522"/>
      <point x="316" y="578"/>
      <point x="406" y="578" type="curve" smooth="yes"/>
      <point x="481" y="578"/>
      <point x="524" y="532"/>
      <point x="524" y="469" type="curve" smooth="yes"/>
      <point x="524" y="367"/>
      <point x="445" y="331"/>
      <point x="272" y="330" type="curve"/>
      <point x="283" y="305" type="line"/>
      <point x="472" y="307"/>
      <point x="550" y="360"/>
      <point x="550" y="470" type="curve" smooth="yes"/>
      <point x="550" y="544"/>
      <point x="501" y="603"/>
      <point x="407" y="603" type="curve" smooth="yes"/>
      <point x="297" y="603"/>
      <point x="234" y="532"/>
      <point x="234" y="428" type="curve" smooth="yes"/>
      <point x="234" y="252"/>
      <point x="369" y="190"/>
    </contour>
    <contour>
      <point x="170" y="172" type="line"/>
      <point x="565" y="172" type="line"/>
      <point x="605" y="197" type="line"/>
      <point x="170" y="197" type="line"/>
    </contour>
    <contour>
      <point x="392" y="591" type="line"/>
      <point x="418" y="591" type="line"/>
      <point x="418" y="709" type="line"/>
      <point x="392" y="709" type="line"/>
    </contour>
    <component base="ballsmall" xOffset="459" yOffset="-211"/>
    <component base="leftsingleflag" yOffset="-191"/>
    <component base="bonelong" xOffset="95" yOffset="-57"/>
  </outline>
</glyph>
<glyph name="jo.eth" format="2">
  <advance width="645"/>
  <unicode hex="1306"/>
  <note>
uni1306
</note>
  <anchor x="322" y="790" name="top"/>
  <outline>
    <contour>
      <point x="440" y="182" type="curve"/>
      <point x="469" y="197" type="line"/>
      <point x="313" y="216"/>
      <point x="200" y="275"/>
      <point x="200" y="429" type="curve" smooth="yes"/>
      <point x="200" y="523"/>
      <point x="256" y="579"/>
      <point x="346" y="579" type="curve" smooth="yes"/>
      <point x="421" y="579"/>
      <point x="464" y="533"/>
      <point x="464" y="470" type="curve" smooth="yes"/>
      <point x="464" y="368"/>
      <point x="385" y="332"/>
      <point x="212" y="331" type="curve"/>
      <point x="223" y="306" type="line"/>
      <point x="412" y="308"/>
      <point x="490" y="361"/>
      <point x="490" y="471" type="curve" smooth="yes"/>
      <point x="490" y="545"/>
      <point x="441" y="604"/>
      <point x="347" y="604" type="curve" smooth="yes"/>
      <point x="237" y="604"/>
      <point x="174" y="533"/>
      <point x="174" y="429" type="curve" smooth="yes"/>
      <point x="174" y="253"/>
      <point x="309" y="191"/>
    </contour>
    <contour>
      <point x="20" y="0" type="line"/>
      <point x="47" y="0" type="line"/>
      <point x="47" y="31" type="line" smooth="yes"/>
      <point x="47" y="143"/>
      <point x="91" y="172"/>
      <point x="190" y="172" type="curve" smooth="yes"/>
      <point x="508" y="172" type="line"/>
      <point x="508" y="197" type="line"/>
      <point x="183" y="197" type="line" smooth="yes"/>
      <point x="76" y="197"/>
      <point x="20" y="152"/>
      <point x="20" y="36" type="curve" smooth="yes"/>
    </contour>
    <contour>
      <point x="332" y="592" type="line"/>
      <point x="358" y="592" type="line"/>
      <point x="358" y="710" type="line"/>
      <point x="332" y="710" type="line"/>
    </contour>
    <component base="bonelong" xOffset="40" yOffset="-56"/>
    <component base="rightsingleflag" xOffset="361" yOffset="-191"/>
  </outline>
</glyph>
<glyph name="jwa.eth" format="2">
  <advance width="846"/>
  <unicode hex="1307"/>
  <note>
uni1307
</note>
  <anchor x="423" y="790" name="top"/>
  <outline>
    <contour>
      <point x="500" y="182" type="curve"/>
      <point x="529" y="197" type="line"/>
      <point x="373" y="216"/>
      <point x="260" y="275"/>
      <point x="260" y="429" type="curve" smooth="yes"/>
      <point x="260" y="523"/>
      <point x="316" y="579"/>
      <point x="406" y="579" type="curve" smooth="yes"/>
      <point x="481" y="579"/>
      <point x="524" y="533"/>
      <point x="524" y="470" type="curve" smooth="yes"/>
      <point x="524" y="368"/>
      <point x="445" y="332"/>
      <point x="272" y="331" type="curve"/>
      <point x="283" y="306" type="line"/>
      <point x="472" y="308"/>
      <point x="550" y="361"/>
      <point x="550" y="471" type="curve" smooth="yes"/>
      <point x="550" y="545"/>
      <point x="501" y="604"/>
      <point x="407" y="604" type="curve" smooth="yes"/>
      <point x="297" y="604"/>
      <point x="234" y="533"/>
      <point x="234" y="429" type="curve" smooth="yes"/>
      <point x="234" y="253"/>
      <point x="369" y="191"/>
    </contour>
    <contour>
      <point x="578" y="0" type="line"/>
      <point x="604" y="0" type="line"/>
      <point x="604" y="198" type="line"/>
      <point x="170" y="198" type="line"/>
      <point x="170" y="173" type="line"/>
      <point x="578" y="173" type="line"/>
    </contour>
    <contour>
      <point x="392" y="592" type="line"/>
      <point x="418" y="592" type="line"/>
      <point x="418" y="710" type="line"/>
      <point x="392" y="710" type="line"/>
    </contour>
    <component base="footright" xOffset="299"/>
    <component base="leftsingleflag" yOffset="-190"/>
    <component base="bonelong" xOffset="105" yOffset="-56"/>
  </outline>
</glyph>
<glyph name="ga.eth" format="2">
	<advance width="553"/>
	<unicode hex="1308"/>
	<anchor x="239" y="714" name="top"/>
	<note>
		uni1308
	</note>
	<outline>
		<contour>
			<point x="432" y="0" type="line"/>
			<point x="458" y="0" type="line"/>
			<point x="458" y="408" type="line" smooth="yes"/>
			<point x="458" y="639"/>
			<point x="360" y="714"/>
			<point x="107" y="714" type="curve" smooth="yes"/>
			<point x="45" y="714" type="line"/>
			<point x="20" y="616" type="line"/>
			<point x="29" y="616" type="line" smooth="yes"/>
			<point x="56" y="616"/>
			<point x="75" y="650"/>
			<point x="83" y="689" type="curve"/>
			<point x="104" y="689" type="line" smooth="yes"/>
			<point x="344" y="689"/>
			<point x="432" y="622"/>
			<point x="432" y="402" type="curve" smooth="yes"/>
		</contour>
	</outline>
</glyph>
<glyph name="gaa.eth" format="2">
  <advance width="567"/>
  <unicode hex="130B"/>
  <note>
uni130B
</note>
  <anchor x="246" y="714" name="top"/>
  <outline>
    <contour>
      <point x="20" y="-73" type="line"/>
      <point x="29" y="-73" type="line" smooth="yes"/>
      <point x="53" y="-73"/>
      <point x="73" y="-46"/>
      <point x="83" y="0" type="curve"/>
      <point x="245" y="0" type="line" smooth="yes"/>
      <point x="400" y="0"/>
      <point x="472" y="67"/>
      <point x="472" y="214" type="curve" smooth="yes"/>
      <point x="472" y="408" type="line" smooth="yes"/>
      <point x="472" y="639"/>
      <point x="374" y="714"/>
      <point x="121" y="714" type="curve" smooth="yes"/>
      <point x="60" y="714" type="line"/>
      <point x="35" y="616" type="line"/>
      <point x="44" y="616" type="line" smooth="yes"/>
      <point x="71" y="616"/>
      <point x="90" y="650"/>
      <point x="98" y="689" type="curve"/>
      <point x="118" y="689" type="line" smooth="yes"/>
      <point x="358" y="689"/>
      <point x="446" y="622"/>
      <point x="446" y="402" type="curve" smooth="yes"/>
      <point x="446" y="219" type="line" smooth="yes"/>
      <point x="446" y="80"/>
      <point x="388" y="25"/>
      <point x="243" y="25" type="curve" smooth="yes"/>
      <point x="45" y="25" type="line"/>
    </contour>
  </outline>
</glyph>
<glyph name="ge.eth" format="2">
  <advance width="732"/>
  <unicode hex="130D"/>
  <note>
uni130D
</note>
  <anchor x="328" y="714" name="top"/>
  <outline>
    <contour>
      <point x="611" y="0" type="line"/>
      <point x="637" y="0" type="line"/>
      <point x="637" y="408" type="line" smooth="yes"/>
      <point x="637" y="639"/>
      <point x="539" y="714"/>
      <point x="286" y="714" type="curve" smooth="yes"/>
      <point x="171" y="714" type="line"/>
      <point x="232" y="689" type="line"/>
      <point x="283" y="689" type="line" smooth="yes"/>
      <point x="523" y="689"/>
      <point x="611" y="622"/>
      <point x="611" y="402" type="curve" smooth="yes"/>
    </contour>
    <component base="ballbig" yOffset="291"/>
  </outline>
</glyph>
<glyph name="go.eth" format="2">
  <advance width="553"/>
  <unicode hex="130E"/>
  <note>
uni130E
</note>
  <anchor x="239" y="762" name="top"/>
  <outline>
    <contour>
      <point x="432" y="0" type="line"/>
      <point x="458" y="0" type="line"/>
      <point x="458" y="303" type="line" smooth="yes"/>
      <point x="458" y="534"/>
      <point x="360" y="609"/>
      <point x="107" y="609" type="curve" smooth="yes"/>
      <point x="45" y="609" type="line"/>
      <point x="20" y="511" type="line"/>
      <point x="29" y="511" type="line" smooth="yes"/>
      <point x="56" y="511"/>
      <point x="75" y="545"/>
      <point x="83" y="584" type="curve"/>
      <point x="104" y="584" type="line" smooth="yes"/>
      <point x="344" y="584"/>
      <point x="432" y="517"/>
      <point x="432" y="297" type="curve" smooth="yes"/>
    </contour>
    <contour>
      <point x="224" y="587" type="line"/>
      <point x="251" y="587" type="line"/>
      <point x="251" y="762" type="line"/>
      <point x="224" y="762" type="line"/>
    </contour>
  </outline>
</glyph>
<glyph name="goa.eth" format="2">
	<advance width="583"/>
	<unicode hex="130F"/>
	<anchor x="269" y="762" name="top"/>
	<note>
		uni130F
	</note>
	<outline>
		<contour>
			<point x="271" y="0" type="line"/>
			<point x="472" y="0" type="line"/>
			<point x="472" y="25" type="line"/>
			<point x="271" y="25" type="line"/>
		</contour>
		<component base="go.eth" xOffset="30"/>
		<component base="leftdoubleflag" xOffset="45"/>
	</outline>
</glyph>
<glyph name="gwi.eth" format="2">
  <advance width="808"/>
  <unicode hex="1312"/>
  <note>
uni1312
</note>
  <anchor x="404" y="714" name="top"/>
  <outline>
    <contour>
      <point x="779" y="271" type="curve" smooth="yes"/>
      <point x="788" y="271" type="line"/>
      <point x="763" y="369" type="line"/>
      <point x="619" y="369" type="line"/>
      <point x="619" y="344" type="line"/>
      <point x="725" y="344" type="line"/>
      <point x="735" y="298"/>
      <point x="755" y="271"/>
    </contour>
    <contour>
      <point x="442" y="431" type="line"/>
      <point x="621" y="431" type="line"/>
      <point x="621" y="456" type="line"/>
      <point x="442" y="456" type="line"/>
    </contour>
    <contour>
      <point x="610" y="344" type="line"/>
      <point x="636" y="344" type="line"/>
      <point x="636" y="543" type="line"/>
      <point x="610" y="543" type="line"/>
    </contour>
    <component base="ga.eth"/>
  </outline>
</glyph>
<glyph name="gwaa.eth" format="2">
  <advance width="553"/>
  <unicode hex="1313"/>
  <note>
uni1313
</note>
  <anchor x="239" y="714" name="top"/>
  <outline>
    <contour>
      <point x="432" y="0" type="line"/>
      <point x="458" y="0" type="line"/>
      <point x="458" y="143" type="line" smooth="yes"/>
      <point x="458" y="374"/>
      <point x="360" y="449"/>
      <point x="107" y="449" type="curve" smooth="yes"/>
      <point x="45" y="449" type="line"/>
      <point x="20" y="351" type="line"/>
      <point x="29" y="351" type="line" smooth="yes"/>
      <point x="56" y="351"/>
      <point x="75" y="385"/>
      <point x="83" y="424" type="curve"/>
      <point x="100" y="424" type="line" smooth="yes"/>
      <point x="340" y="424"/>
      <point x="432" y="357"/>
      <point x="432" y="137" type="curve" smooth="yes"/>
    </contour>
    <contour>
      <point x="282" y="409" type="line"/>
      <point x="308" y="409" type="line"/>
      <point x="308" y="508" type="line" smooth="yes"/>
      <point x="308" y="669"/>
      <point x="230" y="714"/>
      <point x="107" y="714" type="curve" smooth="yes"/>
      <point x="45" y="714" type="line"/>
      <point x="20" y="616" type="line"/>
      <point x="29" y="616" type="line" smooth="yes"/>
      <point x="56" y="616"/>
      <point x="75" y="650"/>
      <point x="83" y="689" type="curve"/>
      <point x="100" y="689" type="line" smooth="yes"/>
      <point x="210" y="689"/>
      <point x="282" y="652"/>
      <point x="282" y="502" type="curve" smooth="yes"/>
    </contour>
  </outline>
</glyph>
<glyph name="gwee.eth" format="2">
  <advance width="730"/>
  <unicode hex="1314"/>
  <note>
uni1314
</note>
  <anchor x="365" y="714" name="top"/>
  <outline>
    <contour>
      <point x="241" y="0" type="line"/>
      <point x="462" y="0" type="line"/>
      <point x="462" y="25" type="line"/>
      <point x="241" y="25" type="line"/>
    </contour>
    <component base="ga.eth"/>
    <component base="leftsingleflag" xOffset="9" yOffset="-363"/>
    <component base="baselinebowl" xOffset="382"/>
  </outline>
</glyph>
<glyph name="gwe.eth" format="2">
  <advance width="811"/>
  <unicode hex="1315"/>
  <note>
uni1315
</note>
  <anchor x="405" y="714" name="top"/>
  <outline>
    <contour>
      <point x="593" y="393" type="line"/>
      <point x="619" y="393" type="line"/>
      <point x="619" y="572" type="line"/>
      <point x="593" y="572" type="line"/>
    </contour>
    <contour>
      <point x="436" y="393" type="line"/>
      <point x="615" y="393" type="line"/>
      <point x="615" y="418" type="line"/>
      <point x="436" y="418" type="line"/>
    </contour>
    <component base="ga.eth"/>
    <component base="rightsingleflag" xOffset="528" yOffset="30"/>
  </outline>
</glyph>
<glyph name="gga.eth" format="2">
  <advance width="553"/>
  <unicode hex="1318"/>
  <note>
uni1318
</note>
  <anchor x="239" y="787" name="top"/>
  <outline>
    <contour>
      <point x="432" y="0" type="line"/>
      <point x="458" y="0" type="line"/>
      <point x="458" y="205" type="line" smooth="yes"/>
      <point x="458" y="436"/>
      <point x="360" y="511"/>
      <point x="107" y="511" type="curve" smooth="yes"/>
      <point x="45" y="511" type="line"/>
      <point x="20" y="413" type="line"/>
      <point x="29" y="413" type="line" smooth="yes"/>
      <point x="56" y="413"/>
      <point x="75" y="447"/>
      <point x="83" y="486" type="curve"/>
      <point x="104" y="486" type="line" smooth="yes"/>
      <point x="344" y="486"/>
      <point x="432" y="419"/>
      <point x="432" y="199" type="curve" smooth="yes"/>
    </contour>
    <contour>
      <point x="224" y="487" type="line"/>
      <point x="251" y="487" type="line"/>
      <point x="251" y="699" type="line"/>
      <point x="224" y="699" type="line"/>
    </contour>
    <component base="bone" xOffset="1" yOffset="-59"/>
  </outline>
</glyph>
<glyph name="ggaa.eth" format="2">
  <advance width="567"/>
  <unicode hex="131B"/>
  <note>
uni131B
</note>
  <anchor x="246" y="787" name="top"/>
  <outline>
    <contour>
      <point x="20" y="-73" type="line"/>
      <point x="29" y="-73" type="line" smooth="yes"/>
      <point x="53" y="-73"/>
      <point x="73" y="-46"/>
      <point x="83" y="0" type="curve"/>
      <point x="245" y="0" type="line" smooth="yes"/>
      <point x="400" y="0"/>
      <point x="472" y="67"/>
      <point x="472" y="214" type="curve" smooth="yes"/>
      <point x="472" y="238" type="line" smooth="yes"/>
      <point x="472" y="454"/>
      <point x="374" y="524"/>
      <point x="121" y="524" type="curve" smooth="yes"/>
      <point x="60" y="524" type="line"/>
      <point x="40" y="426" type="line"/>
      <point x="49" y="426" type="line" smooth="yes"/>
      <point x="76" y="426"/>
      <point x="94" y="460"/>
      <point x="102" y="499" type="curve"/>
      <point x="118" y="499" type="line" smooth="yes"/>
      <point x="358" y="499"/>
      <point x="446" y="437"/>
      <point x="446" y="232" type="curve" smooth="yes"/>
      <point x="446" y="219" type="line" smooth="yes"/>
      <point x="446" y="80"/>
      <point x="388" y="25"/>
      <point x="243" y="25" type="curve" smooth="yes"/>
      <point x="45" y="25" type="line"/>
    </contour>
    <contour>
      <point x="238" y="500" type="line"/>
      <point x="265" y="500" type="line"/>
      <point x="265" y="699" type="line"/>
      <point x="238" y="699" type="line"/>
    </contour>
    <component base="bone" xOffset="12" yOffset="-59"/>
  </outline>
</glyph>
<glyph name="gge.eth" format="2">
  <advance width="743"/>
  <unicode hex="131D"/>
  <note>
uni131D
</note>
  <anchor x="334" y="787" name="top"/>
  <outline>
    <contour>
      <point x="622" y="0" type="line"/>
      <point x="648" y="0" type="line"/>
      <point x="648" y="216" type="line" smooth="yes"/>
      <point x="648" y="447"/>
      <point x="550" y="522"/>
      <point x="297" y="522" type="curve" smooth="yes"/>
      <point x="182" y="522" type="line"/>
      <point x="243" y="497" type="line"/>
      <point x="294" y="497" type="line" smooth="yes"/>
      <point x="534" y="497"/>
      <point x="622" y="430"/>
      <point x="622" y="210" type="curve" smooth="yes"/>
    </contour>
    <contour>
      <point x="266" y="504" type="line"/>
      <point x="293" y="504" type="line"/>
      <point x="293" y="699" type="line"/>
      <point x="266" y="699" type="line"/>
    </contour>
    <component base="bonemiddle" yOffset="-59"/>
    <component base="ballbig" xOffset="11" yOffset="99"/>
  </outline>
</glyph>
<glyph name="ggo.eth" format="2">
  <advance width="605"/>
  <unicode hex="131E"/>
  <note>
uni131E
</note>
  <anchor x="302" y="846" name="top"/>
  <outline>
    <contour>
      <point x="498" y="0" type="line"/>
      <point x="524" y="0" type="line"/>
      <point x="524" y="157" type="line" smooth="yes"/>
      <point x="524" y="388"/>
      <point x="426" y="463"/>
      <point x="173" y="463" type="curve" smooth="yes"/>
      <point x="111" y="463" type="line"/>
      <point x="86" y="365" type="line"/>
      <point x="95" y="365" type="line" smooth="yes"/>
      <point x="122" y="365"/>
      <point x="141" y="399"/>
      <point x="149" y="438" type="curve"/>
      <point x="170" y="438" type="line" smooth="yes"/>
      <point x="410" y="438"/>
      <point x="498" y="371"/>
      <point x="498" y="151" type="curve" smooth="yes"/>
    </contour>
    <contour>
      <point x="293" y="434" type="line"/>
      <point x="320" y="434" type="line"/>
      <point x="320" y="455" type="line" smooth="yes"/>
      <point x="320" y="482"/>
      <point x="324" y="505"/>
      <point x="353" y="526" type="curve" smooth="yes"/>
      <point x="404" y="563"/>
      <point x="432" y="595"/>
      <point x="432" y="657" type="curve" smooth="yes"/>
      <point x="432" y="725"/>
      <point x="386" y="773"/>
      <point x="311" y="773" type="curve" smooth="yes"/>
      <point x="238" y="773"/>
      <point x="187" y="725"/>
      <point x="187" y="652" type="curve" smooth="yes"/>
      <point x="187" y="571"/>
      <point x="239" y="537"/>
      <point x="314" y="523" type="curve"/>
      <point x="298" y="507"/>
      <point x="293" y="485"/>
      <point x="293" y="455" type="curve" smooth="yes"/>
    </contour>
    <contour>
      <point x="336" y="545" type="curve"/>
      <point x="264" y="554"/>
      <point x="213" y="584"/>
      <point x="213" y="652" type="curve" smooth="yes"/>
      <point x="213" y="715"/>
      <point x="257" y="748"/>
      <point x="310" y="748" type="curve" smooth="yes"/>
      <point x="368" y="748"/>
      <point x="406" y="712"/>
      <point x="406" y="657" type="curve" smooth="yes"/>
      <point x="406" y="600"/>
      <point x="376" y="575"/>
    </contour>
    <component base="bonelong"/>
  </outline>
</glyph>
<glyph name="thaa.eth" format="2">
  <advance width="930"/>
  <unicode hex="1323"/>
  <note>
uni1323
</note>
  <anchor x="460" y="714" name="top"/>
  <outline>
    <contour>
      <point x="809" y="0" type="line"/>
      <point x="835" y="0" type="line"/>
      <point x="835" y="490" type="line" smooth="yes"/>
      <point x="835" y="653"/>
      <point x="760" y="714"/>
      <point x="645" y="714" type="curve" smooth="yes"/>
      <point x="558" y="714"/>
      <point x="507" y="677"/>
      <point x="473" y="643" type="curve"/>
      <point x="473" y="714" type="line"/>
      <point x="400" y="714" type="line" smooth="yes"/>
      <point x="182" y="714"/>
      <point x="85" y="594"/>
      <point x="85" y="366" type="curve" smooth="yes"/>
      <point x="85" y="259" type="line"/>
      <point x="111" y="259" type="line"/>
      <point x="111" y="361" type="line" smooth="yes"/>
      <point x="111" y="578"/>
      <point x="199" y="689"/>
      <point x="403" y="689" type="curve" smooth="yes"/>
      <point x="420" y="689"/>
      <point x="432" y="689"/>
      <point x="447" y="689" type="curve"/>
      <point x="447" y="259" type="line"/>
      <point x="473" y="259" type="line"/>
      <point x="473" y="611" type="line"/>
      <point x="504" y="648"/>
      <point x="565" y="688"/>
      <point x="640" y="688" type="curve" smooth="yes"/>
      <point x="750" y="688"/>
      <point x="809" y="632"/>
      <point x="809" y="479" type="curve" smooth="yes"/>
    </contour>
  </outline>
</glyph>
<glyph name="the.eth" format="2">
  <advance width="967"/>
  <unicode hex="1325"/>
  <note>
uni1325
</note>
  <anchor x="478" y="714" name="top"/>
  <outline>
    <contour>
      <point x="543" y="0" type="line"/>
      <point x="569" y="0" type="line"/>
      <point x="569" y="426" type="line"/>
      <point x="457" y="426" type="line"/>
      <point x="457" y="599" type="line"/>
      <point x="488" y="636"/>
      <point x="550" y="688"/>
      <point x="652" y="688" type="curve" smooth="yes"/>
      <point x="784" y="688"/>
      <point x="846" y="619"/>
      <point x="846" y="466" type="curve" smooth="yes"/>
      <point x="846" y="261" type="line"/>
      <point x="872" y="261" type="line"/>
      <point x="872" y="477" type="line" smooth="yes"/>
      <point x="872" y="640"/>
      <point x="794" y="714"/>
      <point x="657" y="714" type="curve" smooth="yes"/>
      <point x="543" y="714"/>
      <point x="491" y="665"/>
      <point x="457" y="631" type="curve"/>
      <point x="457" y="714" type="line"/>
      <point x="387" y="714" type="line" smooth="yes"/>
      <point x="177" y="714"/>
      <point x="85" y="594"/>
      <point x="85" y="366" type="curve" smooth="yes"/>
      <point x="85" y="261" type="line"/>
      <point x="111" y="261" type="line"/>
      <point x="111" y="361" type="line" smooth="yes"/>
      <point x="111" y="578"/>
      <point x="194" y="689"/>
      <point x="390" y="689" type="curve" smooth="yes"/>
      <point x="404" y="689"/>
      <point x="416" y="689"/>
      <point x="431" y="689" type="curve"/>
      <point x="431" y="401" type="line"/>
      <point x="543" y="401" type="line"/>
    </contour>
  </outline>
</glyph>
<glyph name="che.eth" format="2">
  <advance width="1142"/>
  <unicode hex="132D"/>
  <note>
uni132D
</note>
  <anchor x="603" y="714" name="top"/>
  <outline>
    <contour>
      <point x="85" y="257" type="line"/>
      <point x="111" y="257" type="line"/>
      <point x="111" y="361" type="line" smooth="yes"/>
      <point x="111" y="578"/>
      <point x="199" y="689"/>
      <point x="413" y="689" type="curve" smooth="yes"/>
      <point x="435" y="689"/>
      <point x="447" y="689"/>
      <point x="462" y="689" type="curve"/>
      <point x="462" y="401" type="line"/>
      <point x="488" y="401" type="line"/>
      <point x="488" y="611" type="line"/>
      <point x="523" y="648"/>
      <point x="591" y="688"/>
      <point x="683" y="688" type="curve" smooth="yes"/>
      <point x="814" y="688"/>
      <point x="880" y="632"/>
      <point x="880" y="479" type="curve" smooth="yes"/>
      <point x="880" y="257" type="line"/>
      <point x="906" y="257" type="line"/>
      <point x="906" y="490" type="line" smooth="yes"/>
      <point x="906" y="653"/>
      <point x="823" y="714"/>
      <point x="688" y="714" type="curve" smooth="yes"/>
      <point x="582" y="714"/>
      <point x="526" y="677"/>
      <point x="488" y="643" type="curve"/>
      <point x="488" y="714" type="line"/>
      <point x="410" y="714" type="line" smooth="yes"/>
      <point x="182" y="714"/>
      <point x="85" y="594"/>
      <point x="85" y="366" type="curve" smooth="yes"/>
    </contour>
    <contour>
      <point x="85" y="257" type="line"/>
      <point x="159" y="257" type="line" smooth="yes"/>
      <point x="280" y="257"/>
      <point x="327" y="311"/>
      <point x="327" y="381" type="curve" smooth="yes"/>
      <point x="327" y="444"/>
      <point x="288" y="487"/>
      <point x="197" y="487" type="curve" smooth="yes"/>
      <point x="104" y="487" type="line"/>
    </contour>
    <contour>
      <point x="111" y="282" type="line"/>
      <point x="111" y="462" type="line"/>
      <point x="193" y="462" type="line" smooth="yes"/>
      <point x="271" y="462"/>
      <point x="301" y="429"/>
      <point x="301" y="379" type="curve" smooth="yes"/>
      <point x="301" y="322"/>
      <point x="264" y="282"/>
      <point x="156" y="282" type="curve" smooth="yes"/>
    </contour>
    <contour>
      <point x="577" y="0" type="line"/>
      <point x="603" y="0" type="line"/>
      <point x="603" y="414" type="line"/>
      <point x="577" y="414" type="line"/>
    </contour>
    <contour>
      <point x="477" y="401" type="line"/>
      <point x="603" y="401" type="line"/>
      <point x="603" y="426" type="line"/>
      <point x="477" y="426" type="line"/>
    </contour>
    <component base="bbowlnarrow" xOffset="527"/>
    <component base="bbowlnarrow" xOffset="830" yOffset="257"/>
  </outline>
</glyph>
<glyph name="cho.eth" format="2">
  <advance width="1102"/>
  <unicode hex="132E"/>
  <note>
uni132E
</note>
  <anchor x="583" y="714" name="top"/>
  <outline>
    <contour>
      <point x="85" y="0" type="line"/>
      <point x="111" y="0" type="line"/>
      <point x="111" y="361" type="line" smooth="yes"/>
      <point x="111" y="578"/>
      <point x="199" y="689"/>
      <point x="413" y="689" type="curve" smooth="yes"/>
      <point x="435" y="689"/>
      <point x="447" y="689"/>
      <point x="462" y="689" type="curve"/>
      <point x="462" y="256" type="line"/>
      <point x="488" y="256" type="line"/>
      <point x="488" y="611" type="line"/>
      <point x="519" y="648"/>
      <point x="580" y="688"/>
      <point x="663" y="688" type="curve" smooth="yes"/>
      <point x="781" y="688"/>
      <point x="840" y="632"/>
      <point x="840" y="479" type="curve" smooth="yes"/>
      <point x="840" y="256" type="line"/>
      <point x="866" y="256" type="line"/>
      <point x="866" y="490" type="line" smooth="yes"/>
      <point x="866" y="653"/>
      <point x="791" y="714"/>
      <point x="668" y="714" type="curve" smooth="yes"/>
      <point x="573" y="714"/>
      <point x="522" y="677"/>
      <point x="488" y="643" type="curve"/>
      <point x="488" y="714" type="line"/>
      <point x="410" y="714" type="line" smooth="yes"/>
      <point x="182" y="714"/>
      <point x="85" y="594"/>
      <point x="85" y="366" type="curve" smooth="yes"/>
    </contour>
    <component base="bbowlnarrow" xOffset="412" yOffset="256"/>
    <component base="bbowlnarrow" xOffset="790" yOffset="256"/>
    <component base="bbowlnarrow" xOffset="35"/>
  </outline>
</glyph>
<glyph name="chwa.eth" format="2">
  <advance width="1051"/>
  <unicode hex="132F"/>
  <note>
uni132F
</note>
  <anchor x="558" y="714" name="top"/>
  <outline>
    <contour>
      <point x="840" y="0" type="line"/>
      <point x="866" y="0" type="line"/>
      <point x="866" y="490" type="line" smooth="yes"/>
      <point x="866" y="653"/>
      <point x="791" y="714"/>
      <point x="668" y="714" type="curve" smooth="yes"/>
      <point x="573" y="714"/>
      <point x="522" y="677"/>
      <point x="488" y="643" type="curve"/>
      <point x="488" y="714" type="line"/>
      <point x="410" y="714" type="line" smooth="yes"/>
      <point x="182" y="714"/>
      <point x="85" y="615"/>
      <point x="85" y="426" type="curve" smooth="yes"/>
      <point x="85" y="257" type="line"/>
      <point x="111" y="257" type="line"/>
      <point x="111" y="421" type="line" smooth="yes"/>
      <point x="111" y="598"/>
      <point x="199" y="689"/>
      <point x="413" y="689" type="curve" smooth="yes"/>
      <point x="435" y="689"/>
      <point x="447" y="689"/>
      <point x="462" y="689" type="curve"/>
      <point x="462" y="257" type="line"/>
      <point x="488" y="257" type="line"/>
      <point x="488" y="611" type="line"/>
      <point x="519" y="648"/>
      <point x="580" y="688"/>
      <point x="663" y="688" type="curve" smooth="yes"/>
      <point x="781" y="688"/>
      <point x="840" y="632"/>
      <point x="840" y="479" type="curve" smooth="yes"/>
    </contour>
    <contour>
      <point x="85" y="257" type="line"/>
      <point x="159" y="257" type="line" smooth="yes"/>
      <point x="280" y="257"/>
      <point x="327" y="311"/>
      <point x="327" y="381" type="curve" smooth="yes"/>
      <point x="327" y="444"/>
      <point x="288" y="487"/>
      <point x="197" y="487" type="curve" smooth="yes"/>
      <point x="95" y="487" type="line"/>
    </contour>
    <contour>
      <point x="111" y="282" type="line"/>
      <point x="111" y="462" type="line"/>
      <point x="193" y="462" type="line" smooth="yes"/>
      <point x="271" y="462"/>
      <point x="301" y="429"/>
      <point x="301" y="379" type="curve" smooth="yes"/>
      <point x="301" y="322"/>
      <point x="264" y="282"/>
      <point x="156" y="282" type="curve" smooth="yes"/>
    </contour>
    <component base="footmiddle" xOffset="517"/>
    <component base="bbowlnarrow" xOffset="413" yOffset="257"/>
  </outline>
</glyph>
<glyph name="pha.eth" format="2">
  <advance width="562"/>
  <unicode hex="1330"/>
  <note>
uni1330
</note>
  <anchor x="281" y="760" name="top"/>
  <outline>
    <contour>
      <point x="65" y="0" type="curve"/>
      <point x="91" y="0" type="line"/>
      <point x="91" y="121"/>
      <point x="132" y="204"/>
      <point x="283" y="306" type="curve" smooth="yes"/>
      <point x="390" y="379"/>
      <point x="433" y="423"/>
      <point x="433" y="510" type="curve" smooth="yes"/>
      <point x="433" y="593"/>
      <point x="370" y="653"/>
      <point x="272" y="653" type="curve" smooth="yes"/>
      <point x="178" y="653"/>
      <point x="114" y="593"/>
      <point x="114" y="498" type="curve" smooth="yes"/>
      <point x="114" y="400"/>
      <point x="186" y="349"/>
      <point x="278" y="321" type="curve"/>
      <point x="299" y="339" type="line"/>
      <point x="210" y="363"/>
      <point x="140" y="407"/>
      <point x="140" y="498" type="curve" smooth="yes"/>
      <point x="140" y="581"/>
      <point x="195" y="628"/>
      <point x="272" y="628" type="curve" smooth="yes"/>
      <point x="355" y="628"/>
      <point x="407" y="577"/>
      <point x="407" y="510" type="curve" smooth="yes"/>
      <point x="407" y="434"/>
      <point x="374" y="395"/>
      <point x="275" y="329" type="curve" smooth="yes"/>
      <point x="115" y="222"/>
      <point x="65" y="134"/>
    </contour>
    <contour>
      <point x="471" y="0" type="line"/>
      <point x="497" y="0" type="line"/>
      <point x="497" y="35" type="line" smooth="yes"/>
      <point x="497" y="175"/>
      <point x="411" y="262"/>
      <point x="260" y="302" type="curve"/>
      <point x="238" y="284" type="line"/>
      <point x="393" y="244"/>
      <point x="471" y="163"/>
      <point x="471" y="31" type="curve" smooth="yes"/>
    </contour>
    <contour>
      <point x="258" y="642" type="line"/>
      <point x="285" y="642" type="line"/>
      <point x="285" y="760" type="line"/>
      <point x="258" y="760" type="line"/>
    </contour>
  </outline>
</glyph>
<glyph name="phu.eth" format="2">
  <advance width="692"/>
  <unicode hex="1331"/>
  <note>
uni1331
</note>
  <anchor x="368" y="760" name="top"/>
  <outline>
    <contour>
      <point x="446" y="163" type="line"/>
      <point x="485" y="163" type="line"/>
      <point x="485" y="188" type="line"/>
      <point x="446" y="188" type="line"/>
    </contour>
    <component base="pha.eth"/>
    <component base="rightsingleflag" xOffset="409" yOffset="-200"/>
  </outline>
</glyph>
<glyph name="phaa.eth" format="2">
  <advance width="544"/>
  <unicode hex="1333"/>
  <note>
uni1333
</note>
  <anchor x="272" y="760" name="top"/>
  <outline>
    <contour>
      <point x="65" y="118" type="curve"/>
      <point x="92" y="118" type="line"/>
      <point x="117" y="183"/>
      <point x="168" y="241"/>
      <point x="265" y="306" type="curve" smooth="yes"/>
      <point x="372" y="378"/>
      <point x="415" y="423"/>
      <point x="415" y="510" type="curve" smooth="yes"/>
      <point x="415" y="593"/>
      <point x="352" y="653"/>
      <point x="254" y="653" type="curve" smooth="yes"/>
      <point x="160" y="653"/>
      <point x="96" y="593"/>
      <point x="96" y="498" type="curve" smooth="yes"/>
      <point x="96" y="400"/>
      <point x="168" y="349"/>
      <point x="260" y="321" type="curve"/>
      <point x="281" y="339" type="line"/>
      <point x="192" y="363"/>
      <point x="122" y="407"/>
      <point x="122" y="498" type="curve" smooth="yes"/>
      <point x="122" y="581"/>
      <point x="177" y="628"/>
      <point x="254" y="628" type="curve" smooth="yes"/>
      <point x="337" y="628"/>
      <point x="389" y="577"/>
      <point x="389" y="510" type="curve" smooth="yes"/>
      <point x="389" y="434"/>
      <point x="356" y="395"/>
      <point x="257" y="329" type="curve" smooth="yes"/>
      <point x="149" y="257"/>
      <point x="91" y="193"/>
    </contour>
    <contour>
      <point x="453" y="0" type="line"/>
      <point x="479" y="0" type="line"/>
      <point x="479" y="35" type="line" smooth="yes"/>
      <point x="479" y="175"/>
      <point x="393" y="262"/>
      <point x="242" y="302" type="curve"/>
      <point x="220" y="284" type="line"/>
      <point x="375" y="244"/>
      <point x="453" y="163"/>
      <point x="453" y="31" type="curve" smooth="yes"/>
    </contour>
    <contour>
      <point x="240" y="642" type="line"/>
      <point x="267" y="642" type="line"/>
      <point x="267" y="760" type="line"/>
      <point x="240" y="760" type="line"/>
    </contour>
  </outline>
</glyph>
<glyph name="pho.eth" format="2">
  <advance width="547"/>
  <unicode hex="1336"/>
  <note>
uni1336
</note>
  <anchor x="273" y="760" name="top"/>
  <outline>
    <contour>
      <point x="65" y="0" type="curve"/>
      <point x="91" y="0" type="line"/>
      <point x="91" y="121"/>
      <point x="132" y="204"/>
      <point x="283" y="306" type="curve" smooth="yes"/>
      <point x="390" y="379"/>
      <point x="433" y="423"/>
      <point x="433" y="510" type="curve" smooth="yes"/>
      <point x="433" y="593"/>
      <point x="370" y="653"/>
      <point x="272" y="653" type="curve" smooth="yes"/>
      <point x="178" y="653"/>
      <point x="114" y="593"/>
      <point x="114" y="498" type="curve" smooth="yes"/>
      <point x="114" y="400"/>
      <point x="186" y="349"/>
      <point x="278" y="321" type="curve"/>
      <point x="299" y="339" type="line"/>
      <point x="210" y="363"/>
      <point x="140" y="407"/>
      <point x="140" y="498" type="curve" smooth="yes"/>
      <point x="140" y="581"/>
      <point x="195" y="628"/>
      <point x="272" y="628" type="curve" smooth="yes"/>
      <point x="355" y="628"/>
      <point x="407" y="577"/>
      <point x="407" y="510" type="curve" smooth="yes"/>
      <point x="407" y="434"/>
      <point x="374" y="395"/>
      <point x="275" y="329" type="curve" smooth="yes"/>
      <point x="115" y="222"/>
      <point x="65" y="134"/>
    </contour>
    <contour>
      <point x="453" y="129" type="curve"/>
      <point x="482" y="129" type="line"/>
      <point x="451" y="215"/>
      <point x="374" y="272"/>
      <point x="260" y="302" type="curve"/>
      <point x="238" y="284" type="line"/>
      <point x="350" y="255"/>
      <point x="422" y="205"/>
    </contour>
    <contour>
      <point x="258" y="642" type="line"/>
      <point x="285" y="642" type="line"/>
      <point x="285" y="760" type="line"/>
      <point x="258" y="760" type="line"/>
    </contour>
  </outline>
</glyph>
<glyph name="tsaa.eth" format="2">
  <advance width="549"/>
  <unicode hex="133B"/>
  <note>
uni133B
</note>
  <anchor x="274" y="724" name="top"/>
  <outline>
    <contour>
      <point x="65" y="142" type="curve"/>
      <point x="91" y="142" type="line"/>
      <point x="112" y="238"/>
      <point x="164" y="306"/>
      <point x="270" y="377" type="curve" smooth="yes"/>
      <point x="377" y="449"/>
      <point x="420" y="494"/>
      <point x="420" y="581" type="curve" smooth="yes"/>
      <point x="420" y="664"/>
      <point x="357" y="724"/>
      <point x="259" y="724" type="curve" smooth="yes"/>
      <point x="165" y="724"/>
      <point x="101" y="664"/>
      <point x="101" y="569" type="curve" smooth="yes"/>
      <point x="101" y="471"/>
      <point x="173" y="420"/>
      <point x="265" y="392" type="curve"/>
      <point x="286" y="410" type="line"/>
      <point x="197" y="434"/>
      <point x="127" y="478"/>
      <point x="127" y="569" type="curve" smooth="yes"/>
      <point x="127" y="652"/>
      <point x="182" y="699"/>
      <point x="259" y="699" type="curve" smooth="yes"/>
      <point x="342" y="699"/>
      <point x="394" y="648"/>
      <point x="394" y="581" type="curve" smooth="yes"/>
      <point x="394" y="505"/>
      <point x="361" y="466"/>
      <point x="262" y="400" type="curve" smooth="yes"/>
      <point x="146" y="323"/>
      <point x="88" y="250"/>
    </contour>
    <contour>
      <point x="458" y="0" type="line"/>
      <point x="484" y="0" type="line"/>
      <point x="484" y="35" type="line" smooth="yes"/>
      <point x="484" y="235"/>
      <point x="398" y="333"/>
      <point x="247" y="373" type="curve"/>
      <point x="225" y="355" type="line"/>
      <point x="380" y="315"/>
      <point x="458" y="223"/>
      <point x="458" y="31" type="curve" smooth="yes"/>
    </contour>
  </outline>
</glyph>
<glyph name="tsee.eth" format="2">
  <advance width="707"/>
  <unicode hex="133C"/>
  <note>
uni133C
</note>
  <anchor x="376" y="724" name="top"/>
  <outline>
    <contour>
      <point x="65" y="0" type="curve"/>
      <point x="91" y="0" type="line"/>
      <point x="91" y="181"/>
      <point x="132" y="275"/>
      <point x="283" y="377" type="curve" smooth="yes"/>
      <point x="390" y="450"/>
      <point x="433" y="494"/>
      <point x="433" y="581" type="curve" smooth="yes"/>
      <point x="433" y="664"/>
      <point x="370" y="724"/>
      <point x="272" y="724" type="curve" smooth="yes"/>
      <point x="178" y="724"/>
      <point x="114" y="664"/>
      <point x="114" y="569" type="curve" smooth="yes"/>
      <point x="114" y="471"/>
      <point x="186" y="420"/>
      <point x="278" y="392" type="curve"/>
      <point x="299" y="410" type="line"/>
      <point x="210" y="434"/>
      <point x="140" y="478"/>
      <point x="140" y="569" type="curve" smooth="yes"/>
      <point x="140" y="652"/>
      <point x="195" y="699"/>
      <point x="272" y="699" type="curve" smooth="yes"/>
      <point x="355" y="699"/>
      <point x="407" y="648"/>
      <point x="407" y="581" type="curve" smooth="yes"/>
      <point x="407" y="505"/>
      <point x="374" y="466"/>
      <point x="275" y="400" type="curve" smooth="yes"/>
      <point x="115" y="293"/>
      <point x="65" y="194"/>
    </contour>
    <contour>
      <point x="584" y="-15" type="curve" smooth="yes"/>
      <point x="645" y="-15"/>
      <point x="687" y="27"/>
      <point x="687" y="89" type="curve" smooth="yes"/>
      <point x="687" y="150"/>
      <point x="645" y="192"/>
      <point x="584" y="192" type="curve" smooth="yes"/>
      <point x="535" y="192"/>
      <point x="502" y="163"/>
      <point x="489" y="122" type="curve"/>
      <point x="454" y="254"/>
      <point x="380" y="341"/>
      <point x="271" y="374" type="curve"/>
      <point x="248" y="359" type="line"/>
      <point x="360" y="330"/>
      <point x="436" y="249"/>
      <point x="475" y="86" type="curve" smooth="yes"/>
      <point x="491" y="19"/>
      <point x="525" y="-15"/>
    </contour>
    <contour>
      <point x="584" y="9" type="curve" smooth="yes"/>
      <point x="537" y="9"/>
      <point x="507" y="39"/>
      <point x="507" y="89" type="curve" smooth="yes"/>
      <point x="507" y="136"/>
      <point x="538" y="168"/>
      <point x="584" y="168" type="curve" smooth="yes"/>
      <point x="631" y="168"/>
      <point x="661" y="136"/>
      <point x="661" y="89" type="curve" smooth="yes"/>
      <point x="661" y="41"/>
      <point x="631" y="9"/>
    </contour>
  </outline>
</glyph>
<glyph name="tso.eth" format="2">
  <advance width="552"/>
  <unicode hex="133E"/>
  <note>
uni133E
</note>
  <anchor x="276" y="724" name="top"/>
  <outline>
    <contour>
      <point x="65" y="0" type="curve"/>
      <point x="91" y="0" type="line"/>
      <point x="91" y="181"/>
      <point x="132" y="275"/>
      <point x="283" y="377" type="curve" smooth="yes"/>
      <point x="390" y="450"/>
      <point x="433" y="494"/>
      <point x="433" y="581" type="curve" smooth="yes"/>
      <point x="433" y="664"/>
      <point x="370" y="724"/>
      <point x="272" y="724" type="curve" smooth="yes"/>
      <point x="178" y="724"/>
      <point x="114" y="664"/>
      <point x="114" y="569" type="curve" smooth="yes"/>
      <point x="114" y="471"/>
      <point x="186" y="420"/>
      <point x="278" y="392" type="curve"/>
      <point x="299" y="410" type="line"/>
      <point x="210" y="434"/>
      <point x="140" y="478"/>
      <point x="140" y="569" type="curve" smooth="yes"/>
      <point x="140" y="652"/>
      <point x="195" y="699"/>
      <point x="272" y="699" type="curve" smooth="yes"/>
      <point x="355" y="699"/>
      <point x="407" y="648"/>
      <point x="407" y="581" type="curve" smooth="yes"/>
      <point x="407" y="505"/>
      <point x="374" y="466"/>
      <point x="275" y="400" type="curve" smooth="yes"/>
      <point x="115" y="293"/>
      <point x="65" y="194"/>
    </contour>
    <contour>
      <point x="460" y="144" type="curve"/>
      <point x="487" y="144" type="line"/>
      <point x="460" y="272"/>
      <point x="381" y="341"/>
      <point x="260" y="373" type="curve"/>
      <point x="238" y="355" type="line"/>
      <point x="359" y="324"/>
      <point x="433" y="261"/>
    </contour>
  </outline>
</glyph>
<glyph name="tza.eth" format="2">
  <advance width="586"/>
  <unicode hex="1340"/>
  <note>
uni1340
</note>
  <anchor x="293" y="725" name="top"/>
  <outline>
    <contour>
      <point x="98" y="353" type="line"/>
      <point x="492" y="353" type="line"/>
      <point x="492" y="378" type="line"/>
      <point x="98" y="378" type="line"/>
    </contour>
    <component base="aPhr.eth"/>
  </outline>
</glyph>
<glyph name="tzi.eth" format="2">
  <advance width="512"/>
  <unicode hex="1342"/>
  <note>
uni1342
</note>
  <anchor x="271" y="724" name="top"/>
  <outline>
    <contour>
      <point x="213" y="0" type="line"/>
      <point x="338" y="0" type="line"/>
      <point x="338" y="25" type="line"/>
      <point x="213" y="25" type="line"/>
    </contour>
    <component base="tzaa.eth"/>
    <component base="rightdoubleflag" xOffset="229"/>
  </outline>
</glyph>
<glyph name="tzaa.eth" format="2">
  <advance width="466"/>
  <unicode hex="1343"/>
  <note>
uni1343
</note>
  <anchor x="228" y="724" name="top"/>
  <outline>
    <contour>
      <point x="192" y="0" type="line"/>
      <point x="219" y="0" type="line"/>
      <point x="236" y="88" type="line" smooth="yes"/>
      <point x="251" y="164"/>
      <point x="269" y="228"/>
      <point x="314" y="304" type="curve" smooth="yes"/>
      <point x="353" y="371"/>
      <point x="406" y="442"/>
      <point x="406" y="542" type="curve" smooth="yes"/>
      <point x="406" y="660"/>
      <point x="339" y="724"/>
      <point x="236" y="724" type="curve" smooth="yes"/>
      <point x="116" y="724"/>
      <point x="50" y="648"/>
      <point x="50" y="524" type="curve" smooth="yes"/>
      <point x="50" y="366"/>
      <point x="150" y="303"/>
      <point x="282" y="298" type="curve"/>
      <point x="249" y="239"/>
      <point x="227" y="174"/>
      <point x="210" y="89" type="curve" smooth="yes"/>
    </contour>
    <contour>
      <point x="296" y="323" type="curve"/>
      <point x="168" y="323"/>
      <point x="80" y="377"/>
      <point x="75" y="511" type="curve"/>
      <point x="378" y="511" type="line"/>
      <point x="370" y="437"/>
      <point x="328" y="374"/>
    </contour>
    <contour>
      <point x="75" y="536" type="line"/>
      <point x="79" y="637"/>
      <point x="135" y="699"/>
      <point x="233" y="699" type="curve" smooth="yes"/>
      <point x="322" y="699"/>
      <point x="380" y="649"/>
      <point x="380" y="536" type="curve"/>
    </contour>
  </outline>
</glyph>
<glyph name="tzee.eth" format="2">
  <advance width="518"/>
  <unicode hex="1344"/>
  <note>
uni1344
</note>
  <anchor x="274" y="724" name="top"/>
  <outline>
    <contour>
      <point x="197" y="0" type="line"/>
      <point x="336" y="0" type="line" smooth="yes"/>
      <point x="452" y="0"/>
      <point x="498" y="52"/>
      <point x="498" y="122" type="curve" smooth="yes"/>
      <point x="498" y="185"/>
      <point x="459" y="230"/>
      <point x="368" y="230" type="curve" smooth="yes"/>
      <point x="253" y="230" type="line"/>
    </contour>
    <contour>
      <point x="223" y="25" type="line"/>
      <point x="259" y="205" type="line"/>
      <point x="364" y="205" type="line" smooth="yes"/>
      <point x="441" y="205"/>
      <point x="470" y="172"/>
      <point x="470" y="122" type="curve" smooth="yes"/>
      <point x="470" y="65"/>
      <point x="435" y="25"/>
      <point x="329" y="25" type="curve" smooth="yes"/>
    </contour>
    <component base="tzaa.eth"/>
  </outline>
</glyph>
<glyph name="tzo.eth" format="2">
  <advance width="485"/>
  <unicode hex="1346"/>
  <note>
uni1346
</note>
  <anchor x="242" y="724" name="top"/>
  <outline>
    <contour>
      <point x="134" y="538" type="line"/>
      <point x="422" y="538" type="line"/>
      <point x="422" y="563" type="line"/>
      <point x="134" y="563" type="line"/>
    </contour>
    <component base="oPhr.eth"/>
  </outline>
</glyph>
<glyph name="fa.eth" format="2">
  <advance width="623"/>
  <unicode hex="1348"/>
  <note>
uni1348
</note>
  <anchor x="335" y="735" name="top"/>
  <outline>
    <contour>
      <point x="229" y="0" type="curve" smooth="yes"/>
      <point x="527" y="0" type="line"/>
      <point x="527" y="25" type="line"/>
      <point x="312" y="25" type="line"/>
      <point x="349" y="50"/>
      <point x="380" y="95"/>
      <point x="380" y="173" type="curve" smooth="yes"/>
      <point x="380" y="278"/>
      <point x="312" y="333"/>
      <point x="219" y="350" type="curve"/>
      <point x="295" y="390"/>
      <point x="345" y="426"/>
      <point x="387" y="473" type="curve" smooth="yes"/>
      <point x="454" y="548"/>
      <point x="473" y="624"/>
      <point x="473" y="735" type="curve"/>
      <point x="446" y="735" type="line"/>
      <point x="446" y="627"/>
      <point x="425" y="553"/>
      <point x="367" y="488" type="curve" smooth="yes"/>
      <point x="324" y="440"/>
      <point x="269" y="407"/>
      <point x="208" y="371" type="curve" smooth="yes"/>
      <point x="108" y="312"/>
      <point x="67" y="256"/>
      <point x="67" y="161" type="curve" smooth="yes"/>
      <point x="67" y="55"/>
      <point x="128" y="0"/>
    </contour>
    <contour>
      <point x="229" y="25" type="curve" smooth="yes"/>
      <point x="149" y="25"/>
      <point x="93" y="69"/>
      <point x="93" y="163" type="curve" smooth="yes"/>
      <point x="93" y="250"/>
      <point x="137" y="295"/>
      <point x="191" y="331" type="curve"/>
      <point x="288" y="317"/>
      <point x="354" y="269"/>
      <point x="354" y="171" type="curve" smooth="yes"/>
      <point x="354" y="85"/>
      <point x="309" y="25"/>
    </contour>
    <component base="rightdoubleflag" xOffset="340"/>
  </outline>
</glyph>
<glyph name="fu.eth" format="2">
  <advance width="565"/>
  <unicode hex="1349"/>
  <note>
uni1349
</note>
  <anchor x="306" y="761" name="top"/>
  <outline>
    <contour>
      <point x="103" y="0" type="curve"/>
      <point x="129" y="0" type="line"/>
      <point x="135" y="103"/>
      <point x="164" y="164"/>
      <point x="261" y="210" type="curve" smooth="yes"/>
      <point x="337" y="246"/>
      <point x="372" y="298"/>
      <point x="372" y="386" type="curve" smooth="yes"/>
      <point x="372" y="489"/>
      <point x="329" y="536"/>
      <point x="265" y="552" type="curve"/>
      <point x="374" y="577"/>
      <point x="448" y="648"/>
      <point x="460" y="761" type="curve"/>
      <point x="434" y="761" type="line"/>
      <point x="422" y="658"/>
      <point x="363" y="592"/>
      <point x="219" y="564" type="curve" smooth="yes"/>
      <point x="105" y="542"/>
      <point x="67" y="477"/>
      <point x="67" y="380" type="curve" smooth="yes"/>
      <point x="67" y="275"/>
      <point x="123" y="217"/>
      <point x="214" y="212" type="curve"/>
      <point x="149" y="174"/>
      <point x="111" y="114"/>
    </contour>
    <contour>
      <point x="219" y="236" type="curve" smooth="yes"/>
      <point x="144" y="236"/>
      <point x="93" y="284"/>
      <point x="93" y="380" type="curve" smooth="yes"/>
      <point x="93" y="492"/>
      <point x="155" y="534"/>
      <point x="224" y="534" type="curve" smooth="yes"/>
      <point x="301" y="534"/>
      <point x="346" y="486"/>
      <point x="346" y="386" type="curve" smooth="yes"/>
      <point x="346" y="291"/>
      <point x="297" y="236"/>
    </contour>
    <contour>
      <point x="262" y="216" type="line"/>
      <point x="383" y="216" type="line"/>
      <point x="383" y="241" type="line"/>
      <point x="262" y="241" type="line"/>
    </contour>
    <component base="rightdoubleflag" xOffset="282" yOffset="216"/>
  </outline>
</glyph>
<glyph name="fi.eth" format="2">
  <advance width="597"/>
  <unicode hex="134A"/>
  <note>
uni134A
</note>
  <anchor x="322" y="724" name="top"/>
  <outline>
    <contour>
      <point x="220" y="0" type="line"/>
      <point x="356" y="0" type="line" smooth="yes"/>
      <point x="511" y="0"/>
      <point x="577" y="72"/>
      <point x="577" y="203" type="curve" smooth="yes"/>
      <point x="577" y="235" type="line"/>
      <point x="551" y="235" type="line"/>
      <point x="551" y="206" type="line" smooth="yes"/>
      <point x="551" y="82"/>
      <point x="494" y="25"/>
      <point x="353" y="25" type="curve" smooth="yes"/>
      <point x="274" y="25" type="line"/>
    </contour>
    <contour>
      <point x="452" y="724" type="curve"/>
      <point x="426" y="724" type="line"/>
      <point x="426" y="543"/>
      <point x="378" y="477"/>
      <point x="242" y="395" type="curve" smooth="yes"/>
      <point x="106" y="313"/>
      <point x="67" y="261"/>
      <point x="67" y="163" type="curve" smooth="yes"/>
      <point x="67" y="59"/>
      <point x="127" y="0"/>
      <point x="225" y="0" type="curve" smooth="yes"/>
      <point x="319" y="0"/>
      <point x="386" y="60"/>
      <point x="386" y="169" type="curve" smooth="yes"/>
      <point x="386" y="273"/>
      <point x="325" y="334"/>
      <point x="233" y="362" type="curve"/>
      <point x="406" y="464"/>
      <point x="452" y="532"/>
    </contour>
    <contour>
      <point x="208" y="346" type="curve"/>
      <point x="307" y="320"/>
      <point x="360" y="257"/>
      <point x="360" y="173" type="curve" smooth="yes"/>
      <point x="360" y="76"/>
      <point x="311" y="25"/>
      <point x="225" y="25" type="curve" smooth="yes"/>
      <point x="142" y="25"/>
      <point x="93" y="75"/>
      <point x="93" y="167" type="curve" smooth="yes"/>
      <point x="93" y="234"/>
      <point x="127" y="291"/>
    </contour>
  </outline>
</glyph>
<glyph name="faa.eth" format="2">
  <advance width="610"/>
  <unicode hex="134B"/>
  <note>
uni134B
</note>
  <anchor x="328" y="763" name="top"/>
  <outline>
    <contour>
      <point x="331" y="0" type="line"/>
      <point x="357" y="0" type="line"/>
      <point x="357" y="219" type="line"/>
      <point x="428" y="219" type="line"/>
      <point x="427" y="244" type="line"/>
      <point x="357" y="244" type="line"/>
      <point x="357" y="385" type="line" smooth="yes"/>
      <point x="357" y="496"/>
      <point x="310" y="539"/>
      <point x="245" y="550" type="curve"/>
      <point x="357" y="587"/>
      <point x="437" y="643"/>
      <point x="463" y="763" type="curve"/>
      <point x="434" y="763" type="line"/>
      <point x="411" y="655"/>
      <point x="330" y="600"/>
      <point x="203" y="562" type="curve" smooth="yes"/>
      <point x="113" y="535"/>
      <point x="67" y="488"/>
      <point x="67" y="380" type="curve" smooth="yes"/>
      <point x="67" y="272"/>
      <point x="130" y="219"/>
      <point x="222" y="219" type="curve" smooth="yes"/>
      <point x="331" y="219" type="line"/>
    </contour>
    <contour>
      <point x="228" y="244" type="line" smooth="yes"/>
      <point x="142" y="244"/>
      <point x="93" y="287"/>
      <point x="93" y="381" type="curve" smooth="yes"/>
      <point x="93" y="482"/>
      <point x="144" y="529"/>
      <point x="215" y="529" type="curve" smooth="yes"/>
      <point x="285" y="529"/>
      <point x="331" y="488"/>
      <point x="331" y="383" type="curve" smooth="yes"/>
      <point x="331" y="244" type="line"/>
    </contour>
    <component base="rightsingleflag" xOffset="327" yOffset="-144"/>
  </outline>
</glyph>
<glyph name="fee.eth" format="2">
  <advance width="731"/>
  <unicode hex="134C"/>
  <note>
uni134C
</note>
  <anchor x="389" y="724" name="top"/>
  <outline>
    <contour>
      <point x="292" y="26" type="line"/>
      <point x="538" y="26" type="line"/>
      <point x="498" y="51" type="line"/>
      <point x="336" y="51" type="line"/>
    </contour>
    <component base="ballsmall" xOffset="444" yOffset="-195"/>
    <component base="oPhr.eth" xScale="-1" yScale="-1" xOffset="502" yOffset="724"/>
  </outline>
</glyph>
<glyph name="fe.eth" format="2">
  <advance width="606"/>
  <unicode hex="134D"/>
  <note>
uni134D
</note>
  <anchor x="328" y="714" name="top"/>
  <outline>
    <contour>
      <point x="577" y="88" type="curve" smooth="yes"/>
      <point x="586" y="88" type="line"/>
      <point x="561" y="186" type="line"/>
      <point x="330" y="186" type="line" smooth="yes"/>
      <point x="169" y="186"/>
      <point x="96" y="252"/>
      <point x="96" y="411" type="curve" smooth="yes"/>
      <point x="96" y="602"/>
      <point x="210" y="689"/>
      <point x="388" y="689" type="curve" smooth="yes"/>
      <point x="522" y="689" type="line"/>
      <point x="532" y="643"/>
      <point x="552" y="616"/>
      <point x="576" y="616" type="curve" smooth="yes"/>
      <point x="585" y="616" type="line"/>
      <point x="560" y="714" type="line"/>
      <point x="384" y="714" type="line" smooth="yes"/>
      <point x="195" y="714"/>
      <point x="70" y="615"/>
      <point x="70" y="411" type="curve" smooth="yes"/>
      <point x="70" y="236"/>
      <point x="155" y="161"/>
      <point x="326" y="161" type="curve" smooth="yes"/>
      <point x="523" y="161" type="line"/>
      <point x="533" y="115"/>
      <point x="553" y="88"/>
    </contour>
    <contour>
      <point x="343" y="0" type="line"/>
      <point x="369" y="0" type="line"/>
      <point x="369" y="186" type="line" smooth="yes"/>
      <point x="369" y="401"/>
      <point x="303" y="479"/>
      <point x="98" y="481" type="curve"/>
      <point x="93" y="456" type="line"/>
      <point x="285" y="455"/>
      <point x="343" y="388"/>
      <point x="343" y="178" type="curve" smooth="yes"/>
    </contour>
  </outline>
</glyph>
<glyph name="fo.eth" format="2">
  <advance width="611"/>
  <unicode hex="134E"/>
  <note>
uni134E
</note>
  <anchor x="335" y="714" name="top"/>
  <outline>
    <contour>
      <point x="80" y="0" type="line"/>
      <point x="106" y="0" type="line"/>
      <point x="106" y="312" type="line" smooth="yes"/>
      <point x="106" y="597"/>
      <point x="205" y="689"/>
      <point x="378" y="689" type="curve"/>
      <point x="421" y="714" type="line"/>
      <point x="391" y="714" type="line" smooth="yes"/>
      <point x="176" y="714"/>
      <point x="80" y="605"/>
      <point x="80" y="316" type="curve" smooth="yes"/>
    </contour>
    <contour>
      <point x="140" y="0" type="line"/>
      <point x="386" y="0" type="line"/>
      <point x="386" y="25" type="line"/>
      <point x="140" y="25" type="line"/>
    </contour>
    <component base="baselinebowl" xOffset="30"/>
    <component base="ballbig" xOffset="249" yOffset="291"/>
    <component base="rightdoubleflag" xOffset="328"/>
  </outline>
</glyph>
<glyph name="fwa.eth" format="2">
  <advance width="622"/>
  <unicode hex="134F"/>
  <note>
uni134F
</note>
  <anchor x="311" y="714" name="top"/>
  <outline>
    <contour>
      <point x="315" y="14" type="line"/>
      <point x="341" y="14" type="line"/>
      <point x="341" y="245" type="line"/>
      <point x="470" y="245" type="line"/>
      <point x="470" y="270" type="line"/>
      <point x="341" y="270" type="line"/>
      <point x="341" y="449"/>
      <point x="294" y="479"/>
      <point x="119" y="484" type="curve"/>
      <point x="170" y="518"/>
      <point x="232" y="541"/>
      <point x="278" y="570" type="curve" smooth="yes"/>
      <point x="344" y="612"/>
      <point x="371" y="647"/>
      <point x="376" y="714" type="curve"/>
      <point x="350" y="714" type="line"/>
      <point x="345" y="644"/>
      <point x="312" y="608"/>
      <point x="184" y="546" type="curve" smooth="yes"/>
      <point x="71" y="491"/>
      <point x="20" y="446"/>
      <point x="20" y="371" type="curve" smooth="yes"/>
      <point x="20" y="296"/>
      <point x="63" y="245"/>
      <point x="210" y="245" type="curve" smooth="yes"/>
      <point x="315" y="245" type="line"/>
    </contour>
    <contour>
      <point x="210" y="270" type="line" smooth="yes"/>
      <point x="94" y="270"/>
      <point x="46" y="304"/>
      <point x="46" y="374" type="curve" smooth="yes"/>
      <point x="46" y="416"/>
      <point x="68" y="442"/>
      <point x="91" y="461" type="curve"/>
      <point x="283" y="461"/>
      <point x="315" y="433"/>
      <point x="315" y="270" type="curve"/>
    </contour>
    <component base="rightsingleflag" xOffset="339" yOffset="-118"/>
    <component base="footmiddle" xOffset="55"/>
  </outline>
</glyph>
<glyph name="pe.eth" format="2">
  <advance width="534"/>
  <unicode hex="1355"/>
  <note>
uni1355
</note>
  <anchor x="267" y="714" name="top"/>
  <outline>
    <contour>
      <point x="381" y="0" type="line"/>
      <point x="407" y="0" type="line"/>
      <point x="407" y="416" type="line"/>
      <point x="381" y="416" type="line"/>
    </contour>
    <contour>
      <point x="252" y="404" type="line"/>
      <point x="407" y="404" type="line"/>
      <point x="407" y="429" type="line"/>
      <point x="252" y="429" type="line"/>
    </contour>
    <contour>
      <point x="252" y="416" type="line"/>
      <point x="278" y="416" type="line"/>
      <point x="278" y="701" type="line"/>
      <point x="252" y="701" type="line"/>
    </contour>
    <component base="footmiddle" yOffset="689"/>
  </outline>
</glyph>
<glyph name="po.eth" format="2">
  <advance width="623"/>
  <unicode hex="1356"/>
  <note>
uni1356
</note>
  <anchor x="331" y="714" name="top"/>
  <outline>
    <contour>
      <point x="60" y="0" type="line"/>
      <point x="86" y="0" type="line"/>
      <point x="86" y="13" type="line" smooth="yes"/>
      <point x="86" y="161"/>
      <point x="117" y="232"/>
      <point x="247" y="356" type="curve" smooth="yes"/>
      <point x="353" y="457"/>
      <point x="379" y="539"/>
      <point x="379" y="703" type="curve"/>
      <point x="353" y="703" type="line"/>
      <point x="353" y="546"/>
      <point x="330" y="470"/>
      <point x="228" y="373" type="curve" smooth="yes"/>
      <point x="95" y="246"/>
      <point x="60" y="175"/>
      <point x="60" y="10" type="curve" smooth="yes"/>
    </contour>
    <component base="footmiddle" xOffset="89" yOffset="689"/>
  </outline>
</glyph>
<glyph name="rya.eth" format="2">
  <advance width="671"/>
  <unicode hex="1358"/>
  <note>
uni1358
</note>
  <anchor x="359" y="762" name="top"/>
  <outline>
    <contour>
      <point x="279" y="-10" type="curve" smooth="yes"/>
      <point x="438" y="-10"/>
      <point x="502" y="77"/>
      <point x="502" y="211" type="curve" smooth="yes"/>
      <point x="502" y="222" type="line"/>
      <point x="474" y="222" type="line"/>
      <point x="474" y="210" type="line" smooth="yes"/>
      <point x="474" y="81"/>
      <point x="415" y="15"/>
      <point x="279" y="15" type="curve" smooth="yes"/>
      <point x="159" y="15"/>
      <point x="93" y="65"/>
      <point x="93" y="171" type="curve" smooth="yes"/>
      <point x="93" y="277"/>
      <point x="142" y="325"/>
      <point x="284" y="423" type="curve" smooth="yes"/>
      <point x="381" y="490"/>
      <point x="419" y="568"/>
      <point x="425" y="680" type="curve"/>
      <point x="399" y="680" type="line"/>
      <point x="394" y="575"/>
      <point x="363" y="506"/>
      <point x="266" y="439" type="curve" smooth="yes"/>
      <point x="120" y="339"/>
      <point x="67" y="284"/>
      <point x="67" y="171" type="curve" smooth="yes"/>
      <point x="67" y="51"/>
      <point x="142" y="-10"/>
    </contour>
    <component base="footright" xScale="-1" yScale="-1" xOffset="671" yOffset="689"/>
  </outline>
</glyph>
